SplineFontDB: 3.0
FontName: Exo-Regular
FullName: Exo Regular
FamilyName: Exo
Weight: Regular
Copyright: Copyright (c) 2011 Natanael Gama (exo@ndiscovered.com), with Reserved Font Name "Exo"
Version: 1
ItalicAngle: 0
UnderlinePosition: -50
UnderlineWidth: 50
Ascent: 800
Descent: 200
sfntRevision: 0x00010000
LayerCount: 2
Layer: 0 0 "Back"  1
Layer: 1 0 "Fore"  0
XUID: [1021 348 1054973004 1200425]
FSType: 8
OS2Version: 0
OS2_WeightWidthSlopeOnly: 0
OS2_UseTypoMetrics: 1
CreationTime: 1265665101
ModificationTime: 1325017938
PfmFamily: 33
TTFWeight: 400
TTFWidth: 5
LineGap: 90
VLineGap: 0
OS2TypoAscent: 0
OS2TypoAOffset: 1
OS2TypoDescent: 0
OS2TypoDOffset: 1
OS2TypoLinegap: 90
OS2WinAscent: 0
OS2WinAOffset: 1
OS2WinDescent: 0
OS2WinDOffset: 1
HheadAscent: 0
HheadAOffset: 1
HheadDescent: 0
HheadDOffset: 1
OS2Vendor: 'PfEd'
Lookup: 4 0 0 "'ordn' Ordinals lookup 21"  {"'ordn' Ordinals lookup 21-1"  } ['ordn' ('DFLT' <'dflt' > 'grek' <'dflt' > 'latn' <'dflt' > ) ]
Lookup: 1 0 0 "'smcp' Lowercase to Small Capitals lookup 16"  {"'smcp' Lowercase to Small Capitals lookup 16-1" ("smcp" ) } ['smcp' ('DFLT' <'dflt' > 'grek' <'dflt' > 'latn' <'FRA ' 'dflt' > ) ]
Lookup: 1 0 0 "'c2sc' Capitals to Small Capitals in Latin lookup 17"  {"'c2sc' Capitals to Small Capitals in Latin lookup 17 subtable" ("smcp" ) } ['c2sc' ('latn' <'dflt' > ) ]
Lookup: 4 0 0 "'dlig' Discretionary Ligatures lookup 14"  {"'dlig' Discretionary Ligatures lookup 14-1"  } ['dlig' ('DFLT' <'dflt' > 'grek' <'dflt' > 'latn' <'dflt' > ) ]
Lookup: 4 0 1 "'liga' Standard Ligatures lookup 15"  {"'liga' Standard Ligatures lookup 15-1"  } ['liga' ('DFLT' <'dflt' > 'grek' <'dflt' > 'latn' <'FRA ' 'dflt' > ) ]
Lookup: 1 0 0 "'frac' Diagonal Fractions lookup 13"  {"'frac' Diagonal Fractions lookup 13-1"  } ['frac' ('DFLT' <'dflt' > 'grek' <'dflt' > 'latn' <'FRA ' 'dflt' > ) ]

StartChar: a
Encoding: 97 97 0
Width: 519
VWidth: 0
Flags: HW
HStem: -6 74<124.061 278.286> 262 58<297.875 394.839> 469 72<92.8965 374.922>
VStem: 40 74<78.9822 232.113> 395 74<111.909 262 319.629 449.646> 414 55<0 23.5789>
LayerCount: 2
Fore
SplineSet
114 131 m 2
 114 83 139 68 173 68 c 0
 253 68 395 119 395 119 c 1
 395 262 l 1
 173 246 l 2
 130 242 114 213 114 181 c 2
 114 131 l 2
40 126 m 2
 40 187 l 2
 40 267 90 320 173 320 c 2
 173 320 395 319 395 320 c 2
 395 320 396 386 395 387 c 1
 395 448 363 469 313 469 c 0
 241 469 154 464 57 457 c 1
 57 511 l 1
 128 531 217 540 316 541 c 0
 399 542 469 497 469 387 c 2
 469 0 l 1
 414 0 l 1
 395 64 l 1
 393 64 264 -6 173 -6 c 0
 100 -6 40 41 40 126 c 2
EndSplineSet
Substitution2: "'smcp' Lowercase to Small Capitals lookup 16-1" a.smcp
AlternateSubs2: "'salt' Access All Alternates in Latin lookup 4-1" a.salt
EndChar

StartChar: z
Encoding: 122 122 1
Width: 456
VWidth: 0
Flags: HW
HStem: 1 74<142 426> 457 74<30 334>
DStem2: 45 75 142 75 0.603335 0.797488<58.5235 479.004>
LayerCount: 2
Fore
SplineSet
30 457 m 1
 30 531 l 1
 426 531 l 1
 426 457 l 1
 142 75 l 1
 426 75 l 1
 427 74 426 1 426 1 c 1
 45 1 l 1
 45 75 l 1
 334 457 l 1
 30 457 l 1
EndSplineSet
Substitution2: "'smcp' Lowercase to Small Capitals lookup 16-1" z.smcp
EndChar

StartChar: e
Encoding: 101 101 2
Width: 525
VWidth: 0
Flags: HW
HStem: -5 74<153.639 451.098> 225 73<124 403.251> 461 74<160.856 389.792>
VStem: 50 74<101.024 225 298 420.766> 411 74<306.569 441.221>
LayerCount: 2
Fore
SplineSet
124 298 m 1
 348 298 l 2
 392 298 411 314 411 347 c 0
 411 452 391 461 283 461 c 0
 170 461 124 460 124 298 c 1
50 268 m 0
 50 505 118 535 282 535 c 0
 407 535 485 523 485 347 c 0
 485 270 444 225 348 225 c 2
 124 225 l 1
 124 100 147 69 225 69 c 0
 317 69 400 68 475 79 c 1
 475 23 l 1
 394 0 308 -5 225 -5 c 0
 90 -5 50 60 50 268 c 0
EndSplineSet
Substitution2: "'smcp' Lowercase to Small Capitals lookup 16-1" e.smcp
EndChar

StartChar: o
Encoding: 111 111 3
Width: 568
VWidth: 0
Flags: HW
HStem: -5 74<175.515 395.003> 462 74<173.221 396.872>
VStem: 50 74<124.237 406.335> 444 74<126.206 409.804>
LayerCount: 2
Fore
SplineSet
124 258 m 0
 124 81 181 69 284 69 c 0
 392 69 444 83 444 258 c 0
 444 448 401 462 284 462 c 0
 172 462 124 449 124 258 c 0
50 258 m 0
 50 475 110 536 284 536 c 0
 463 536 518 469 518 258 c 0
 518 61 463 -5 284 -5 c 0
 105 -5 50 68 50 258 c 0
EndSplineSet
Substitution2: "'smcp' Lowercase to Small Capitals lookup 16-1" o.smcp
EndChar

StartChar: c
Encoding: 99 99 5
Width: 500
VWidth: 0
Flags: HW
HStem: -5 74<162.645 431.709> 462 74<158.815 440.878>
VStem: 50 74<113 420.51>
LayerCount: 2
Fore
SplineSet
50 266 m 0
 50 498 123 536 225 536 c 0
 277 536 383 523 453 510 c 1
 453 456 l 1
 453 456 314 462 225 462 c 0
 165 462 124 451 124 262 c 0
 124 109 153 69 225 69 c 0
 317 69 460 80 460 80 c 1
 460 24 l 1
 379 1 308 -4 225 -5 c 1
 126 -5 50 33 50 266 c 0
EndSplineSet
Substitution2: "'smcp' Lowercase to Small Capitals lookup 16-1" c.smcp
EndChar

StartChar: d
Encoding: 100 100 6
Width: 554
VWidth: 0
Flags: HW
HStem: -6 74<170.522 328.738> 465 74<166.731 366.308> 765 20G<421 494>
VStem: 50 74<128.042 415.865> 421 73<105.707 443.8 499 785>
LayerCount: 2
Fore
SplineSet
124 263 m 0
 124 133 160 68 225 68 c 0
 304 68 367 92 421 114 c 1
 421 439 l 1
 352 457 302 465 225 465 c 0
 161 465 124 426 124 263 c 0
50 263 m 0
 50 399 74 539 225 539 c 0
 270 539 357 525 421 499 c 1
 421 785 l 1
 494 785 l 1
 494 0 l 1
 441 0 l 1
 421 59 l 1
 395 40 293 -6 225 -6 c 0
 80 -6 50 141 50 263 c 0
EndSplineSet
Substitution2: "'smcp' Lowercase to Small Capitals lookup 16-1" d.smcp
AlternateSubs2: "'salt' Access All Alternates in Latin lookup 4-1" d.salt
EndChar

StartChar: A
Encoding: 65 65 7
Width: 670
VWidth: 0
Flags: HW
HStem: 0 21G<45 142.471 550.824 645> 204 74<229 468> 712 20G<306.65 395.022>
DStem2: 45 0 136 0 0.344933 0.938627<31.3889 31.3889 324.406 455.52 493.375 686.215> 388 732 350 619 0.331269 -0.943536<94.0314 454.867 533.302 533.302>
LayerCount: 2
Fore
SplineSet
229 278 m 1
 468 278 l 1
 350 619 l 1
 229 278 l 1
45 0 m 1
 314 732 l 1
 388 732 l 1
 645 0 l 1
 557 0 l 1
 494 204 l 1
 202 204 l 1
 136 0 l 1
 45 0 l 1
EndSplineSet
Substitution2: "'c2sc' Capitals to Small Capitals in Latin lookup 17 subtable" a.smcp
EndChar

StartChar: p
Encoding: 112 112 8
Width: 554
VWidth: 0
Flags: HW
HStem: -8 74<186.875 387.269> 463 74<224.808 383.478>
VStem: 60 72<-270 32 87.1995 425.293> 60 53<509.263 531> 430 74<115.135 402.958>
LayerCount: 2
Fore
SplineSet
132 92 m 1
 201 74 252 66 329 66 c 0
 393 66 430 105 430 268 c 0
 430 398 394 463 329 463 c 0
 250 463 186 439 132 417 c 1
 132 92 l 1
60 -270 m 1
 60 531 l 1
 113 531 l 1
 132 472 l 1
 158 491 261 537 329 537 c 0
 474 537 504 390 504 268 c 0
 504 132 480 -8 329 -8 c 0
 284 -8 196 6 132 32 c 1
 132 -270 l 1
 60 -270 l 1
EndSplineSet
Substitution2: "'smcp' Lowercase to Small Capitals lookup 16-1" p.smcp
AlternateSubs2: "'salt' Access All Alternates in Latin lookup 4-1" p.salt
EndChar

StartChar: b
Encoding: 98 98 9
Width: 554
VWidth: 0
Flags: HW
HStem: -6 74<225.262 383.478> 465 74<187.279 387.269> 765 20G<60 132>
VStem: 60 73<105.707 443.8 499 785> 430 74<128.042 415.865>
LayerCount: 2
Fore
SplineSet
133 114 m 1
 187 92 250 68 329 68 c 0
 394 68 430 133 430 263 c 0
 430 426 393 465 329 465 c 0
 252 465 202 457 133 439 c 1
 133 114 l 1
60 0 m 1
 60 785 l 1
 132 785 l 1
 132 499 l 1
 196 525 284 539 329 539 c 0
 480 539 504 399 504 263 c 0
 504 141 474 -6 329 -6 c 0
 261 -6 159 40 133 59 c 1
 113 0 l 1
 60 0 l 1
EndSplineSet
Substitution2: "'smcp' Lowercase to Small Capitals lookup 16-1" b.smcp
AlternateSubs2: "'salt' Access All Alternates in Latin lookup 4-1" b.salt
EndChar

StartChar: q
Encoding: 113 113 10
Width: 555
VWidth: 0
Flags: HW
HStem: -10 74<169.794 370.618> 463 74<175.36 419.713>
VStem: 50 74<114.129 404.434> 421 74<-270 29 84.3832 463>
LayerCount: 2
Fore
SplineSet
124 268 m 0
 124 181 120 64 234 64 c 0
 308 64 338 68 421 89 c 1
 421 463 l 1
 234 463 l 2
 127 463 124 331 124 268 c 0
50 268 m 0
 50 436 109 537 234 537 c 0
 340 537 448 518 495 514 c 1
 495 -270 l 1
 421 -270 l 1
 421 29 l 1
 357 3 279 -10 234 -10 c 0
 81 -10 50 110 50 268 c 0
EndSplineSet
Substitution2: "'smcp' Lowercase to Small Capitals lookup 16-1" q.smcp
EndChar

StartChar: n
Encoding: 110 110 11
Width: 544
VWidth: 0
Flags: HW
HStem: 0 21G<60 134 420 494> 466 74<227.78 392.581> 511 20G<60 119.097>
VStem: 60 74<0 418.956> 420 74<0 437.431>
LayerCount: 2
Fore
SplineSet
60 0 m 1
 60 531 l 1
 112 531 l 1
 134 469 l 1
 195 504 249 540 330 540 c 0
 436 540 494 458 494 370 c 2
 494 0 l 1
 420 0 l 1
 420 370 l 2
 420 436 381 466 330 466 c 0
 250 466 211 446 134 409 c 1
 134 0 l 1
 60 0 l 1
EndSplineSet
Substitution2: "'smcp' Lowercase to Small Capitals lookup 16-1" n.smcp
AlternateSubs2: "'salt' Access All Alternates in Latin lookup 4-1" n.salt
EndChar

StartChar: i
Encoding: 105 105 12
Width: 197
VWidth: 0
Flags: HW
HStem: 0 21G<60 134> 511 20G<60 134> 594 102<50.1465 146.837>
VStem: 50 97<594.104 695.928> 60 74<0 531>
LayerCount: 2
Fore
SplineSet
60 0 m 1
 60 531 l 1
 134 531 l 1
 134 0 l 1
 60 0 l 1
50 617 m 2
 50 671 l 2
 50 686 58 696 74 696 c 2
 124 696 l 2
 139 696 147 685 147 671 c 2
 147 617 l 2
 147 602 138 594 124 594 c 2
 74 594 l 2
 60 594 50 603 50 617 c 2
EndSplineSet
Substitution2: "'smcp' Lowercase to Small Capitals lookup 16-1" i.smcp
EndChar

StartChar: h
Encoding: 104 104 13
Width: 544
VWidth: 0
Flags: HW
HStem: 0 21G<60 134 420 494> 466 74<227.78 392.774> 764 20G<60 134>
VStem: 60 74<0 418.956 469 784> 420 74<0 437.431>
LayerCount: 2
Fore
SplineSet
60 0 m 1
 60 784 l 1
 134 784 l 1
 134 469 l 1
 195 504 249 540 330 540 c 0
 436 540 494 458 494 370 c 2
 494 0 l 1
 420 0 l 1
 420 370 l 2
 420 436 382 466 330 466 c 0
 250 466 211 446 134 409 c 1
 134 0 l 1
 60 0 l 1
EndSplineSet
Substitution2: "'smcp' Lowercase to Small Capitals lookup 16-1" h.smcp
EndChar

StartChar: u
Encoding: 117 117 14
Width: 544
VWidth: 0
Flags: HW
HStem: -9 74<151.419 316.22> 0 21G<424.903 484> 511 20G<50 124 410 484>
VStem: 50 74<93.5694 531> 410 74<112.044 531>
LayerCount: 2
Fore
SplineSet
50 161 m 2
 50 531 l 1
 124 531 l 1
 124 161 l 2
 124 95 163 65 214 65 c 0
 294 65 333 85 410 122 c 1
 410 531 l 1
 484 531 l 1
 484 0 l 1
 432 0 l 1
 410 62 l 1
 349 27 295 -9 214 -9 c 0
 108 -9 50 73 50 161 c 2
EndSplineSet
Substitution2: "'smcp' Lowercase to Small Capitals lookup 16-1" u.smcp
AlternateSubs2: "'salt' Access All Alternates in Latin lookup 4-1" u.salt
EndChar

StartChar: r
Encoding: 114 114 15
Width: 426
VWidth: 0
Flags: HW
HStem: 0 21G<60 134> 462 75<230.081 405.422>
VStem: 60 74<0 413.98> 60 52<509.682 531>
LayerCount: 2
Fore
SplineSet
60 0 m 1
 60 531 l 1
 112 531 l 1
 134 464 l 1
 195 499 250 537 332 537 c 0
 361 537 394 535 406 529 c 1
 406 456 l 1
 394 459 361 462 332 462 c 0
 252 462 211 441 134 404 c 1
 134 0 l 1
 60 0 l 1
EndSplineSet
Substitution2: "'smcp' Lowercase to Small Capitals lookup 16-1" r.smcp
AlternateSubs2: "'salt' Access All Alternates in Latin lookup 4-1" r.salt
EndChar

StartChar: m
Encoding: 109 109 16
Width: 898
VWidth: 0
Flags: HW
HStem: 0 21G<60 134 414 488 774 848> 463 74<222.499 382.263 566.626 742.395>
VStem: 60 74<0 416.931> 414 74<0 418.709> 774 74<0 431.686>
LayerCount: 2
Fore
SplineSet
60 0 m 1
 60 531 l 1
 112 531 l 1
 134 467 l 1
 195 502 244 537 323 537 c 0
 388 537 447 508 470 459 c 1
 522 502 595 537 684 537 c 0
 776 537 848 468 848 366 c 2
 848 0 l 1
 774 0 l 1
 774 366 l 2
 774 425 736 463 684 463 c 0
 605 463 554 450 488 407 c 1
 488 368 l 1
 488 0 l 1
 414 0 l 1
 414 366 l 2
 414 425 375 463 323 463 c 0
 246 463 211 444 134 407 c 1
 134 0 l 1
 60 0 l 1
EndSplineSet
Substitution2: "'smcp' Lowercase to Small Capitals lookup 16-1" m.smcp
AlternateSubs2: "'salt' Access All Alternates in Latin lookup 4-1" m.salt
EndChar

StartChar: f
Encoding: 102 102 17
Width: 400
VWidth: 0
Flags: HW
HStem: 0 21G<117 191> 457 74<191 339> 457 57<20 59.9412> 714 72<204.675 373.154>
VStem: 117 74<0 457 531 703.09>
LayerCount: 2
Fore
SplineSet
20 457 m 1
 20 514 l 1
 117 531 l 1
 117 630 l 2
 117 684 120 786 240 786 c 0
 289 786 331 777 380 762 c 1
 380 713 l 1
 379 713 257 714 257 714 c 2
 193 715 191 678 191 630 c 2
 191 531 l 1
 339 531 l 1
 339 457 l 1
 191 457 l 1
 191 0 l 1
 117 0 l 1
 117 457 l 1
 20 457 l 1
EndSplineSet
Substitution2: "'smcp' Lowercase to Small Capitals lookup 16-1" f.smcp
AlternateSubs2: "'salt' Access All Alternates in Latin lookup 4-1" f.salt
EndChar

StartChar: l
Encoding: 108 108 18
Width: 300
VWidth: 0
Flags: HW
HStem: 0 53<188.407 280> 763 20G<60 134>
VStem: 60 74<95.4826 783>
LayerCount: 2
Fore
SplineSet
60 189 m 2
 60 783 l 1
 134 783 l 1
 134 189 l 2
 134 102 157 82 191 74 c 2
 191 74 273 53 280 53 c 1
 280 0 l 1
 192 0 l 2
 115 0 60 48 60 189 c 2
EndSplineSet
Substitution2: "'smcp' Lowercase to Small Capitals lookup 16-1" l.smcp
EndChar

StartChar: j
Encoding: 106 106 19
Width: 217
VWidth: 0
Flags: HW
HStem: 511 20G<71 145> 594 102<60.1465 156.837>
VStem: 60 97<594.104 695.928> 71 74<-243.077 531> 71 48<-270 -152.094>
LayerCount: 2
Fore
SplineSet
71 -270 m 1
 71 531 l 1
 145 531 l 1
 145 -4 l 1
 146 -90 144 -190 119 -270 c 1
 71 -270 l 1
60 617 m 2
 60 671 l 2
 60 686 68 696 84 696 c 2
 134 696 l 2
 149 696 157 685 157 671 c 2
 157 617 l 2
 157 602 148 594 134 594 c 2
 84 594 l 2
 70 594 60 603 60 617 c 2
EndSplineSet
Substitution2: "'smcp' Lowercase to Small Capitals lookup 16-1" j.smcp
EndChar

StartChar: t
Encoding: 116 116 20
Width: 378
VWidth: 0
Flags: HW
HStem: 1 53<247.407 339> 458 74<193 348> 458 56<20 58.5>
VStem: 119 74<96.4826 458> 137 56<622.444 680>
LayerCount: 2
Fore
SplineSet
20 458 m 1
 20 514 l 1
 119 532 l 1
 137 680 l 1
 193 680 l 1
 193 532 l 1
 348 532 l 1
 348 458 l 1
 193 458 l 1
 193 190 l 2
 193 103 216 83 250 75 c 2
 250 75 332 54 339 54 c 1
 339 1 l 1
 251 1 l 2
 174 1 119 49 119 190 c 2
 119 458 l 1
 20 458 l 1
EndSplineSet
Substitution2: "'smcp' Lowercase to Small Capitals lookup 16-1" t.smcp
AlternateSubs2: "'salt' Access All Alternates in Latin lookup 4-1" t.salt
EndChar

StartChar: s
Encoding: 115 115 21
Width: 506
VWidth: 0
Flags: HW
HStem: -5 74<97.198 383.312> 14 55<62 282.5> 227 74<120.694 383.578> 463 73<119.823 414.988> 463 57<216.94 439>
VStem: 40 74<307.663 456.151> 392 74<78.2272 217.859>
LayerCount: 2
Fore
SplineSet
40 358 m 2
 40 404 l 2
 40 486 75 536 178 536 c 0
 230 536 387 525 439 520 c 1
 439 463 l 1
 178 463 l 2
 114 463 114 438 114 404 c 2
 114 358 l 2
 114 303 141 301 178 301 c 2
 336 301 l 2
 423 301 466 247 466 172 c 2
 466 123 l 2
 466 14 400 -5 336 -5 c 0
 287 -5 100 10 62 14 c 1
 62 69 l 1
 336 69 l 1
 336 69 392 63 392 123 c 2
 392 172 l 2
 392 207 380 227 336 227 c 2
 178 227 l 2
 84 227 40 255 40 358 c 2
EndSplineSet
Substitution2: "'smcp' Lowercase to Small Capitals lookup 16-1" s.smcp
EndChar

StartChar: k
Encoding: 107 107 22
Width: 500
VWidth: 0
Flags: HW
HStem: 0 21G<60 134 372.03 480> 268 74<134 174> 511 20G<355.519 480> 762 20G<60 134>
VStem: 60 74<0 268 342 782>
DStem2: 174 342 244 305 0.722243 0.691639<24.9663 277.335> 244 305 174 268 0.611964 -0.790886<0 329.343>
LayerCount: 2
Fore
SplineSet
60 0 m 1
 60 782 l 1
 134 782 l 1
 134 342 l 1
 174 342 l 1
 377 531 l 1
 480 531 l 1
 244 305 l 1
 480 0 l 1
 388 0 l 1
 174 268 l 1
 134 268 l 1
 134 0 l 1
 60 0 l 1
EndSplineSet
Substitution2: "'smcp' Lowercase to Small Capitals lookup 16-1" k.smcp
EndChar

StartChar: g
Encoding: 103 103 23
Width: 554
VWidth: 0
Flags: HW
HStem: -270 74<140.344 413.093> 11 74<124.085 421.768> 149 74<155.811 372.113> 459 74<157.929 380.441> 477 56<502.5 534>
VStem: 48 74<-176.54 -31 87.9633 146.13 259.919 423.39> 410 74<261.377 428.517> 431 74<-178.305 0.397507>
LayerCount: 2
Fore
SplineSet
123 344 m 0
 123 295 138 223 215 223 c 2
 313 223 l 2
 393 223 412 297 410 344 c 0
 407 414 391 459 312 459 c 2
 222 459 l 2
 140 459 123 399 123 344 c 0
119 -116 m 2
 119 -189 170 -196 205 -196 c 2
 355 -196 l 2
 414 -196 431 -163 431 -116 c 2
 431 -58 l 2
 431 -11 420.6 11 363 11 c 2
 164 11 l 2
 133 11 119 19 119 19 c 1
 119 -116 l 2
48 115 m 0
 48 148 66 190 107 198 c 1
 63 226 49 291 49 344 c 0
 49 471 115 533 222 533 c 2
 534 533 l 1
 534 477 l 1
 453 459 l 1
 464 438 484 417 484 344 c 0
 484 284 461 149 319 149 c 2
 163 149 l 2
 147 149 122 145 122 119 c 0
 122 93 140.796 85 163 85 c 2
 376 85 l 2
 458.6 85 505 30 505 -53 c 2
 505 -116 l 2
 505 -176 486 -270 355 -270 c 2
 205 -270 l 2
 111 -270 45 -220 45 -116 c 2
 45 -31 l 1
 85 34 l 1
 57 54 48 88 48 115 c 0
EndSplineSet
Substitution2: "'smcp' Lowercase to Small Capitals lookup 16-1" g.smcp
AlternateSubs2: "'salt' Access All Alternates in Latin lookup 4-1" g.salt
EndChar

StartChar: v
Encoding: 118 118 24
Width: 536
VWidth: 0
Flags: HW
HStem: 0 21G<221.128 311.023> 511 20G<20 108.867 427.038 516>
DStem2: 101 531 20 531 0.366249 -0.930517<0 453.475> 267 109 303 0 0.372295 0.928115<0 454.21>
LayerCount: 2
Fore
SplineSet
20 531 m 1
 101 531 l 1
 267 109 l 1
 435 531 l 1
 516 531 l 1
 303 0 l 1
 229 0 l 1
 20 531 l 1
EndSplineSet
Substitution2: "'smcp' Lowercase to Small Capitals lookup 16-1" v.smcp
EndChar

StartChar: w
Encoding: 119 119 25
Width: 801
VWidth: 0
Flags: HW
HStem: 0 21G<211.505 305.692 494.923 585.646> 511 20G<20 108.441 389.46 476 692.322 781>
DStem2: 101 531 20 531 0.35093 -0.936402<0 450.258> 258 109 299 0 0.316228 0.948683<0 183.728 290.93 443.984> 422 361 386 260 0.413275 -0.910606<77.0933 277.413> 538 109 578 0 0.357092 0.934069<0 452.026>
LayerCount: 2
Fore
SplineSet
20 531 m 1
 101 531 l 1
 258 109 l 1
 396 531 l 1
 476 531 l 1
 422 361 l 1
 538 109 l 1
 700 531 l 1
 781 531 l 1
 578 0 l 1
 504 0 l 1
 386 260 l 1
 299 0 l 1
 219 0 l 1
 20 531 l 1
EndSplineSet
Substitution2: "'smcp' Lowercase to Small Capitals lookup 16-1" w.smcp
EndChar

StartChar: y
Encoding: 121 121 26
Width: 554
VWidth: 0
Flags: HW
HStem: 511 20G<21 108.217 442.304 532>
DStem2: 102 531 21 531 0.295043 -0.955484<0 481.736> 177 -270 298 -168 0.321542 0.946895<94.4357 285.887 367.158 845.923>
LayerCount: 2
Fore
SplineSet
21 531 m 1
 102 531 l 1
 231 116 l 2
 249 59 297 77 297 77 c 1
 449 531 l 1
 532 531 l 1
 298 -168 l 1
 223 -270 l 1
 177 -270 l 1
 271 0 l 1
 250 0 184 2 151 110 c 2
 21 531 l 1
EndSplineSet
Substitution2: "'smcp' Lowercase to Small Capitals lookup 16-1" y.smcp
EndChar

StartChar: x
Encoding: 120 120 27
Width: 524
VWidth: 0
Flags: HW
HStem: 0 21G<24 130.455 393.545 492> 511 20G<24 130.118 393.49 500>
DStem2: 116 531 24 531 0.585992 -0.810317<0 249.688 352.149 601.388> 24 0 116 0 0.585992 0.810317<53.9113 303.15 403.268 655.299>
LayerCount: 2
Fore
SplineSet
24 0 m 1
 216 266 l 1
 24 531 l 1
 116 531 l 1
 260 327 l 1
 408 531 l 1
 500 531 l 1
 306 263 l 1
 492 0 l 1
 408 0 l 1
 262 202 l 1
 116 0 l 1
 24 0 l 1
EndSplineSet
Substitution2: "'smcp' Lowercase to Small Capitals lookup 16-1" x.smcp
AlternateSubs2: "'salt' Access All Alternates in Latin lookup 4-1" x.salt
EndChar

StartChar: V
Encoding: 86 86 28
Width: 670
VWidth: 0
Flags: HW
HStem: 0 21G<294.978 383.35> 712 20G<45 132.971 556.704 645>
DStem2: 126 732 45 732 0.331269 -0.943536<0 650.223> 340 118 376 0 0.344933 0.938627<0 653.582>
LayerCount: 2
Fore
SplineSet
45 732 m 1
 126 732 l 1
 340 118 l 1
 564 732 l 1
 645 732 l 1
 376 0 l 1
 302 0 l 1
 45 732 l 1
EndSplineSet
Substitution2: "'c2sc' Capitals to Small Capitals in Latin lookup 17 subtable" v.smcp
EndChar

StartChar: W
Encoding: 87 87 29
Width: 962
VWidth: 0
Flags: HW
HStem: 0 21G<294.978 382.471 626.674 714.257> 712 20G<45 133.065 513.997 604 849.859 937>
DStem2: 126 732 45 732 0.331269 -0.943536<0 639.513> 339 129 376 0 0.287494 0.957783<0 280.081 410.058 629.579> 536 498 497 374 0.34396 -0.938984<103.02 397.866> 669 123 708 0 0.298572 0.954387<0 637.055>
LayerCount: 2
Fore
SplineSet
45 732 m 1
 126 732 l 1
 339 129 l 1
 520 732 l 1
 604 732 l 1
 536 498 l 1
 669 123 l 1
 856 732 l 1
 937 732 l 1
 708 0 l 1
 634 0 l 1
 497 374 l 1
 376 0 l 1
 302 0 l 1
 45 732 l 1
EndSplineSet
Substitution2: "'c2sc' Capitals to Small Capitals in Latin lookup 17 subtable" w.smcp
EndChar

StartChar: C
Encoding: 67 67 30
Width: 578
VWidth: 0
Flags: HW
HStem: -6 74<220.9 539.594> 666 74<203.384 525.638>
VStem: 55 74<193.881 566.781>
LayerCount: 2
Fore
SplineSet
55 368 m 0
 55 602 100 740 299 740 c 0
 351 740 473 728 543 715 c 1
 543 656 l 1
 542 656 391 666 299 666 c 0
 174 666 129 609 129 366 c 0
 129 202 166 68 299 68 c 0
 404 68 543 75 543 75 c 1
 543 16 l 1
 473 3 351 -6 299 -6 c 0
 114 -6 55 153 55 368 c 0
EndSplineSet
Substitution2: "'c2sc' Capitals to Small Capitals in Latin lookup 17 subtable" c.smcp
EndChar

StartChar: D
Encoding: 68 68 31
Width: 657
VWidth: 0
Flags: HW
HStem: 0 77<154 432.267> 658 74<154 436.081>
VStem: 80 74<77 658> 538 74<215.053 531.866>
LayerCount: 2
Fore
SplineSet
154 77 m 1
 352 77 l 2
 484 77 538 210 538 364 c 0
 538 578 468 658 352 658 c 2
 154 658 l 1
 154 77 l 1
80 0 m 1
 80 732 l 1
 352 732 l 2
 577 732 612 513 612 363 c 0
 612 197 545 0 352 0 c 2
 80 0 l 1
EndSplineSet
Substitution2: "'c2sc' Capitals to Small Capitals in Latin lookup 17 subtable" d.smcp
EndChar

StartChar: O
Encoding: 79 79 32
Width: 676
VWidth: 0
Flags: HW
HStem: -4 74<219.697 475.299> 663 74<215.42 480.653>
VStem: 65 74<165.414 559.094> 557 74<169.3 563.994>
LayerCount: 2
Fore
SplineSet
139 361 m 0
 139 104 191 70 349 70 c 0
 505 70 557 112 557 361 c 0
 557 660 485 663 349 663 c 0
 216 663 139 660 139 361 c 0
65 361 m 0
 65 704 181 737 349 737 c 0
 522 737 631 704 631 361 c 0
 631 38 529 -4 349 -4 c 0
 169 -4 65 28 65 361 c 0
EndSplineSet
Substitution2: "'c2sc' Capitals to Small Capitals in Latin lookup 17 subtable" o.smcp
EndChar

StartChar: S
Encoding: 83 83 33
Width: 584
VWidth: 0
Flags: HW
HStem: -8 74<108.551 432.534> 322 74<162.037 442.271> 664 74<167.448 495.913>
VStem: 65 74<417.897 635.158> 465 74<97.8527 300.228>
LayerCount: 2
Fore
SplineSet
65 494 m 2
 65 560 l 2
 65 705 151 738 263 738 c 0
 316 738 475 719 513 714 c 1
 513 654 l 1
 449 658 263 664 263 664 c 2
 193 667 139 660 139 560 c 2
 139 494 l 2
 139 403 181 396 241 396 c 2
 383 396 l 2
 516 396 539 306 539 224 c 2
 539 156 l 2
 539 14 436 -8 337 -8 c 0
 288 -8 133 9 87 17 c 1
 87 77 l 1
 127 73 244 66 337 66 c 0
 378 66 465 68 465 156 c 2
 465 224 l 2
 465 281 448 322 383 322 c 2
 243 322 l 2
 83 322 65 410 65 494 c 2
EndSplineSet
Substitution2: "'c2sc' Capitals to Small Capitals in Latin lookup 17 subtable" s.smcp
EndChar

StartChar: G
Encoding: 71 71 34
Width: 614
VWidth: 0
Flags: HW
HStem: -5 73<208.306 412.528> 314 75<328.605 485> 314 50<317 425.87> 666 74<205.82 510.876>
VStem: 55 74<171.648 567.657> 485 74<105.832 314> 503 56<0 21.4375>
LayerCount: 2
Fore
SplineSet
55 370 m 0
 55 570 90 740 289 740 c 0
 341 740 473 726 543 713 c 1
 543 654 l 1
 537 654 388 666 289 666 c 0
 157 666 129 570 129 368 c 0
 129 146 170 70 293 68 c 0
 369 67 485 114 485 114 c 1
 485 314 l 1
 317 314 l 1
 317 364 l 1
 357 375 410 389 491 389 c 0
 512 389 535 388 559 386 c 1
 559 0 l 1
 503 0 l 1
 487 49 l 1
 449 28 383 -5 293 -5 c 0
 86 -7 55 158 55 370 c 0
EndSplineSet
Substitution2: "'c2sc' Capitals to Small Capitals in Latin lookup 17 subtable" g.smcp
EndChar

StartChar: Q
Encoding: 81 81 35
Width: 676
VWidth: 0
Flags: HW
HStem: -4 74<218.166 473.746> 663 74<216.209 479.207>
VStem: 65 74<165.414 563.994> 557 74<174.009 563.994>
LayerCount: 2
Fore
SplineSet
317 -33 m 1
 369 -33 l 1
 431 -77 479 -74 537 -53 c 1
 537 -133 l 1
 465 -160 333 -133 317 -33 c 1
139 361 m 0
 139 104 189 70 347 70 c 0
 503 70 557 112 557 361 c 0
 557 660 483 663 347 663 c 0
 214 663 139 660 139 361 c 0
65 361 m 0
 65 704 175 737 347 737 c 0
 520 737 631 704 631 361 c 0
 631 38 527 -4 347 -4 c 0
 167 -4 65 28 65 361 c 0
EndSplineSet
Substitution2: "'c2sc' Capitals to Small Capitals in Latin lookup 17 subtable" q.smcp
EndChar

StartChar: M
Encoding: 77 77 36
Width: 801
VWidth: 0
Flags: HW
HStem: 0 21G<55 130.338 356.512 445.288 670.495 746> 712 20G<101.689 211.404 582.793 691.53>
DStem2: 55 0 129 0 0.0654332 0.997857<4.84206 604.178> 205 732 169 598 0.304946 -0.95237<116.639 639.458> 400 123 439 0 0.296399 0.955064<0 520.938> 690 732 627 598 0.0762798 -0.997086<128.804 728.494>
LayerCount: 2
Fore
SplineSet
55 0 m 1
 103 732 l 1
 205 732 l 1
 400 123 l 1
 589 732 l 1
 690 732 l 1
 746 0 l 1
 672 0 l 1
 627 598 l 1
 439 0 l 1
 363 0 l 1
 169 598 l 1
 129 0 l 1
 55 0 l 1
EndSplineSet
AlternateSubs2: "'salt' Access All Alternates in Latin lookup 4-1" M.salt
Substitution2: "'c2sc' Capitals to Small Capitals in Latin lookup 17 subtable" m.smcp
EndChar

StartChar: I
Encoding: 73 73 37
Width: 214
VWidth: 0
Flags: HW
HStem: 0 21G<80 154> 712 20G<80 154>
VStem: 80 74<0 732>
LayerCount: 2
Fore
SplineSet
80 0 m 1
 80 732 l 1
 154 732 l 1
 154 0 l 1
 80 0 l 1
EndSplineSet
Substitution2: "'c2sc' Capitals to Small Capitals in Latin lookup 17 subtable" i.smcp
EndChar

StartChar: J
Encoding: 74 74 38
Width: 359
VWidth: 0
Flags: HW
HStem: 21 54<39 91.3353> 712 20G<225 299>
VStem: 225 74<88.3998 732>
LayerCount: 2
Fore
SplineSet
35 21 m 1
 39 75 l 1
 113 57 224 26 225 165 c 1
 225 732 l 1
 299 732 l 1
 299 165 l 2
 299 118 297 50 247 18 c 0
 194 -16 87 -13 35 21 c 1
EndSplineSet
Substitution2: "'c2sc' Capitals to Small Capitals in Latin lookup 17 subtable" j.smcp
EndChar

StartChar: H
Encoding: 72 72 39
Width: 638
VWidth: 0
Flags: HW
HStem: 0 21G<80 154 504 578> 317 74<154 504> 712 20G<80 154 504 578>
VStem: 80 74<0 317 391 732> 504 74<0 317 391 732>
LayerCount: 2
Fore
SplineSet
80 0 m 1
 80 732 l 1
 154 732 l 1
 154 391 l 1
 504 391 l 1
 504 732 l 1
 578 732 l 1
 578 0 l 1
 504 0 l 1
 504 317 l 1
 154 317 l 1
 154 0 l 1
 80 0 l 1
EndSplineSet
Substitution2: "'c2sc' Capitals to Small Capitals in Latin lookup 17 subtable" h.smcp
EndChar

StartChar: E
Encoding: 69 69 40
Width: 567
VWidth: 0
Flags: HW
HStem: 14 57<396 522> 323 79<154 383.6> 333 59<252.4 482> 658 74<160.866 344.25> 658 58<383.75 522>
VStem: 80 74<76.7764 323 402 650.645>
LayerCount: 2
Fore
SplineSet
80 123 m 2
 80 602 l 2
 80 700 139 735 206 732 c 2
 522 716 l 1
 522 658 l 1
 206 658 l 2
 154 658 154 629 154 602 c 2
 154 402 l 1
 482 392 l 1
 482 333 l 1
 154 323 l 1
 154 123 l 1
 155 70 187 71 216 71 c 2
 522 71 l 1
 522 14 l 1
 216 -3 l 2
 150 -7 80 10 80 123 c 2
EndSplineSet
Substitution2: "'c2sc' Capitals to Small Capitals in Latin lookup 17 subtable" e.smcp
EndChar

StartChar: L
Encoding: 76 76 41
Width: 557
VWidth: 0
Flags: HW
HStem: 0 74<161.01 522> 712 20G<80 154>
VStem: 80 74<80.0236 732>
LayerCount: 2
Fore
SplineSet
80 126 m 2
 80 732 l 1
 154 732 l 1
 154 126 l 2
 154 73 187 74 216 74 c 2
 522 74 l 1
 522 0 l 1
 216 0 l 2
 150 0 80 13 80 126 c 2
EndSplineSet
Substitution2: "'c2sc' Capitals to Small Capitals in Latin lookup 17 subtable" l.smcp
EndChar

StartChar: F
Encoding: 70 70 42
Width: 567
VWidth: 0
Flags: HW
HStem: 0 21G<80 154> 323 79<154 383.6> 333 59<252.4 482> 658 74<160.866 344.25> 658 58<383.75 522>
VStem: 80 74<0 323 402 650.645>
LayerCount: 2
Fore
SplineSet
80 0 m 1
 80 602 l 2
 80 700 139 735 206 732 c 2
 522 716 l 1
 522 658 l 1
 206 658 l 2
 154 658 154 629 154 602 c 2
 154 402 l 1
 482 392 l 1
 482 333 l 1
 154 323 l 1
 154 0 l 1
 80 0 l 1
EndSplineSet
Substitution2: "'c2sc' Capitals to Small Capitals in Latin lookup 17 subtable" f.smcp
EndChar

StartChar: K
Encoding: 75 75 43
Width: 591
VWidth: 0
Flags: HW
HStem: 0 21G<80 155 452.061 556> 330 74<155 236> 712 20G<80 154 451.976 556>
VStem: 80 75<0 330 404 732>
DStem2: 236 404 304 367 0.568154 0.822922<8.18638 400.594> 304 367 236 330 0.566052 -0.824369<0 394.244>
LayerCount: 2
Fore
SplineSet
80 0 m 1
 80 732 l 1
 154 732 l 1
 154 404 l 1
 236 404 l 1
 466 732 l 1
 556 732 l 1
 304 367 l 1
 556 0 l 1
 466 0 l 1
 236 330 l 1
 155 330 l 1
 155 0 l 1
 80 0 l 1
EndSplineSet
Substitution2: "'c2sc' Capitals to Small Capitals in Latin lookup 17 subtable" k.smcp
EndChar

StartChar: T
Encoding: 84 84 44
Width: 578
VWidth: 0
Flags: HW
HStem: 0 21G<259 333> 658 74<45 259 333 553>
VStem: 259 74<0 658>
LayerCount: 2
Fore
SplineSet
45 658 m 1
 45 732 l 1
 553 732 l 1
 553 658 l 1
 333 658 l 1
 333 0 l 1
 259 0 l 1
 259 658 l 1
 45 658 l 1
EndSplineSet
Substitution2: "'c2sc' Capitals to Small Capitals in Latin lookup 17 subtable" t.smcp
EndChar

StartChar: P
Encoding: 80 80 45
Width: 581
VWidth: 0
Flags: HW
HStem: 0 21G<60 134> 298 74<134.363 426.956> 318 54<134 354.472> 657 75<134 425.273>
VStem: 60 74<0 318 372 657> 461 75<409.245 618.009>
LayerCount: 2
Fore
SplineSet
134 372 m 1
 361 372 l 2
 413 372 461 387 461 520 c 1
 459 651 396 657 361 657 c 2
 134 657 l 1
 134 372 l 1
60 0 m 1
 60 732 l 1
 361 732 l 2
 440 732 536 699 536 520 c 0
 536 311 435 298 361 298 c 0
 321 298 139 315 134 318 c 1
 134 0 l 1
 60 0 l 1
EndSplineSet
Substitution2: "'c2sc' Capitals to Small Capitals in Latin lookup 17 subtable" p.smcp
EndChar

StartChar: R
Encoding: 82 82 46
Width: 593
VWidth: 0
Flags: HW
HStem: 0 21G<60 134 477.699 568> 313 66<134 234> 657 75<134 430.774>
VStem: 60 74<0 313 379 657> 466 75<404.847 621.147>
DStem2: 414 302 334 299 0.454279 -0.890859<0 302.656>
LayerCount: 2
Fore
SplineSet
134 379 m 1
 372 379 l 2
 418 379 466 379 466 512 c 0
 466 643 416 657 372 657 c 2
 134 657 l 1
 134 379 l 1
60 0 m 1
 60 732 l 1
 372 732 l 2
 467 732 541 678 541 512 c 0
 541 322 442 306 414 302 c 1
 568 0 l 1
 488 0 l 1
 334 299 l 1
 134 313 l 1
 134 0 l 1
 60 0 l 1
EndSplineSet
Substitution2: "'c2sc' Capitals to Small Capitals in Latin lookup 17 subtable" r.smcp
EndChar

StartChar: U
Encoding: 85 85 47
Width: 677
VWidth: 0
Flags: HW
HStem: -5 74<220.463 468.056> 712 20G<80 154 542 617>
VStem: 80 74<156.362 732> 542 75<163.07 732>
LayerCount: 2
Fore
SplineSet
80 320 m 2
 80 732 l 1
 154 732 l 1
 154 320 l 2
 154 63 234 69 351 69 c 0
 450 69 542 71 542 320 c 2
 542 732 l 1
 617 732 l 1
 617 320 l 2
 617 -3 472 -5 351 -5 c 0
 215 -5 80 -13 80 320 c 2
EndSplineSet
Substitution2: "'c2sc' Capitals to Small Capitals in Latin lookup 17 subtable" u.smcp
EndChar

StartChar: B
Encoding: 66 66 48
Width: 596
VWidth: 0
Flags: HW
HStem: 0 74<155 437.089> 346 74<155 431.662> 658 74<155 438.829>
VStem: 80 75<74 346 420 658> 482 74<118.643 293.498 467.176 614.376>
LayerCount: 2
Fore
SplineSet
155 420 m 1
 362 420 l 2
 437 420 478 460 478 542 c 0
 478 639 414 658 362 658 c 2
 155 658 l 1
 155 420 l 1
155 74 m 1
 362 74 l 2
 410 74 482 87 482 206 c 0
 482 280 446 346 362 346 c 2
 155 346 l 1
 155 74 l 1
80 0 m 1
 80 732 l 1
 362 732 l 2
 508 732 552 624 552 542 c 0
 552 468 531 402 460 380 c 1
 504 370 556 318 556 204 c 0
 556 102 516 0 362 0 c 2
 80 0 l 1
EndSplineSet
Substitution2: "'c2sc' Capitals to Small Capitals in Latin lookup 17 subtable" b.smcp
EndChar

StartChar: N
Encoding: 78 78 49
Width: 680
VWidth: 0
Flags: HW
HStem: 0 21G<80 155 532.835 620> 712 20G<80 169.131 546 620>
VStem: 80 75<0 594> 546 74<138 732>
DStem2: 156 732 155 594 0.549823 -0.835281<114.719 710.588>
LayerCount: 2
Fore
SplineSet
80 0 m 1
 80 732 l 1
 156 732 l 1
 546 138 l 1
 546 732 l 1
 620 732 l 1
 620 0 l 1
 546 0 l 1
 155 594 l 1
 155 0 l 1
 80 0 l 1
EndSplineSet
AlternateSubs2: "'salt' Access All Alternates in Latin lookup 4-1" N.salt
Substitution2: "'c2sc' Capitals to Small Capitals in Latin lookup 17 subtable" n.smcp
EndChar

StartChar: X
Encoding: 88 88 50
Width: 596
VWidth: 0
Flags: HW
HStem: 0 21G<48 140.493 473.377 566> 712 20G<45 137.726 478.013 571>
DStem2: 126 732 45 732 0.515184 -0.857079<0 355.857 476.187 812.333> 48 0 129 0 0.516901 0.856045<41.869 41.869 497.18 855.095>
LayerCount: 2
Fore
SplineSet
45 732 m 1
 126 732 l 1
 306 425 l 1
 490 732 l 1
 571 732 l 1
 355 371 l 1
 566 0 l 1
 485 0 l 1
 306 308 l 1
 129 0 l 1
 48 0 l 1
 257 371 l 1
 45 732 l 1
EndSplineSet
AlternateSubs2: "'salt' Access All Alternates in Latin lookup 4-1" X.salt
Substitution2: "'c2sc' Capitals to Small Capitals in Latin lookup 17 subtable" x.smcp
EndChar

StartChar: Z
Encoding: 90 90 51
Width: 563
VWidth: 0
Flags: HW
HStem: 0 74<132 528> 658 74<35 431>
DStem2: 35 74 132 74 0.561224 0.827664<54.4387 705.6>
LayerCount: 2
Fore
SplineSet
35 0 m 1
 35 74 l 1
 431 658 l 1
 35 658 l 1
 35 732 l 1
 528 732 l 1
 528 658 l 1
 132 74 l 1
 528 74 l 1
 528 0 l 1
 35 0 l 1
EndSplineSet
Substitution2: "'c2sc' Capitals to Small Capitals in Latin lookup 17 subtable" z.smcp
EndChar

StartChar: Y
Encoding: 89 89 52
Width: 630
VWidth: 0
Flags: HW
HStem: 0 21G<278 352> 712 20G<45 135.844 513.115 605>
VStem: 278 74<0 260>
DStem2: 126 732 45 732 0.442648 -0.896695<0 427.992> 315 348 352 260 0.472429 0.881369<0 437.183>
LayerCount: 2
Fore
SplineSet
45 732 m 1
 126 732 l 1
 315 348 l 1
 524 732 l 1
 605 732 l 1
 352 260 l 1
 352 0 l 1
 278 0 l 1
 278 260 l 1
 45 732 l 1
EndSplineSet
Substitution2: "'c2sc' Capitals to Small Capitals in Latin lookup 17 subtable" y.smcp
EndChar

StartChar: Agrave
Encoding: 192 192 53
Width: 670
VWidth: 0
Flags: HW
HStem: 0 21<45 142.471 550.824 645> 204 74<229 468> 712 20<306.65 395.022> 797 133
VStem: 183.5 202
DStem2: 45 0 136 0 0.344933 0.938627<31.3889 31.3889 324.406 455.52 493.375 686.215> 388 732 350 619 0.331269 -0.943536<94.0314 454.867 533.302 533.302>
LayerCount: 2
Fore
SplineSet
183.5 930 m 1
 278.5 930 l 1
 385.5 797 l 1
 316.5 797 l 1
 183.5 930 l 1
229 278 m 1
 468 278 l 1
 350 619 l 1
 229 278 l 1
45 0 m 1
 314 732 l 1
 388 732 l 1
 645 0 l 1
 557 0 l 1
 494 204 l 1
 202 204 l 1
 136 0 l 1
 45 0 l 1
EndSplineSet
Substitution2: "'c2sc' Capitals to Small Capitals in Latin lookup 17 subtable" agrave.smcp
EndChar

StartChar: Aacute
Encoding: 193 193 54
Width: 670
VWidth: 0
Flags: HW
HStem: 0 21<45 142.471 550.824 645> 204 74<229 468> 712 20<306.65 395.022> 797 133
VStem: 316.5 202
DStem2: 45 0 136 0 0.344933 0.938627<31.3889 31.3889 324.406 455.52 493.375 686.215> 388 732 350 619 0.331269 -0.943536<94.0314 454.867 533.302 533.302>
LayerCount: 2
Fore
SplineSet
316.5 797 m 1
 423.5 930 l 1
 518.5 930 l 1
 385.5 797 l 1
 316.5 797 l 1
229 278 m 1
 468 278 l 1
 350 619 l 1
 229 278 l 1
45 0 m 1
 314 732 l 1
 388 732 l 1
 645 0 l 1
 557 0 l 1
 494 204 l 1
 202 204 l 1
 136 0 l 1
 45 0 l 1
EndSplineSet
Substitution2: "'c2sc' Capitals to Small Capitals in Latin lookup 17 subtable" aacute.smcp
EndChar

StartChar: Acircumflex
Encoding: 194 194 55
Width: 670
VWidth: 0
Flags: HW
HStem: 0 21<45 142.471 550.824 645> 204 74<229 468> 712 20<306.65 395.022> 797 130
VStem: 205 292
DStem2: 45 0 136 0 0.344933 0.938627<31.3889 31.3889 324.406 455.52 493.375 686.215> 388 732 350 619 0.331269 -0.943536<94.0314 454.867 533.302 533.302>
LayerCount: 2
Fore
SplineSet
205 797 m 1
 322 927 l 1
 393 927 l 1
 497 797 l 1
 426 797 l 1
 355 868 l 1
 277 797 l 1
 205 797 l 1
229 278 m 1
 468 278 l 1
 350 619 l 1
 229 278 l 1
45 0 m 1
 314 732 l 1
 388 732 l 1
 645 0 l 1
 557 0 l 1
 494 204 l 1
 202 204 l 1
 136 0 l 1
 45 0 l 1
EndSplineSet
Substitution2: "'c2sc' Capitals to Small Capitals in Latin lookup 17 subtable" acircumflex.smcp
EndChar

StartChar: Atilde
Encoding: 195 195 56
Width: 670
VWidth: 0
Flags: HW
HStem: 0 21<45 142.471 550.824 645> 204 74<229 468> 712 20<306.65 395.022> 798 69<351.881 465.875> 832 70<237.717 355.241>
DStem2: 45 0 136 0 0.344933 0.938627<31.3889 31.3889 324.406 455.52 493.375 686.215> 388 732 350 619 0.331269 -0.943536<94.0314 454.867 533.302 533.302>
LayerCount: 2
Fore
SplineSet
182 838 m 1
 222 871 259 902 300 902 c 1
 350 899 379 868 407 867 c 0
 431 866 466 886 498 903 c 1
 520 861 l 1
 487 836 447 796 405 798 c 0
 349 801 334 833 298 832 c 0
 254 831 240 811 203 797 c 1
 182 838 l 1
229 278 m 1
 468 278 l 1
 350 619 l 1
 229 278 l 1
45 0 m 1
 314 732 l 1
 388 732 l 1
 645 0 l 1
 557 0 l 1
 494 204 l 1
 202 204 l 1
 136 0 l 1
 45 0 l 1
EndSplineSet
Substitution2: "'c2sc' Capitals to Small Capitals in Latin lookup 17 subtable" atilde.smcp
EndChar

StartChar: Adieresis
Encoding: 196 196 57
Width: 670
VWidth: 0
Flags: HW
HStem: 0 21<45 142.471 550.824 645> 204 74<229 468> 712 20<306.65 395.022> 797 101<182.456 264.883 437.456 519.883>
VStem: 173 101<806.456 888.883> 428 101<806.456 888.883>
DStem2: 45 0 136 0 0.344933 0.938627<31.3889 31.3889 324.406 455.52 493.375 686.215> 388 732 350 619 0.331269 -0.943536<94.0314 454.867 533.302 533.302>
LayerCount: 2
Fore
SplineSet
428 848 m 0
 428 876 451 898 479 898 c 0
 507 898 529 876 529 848 c 0
 529 820 507 797 479 797 c 0
 451 797 428 820 428 848 c 0
173 848 m 0
 173 876 196 898 224 898 c 0
 252 898 274 876 274 848 c 0
 274 820 252 797 224 797 c 0
 196 797 173 820 173 848 c 0
229 278 m 1
 468 278 l 1
 350 619 l 1
 229 278 l 1
45 0 m 1
 314 732 l 1
 388 732 l 1
 645 0 l 1
 557 0 l 1
 494 204 l 1
 202 204 l 1
 136 0 l 1
 45 0 l 1
EndSplineSet
Substitution2: "'c2sc' Capitals to Small Capitals in Latin lookup 17 subtable" adieresis.smcp
EndChar

StartChar: Aring
Encoding: 197 197 58
Width: 670
VWidth: 0
Flags: HW
HStem: 0 21<45 142.471 550.824 645> 204 74<229 468> 712 20<306.65 395.022> 730.167 48<307.48 393.992> 887.167 48<309.007 393.598>
VStem: 249.5 47<789.767 874.962> 405.5 47<789.373 875.367>
DStem2: 45 0 136 0 0.344933 0.938627<31.3889 31.3889 324.406 455.52 493.375 686.215> 388 732 350 619 0.331269 -0.943536<94.0314 454.867 533.302 533.302>
LayerCount: 2
Fore
SplineSet
296.5 832.167 m 0
 296.5 802.167 321.5 778.167 351.5 778.167 c 0
 381.5 778.167 405.5 802.167 405.5 832.167 c 0
 405.5 862.167 381.5 887.167 351.5 887.167 c 0
 321.5 887.167 296.5 862.167 296.5 832.167 c 0
249.5 832.167 m 0
 249.5 889.167 295.5 935.167 351.5 935.167 c 0
 407.5 935.167 452.5 889.167 452.5 832.167 c 0
 452.5 781.907 417.513 740.977 370.848 732 c 1
 388 732 l 1
 645 0 l 1
 557 0 l 1
 494 204 l 1
 202 204 l 1
 136 0 l 1
 45 0 l 1
 314 732 l 1
 332.114 732 l 1
 285.265 740.977 249.5 781.907 249.5 832.167 c 0
229 278 m 1
 468 278 l 1
 350 619 l 1
 229 278 l 1
EndSplineSet
Substitution2: "'c2sc' Capitals to Small Capitals in Latin lookup 17 subtable" aring.smcp
EndChar

StartChar: AE
Encoding: 198 198 59
Width: 921
VWidth: 0
Flags: HW
HStem: 0 21G<30 120.78> 12 61<748.588 875> 227 74<259 432> 318 79<506 737> 328 59<605 836> 657 75<514.044 696> 657 59<736 876>
VStem: 432 74<78.8149 227 301 318 397 651.965>
DStem2: 30 0 111 0 0.441701 0.897162<35.7778 288.462 371.195 760.316>
LayerCount: 2
Fore
SplineSet
259 301 m 1
 432 301 l 1
 432 652 l 1
 259 301 l 1
30 0 m 1
 328 604 l 2
 400 748 473 732 556 732 c 1
 876 716 l 1
 876 657 l 1
 556 657 l 2
 508 657 508 631 506 604 c 1
 506 397 l 1
 836 387 l 1
 836 328 l 1
 506 318 l 1
 506 121 l 2
 506 68 539 74 568 74 c 2
 875 73 l 1
 875 12 l 1
 568 -5 l 2
 502 -9 432 8 432 121 c 2
 432 227 l 1
 222 227 l 1
 111 0 l 1
 30 0 l 1
EndSplineSet
EndChar

StartChar: Ccedilla
Encoding: 199 199 60
Width: 578
VWidth: 0
Flags: HW
HStem: -172 37<218 242.733> -6 74<220.9 539.594> 666 74<203.384 525.638>
VStem: 55 74<193.881 566.781> 303 67<-112.741 -36>
LayerCount: 2
Fore
SplineSet
218 -135 m 1
 271 -120 l 1
 299 -108 303 -74 303 -36 c 1
 370 -36 l 1
 370 -138 349 -172 269 -172 c 2
 218 -172 l 1
 218 -135 l 1
55 368 m 0
 55 602 100 740 299 740 c 0
 351 740 473 728 543 715 c 1
 543 656 l 1
 542 656 391 666 299 666 c 0
 174 666 129 609 129 366 c 0
 129 202 166 68 299 68 c 0
 404 68 543 75 543 75 c 1
 543 16 l 1
 473 3 351 -6 299 -6 c 0
 114 -6 55 153 55 368 c 0
EndSplineSet
Substitution2: "'c2sc' Capitals to Small Capitals in Latin lookup 17 subtable" ccedilla.smcp
EndChar

StartChar: Eth
Encoding: 208 208 61
Width: 657
VWidth: 0
Flags: HW
HStem: 0 77<154 432.711> 346 54<15 80 154 293> 652 80<155.688 437.027>
VStem: 80 74<77 346 400 652> 535 77<212.114 523.426>
LayerCount: 2
Fore
SplineSet
154 77 m 1
 353 77 l 2
 485 77 535 210 535 364 c 0
 535 574 461 653 353 653 c 2
 154 652 l 1
 154 400 l 1
 293 400 l 1
 293 346 l 1
 154 346 l 1
 154 77 l 1
15 346 m 1
 15 400 l 1
 80 400 l 1
 80 731 l 2
 80 732 293 732 353 732 c 0
 578 732 612 513 612 363 c 0
 612 197 546 0 353 0 c 2
 80 0 l 1
 80 346 l 1
 15 346 l 1
EndSplineSet
Substitution2: "'c2sc' Capitals to Small Capitals in Latin lookup 17 subtable" eth.smcp
EndChar

StartChar: Egrave
Encoding: 200 200 62
Width: 567
VWidth: 0
Flags: HW
HStem: 14 57<396 522> 323 79<154 383.6> 333 59<252.4 482> 658 58<383.75 522> 658 74<160.866 344.25> 792 133
VStem: 80 74<76.7764 323 402 650.645> 176 202
LayerCount: 2
Fore
SplineSet
176 925 m 1
 271 925 l 1
 378 792 l 1
 309 792 l 1
 176 925 l 1
80 123 m 2
 80 602 l 2
 80 700 139 735 206 732 c 2
 522 716 l 1
 522 658 l 1
 206 658 l 2
 154 658 154 629 154 602 c 2
 154 402 l 1
 482 392 l 1
 482 333 l 1
 154 323 l 1
 154 123 l 1
 155 70 187 71 216 71 c 2
 522 71 l 1
 522 14 l 1
 216 -3 l 2
 150 -7 80 10 80 123 c 2
EndSplineSet
Substitution2: "'c2sc' Capitals to Small Capitals in Latin lookup 17 subtable" egrave.smcp
EndChar

StartChar: Eacute
Encoding: 201 201 63
Width: 567
VWidth: 0
Flags: HW
HStem: 14 57<396 522> 323 79<154 383.6> 333 59<252.4 482> 658 58<383.75 522> 658 74<160.866 344.25> 792 133
VStem: 80 74<76.7764 323 402 650.645> 287 202
LayerCount: 2
Fore
SplineSet
287 792 m 1
 394 925 l 1
 489 925 l 1
 356 792 l 1
 287 792 l 1
80 123 m 2
 80 602 l 2
 80 700 139 735 206 732 c 2
 522 716 l 1
 522 658 l 1
 206 658 l 2
 154 658 154 629 154 602 c 2
 154 402 l 1
 482 392 l 1
 482 333 l 1
 154 323 l 1
 154 123 l 1
 155 70 187 71 216 71 c 2
 522 71 l 1
 522 14 l 1
 216 -3 l 2
 150 -7 80 10 80 123 c 2
EndSplineSet
Substitution2: "'c2sc' Capitals to Small Capitals in Latin lookup 17 subtable" eacute.smcp
EndChar

StartChar: Ecircumflex
Encoding: 202 202 64
Width: 567
VWidth: 0
Flags: HW
HStem: 14 57<396 522> 323 79<154 383.6> 333 59<252.4 482> 658 58<383.75 522> 658 74<160.866 344.25> 797 130
VStem: 80 74<76.7764 323 402 650.645> 170 292
LayerCount: 2
Fore
SplineSet
170 797 m 1
 287 927 l 1
 358 927 l 1
 462 797 l 1
 391 797 l 1
 320 868 l 1
 242 797 l 1
 170 797 l 1
80 123 m 2
 80 602 l 2
 80 700 139 735 206 732 c 2
 522 716 l 1
 522 658 l 1
 206 658 l 2
 154 658 154 629 154 602 c 2
 154 402 l 1
 482 392 l 1
 482 333 l 1
 154 323 l 1
 154 123 l 1
 155 70 187 71 216 71 c 2
 522 71 l 1
 522 14 l 1
 216 -3 l 2
 150 -7 80 10 80 123 c 2
EndSplineSet
Substitution2: "'c2sc' Capitals to Small Capitals in Latin lookup 17 subtable" ecircumflex.smcp
EndChar

StartChar: Edieresis
Encoding: 203 203 65
Width: 567
VWidth: 0
Flags: HW
HStem: 14 57<396 522> 323 79<154 383.6> 333 59<252.4 482> 658 58<383.75 522> 658 74<160.866 344.25> 792 101<148.456 230.883 403.456 485.883>
VStem: 80 74<76.7764 323 402 650.645> 139 101<801.456 883.883> 394 101<801.456 883.883>
LayerCount: 2
Fore
SplineSet
394 843 m 0
 394 871 417 893 445 893 c 0
 473 893 495 871 495 843 c 0
 495 815 473 792 445 792 c 0
 417 792 394 815 394 843 c 0
139 843 m 0
 139 871 162 893 190 893 c 0
 218 893 240 871 240 843 c 0
 240 815 218 792 190 792 c 0
 162 792 139 815 139 843 c 0
80 123 m 2
 80 602 l 2
 80 700 139 735 206 732 c 2
 522 716 l 1
 522 658 l 1
 206 658 l 2
 154 658 154 629 154 602 c 2
 154 402 l 1
 482 392 l 1
 482 333 l 1
 154 323 l 1
 154 123 l 1
 155 70 187 71 216 71 c 2
 522 71 l 1
 522 14 l 1
 216 -3 l 2
 150 -7 80 10 80 123 c 2
EndSplineSet
Substitution2: "'c2sc' Capitals to Small Capitals in Latin lookup 17 subtable" edieresis.smcp
EndChar

StartChar: Igrave
Encoding: 204 204 66
Width: 214
VWidth: 0
Flags: HW
HStem: 0 21<80 154> 712 20<80 154> 797 133
VStem: -50.5 202 80 74<0 732>
LayerCount: 2
Fore
SplineSet
-50.5 930 m 1
 44.5 930 l 1
 151.5 797 l 1
 82.5 797 l 1
 -50.5 930 l 1
80 0 m 1
 80 732 l 1
 154 732 l 1
 154 0 l 1
 80 0 l 1
EndSplineSet
Substitution2: "'c2sc' Capitals to Small Capitals in Latin lookup 17 subtable" igrave.smcp
EndChar

StartChar: Iacute
Encoding: 205 205 67
Width: 214
VWidth: 0
Flags: HW
HStem: 0 21<80 154> 712 20<80 154> 797 133
VStem: 80 74<0 732> 82.5 202
LayerCount: 2
Fore
SplineSet
82.5 797 m 1
 189.5 930 l 1
 284.5 930 l 1
 151.5 797 l 1
 82.5 797 l 1
80 0 m 1
 80 732 l 1
 154 732 l 1
 154 0 l 1
 80 0 l 1
EndSplineSet
Substitution2: "'c2sc' Capitals to Small Capitals in Latin lookup 17 subtable" iacute.smcp
EndChar

StartChar: Icircumflex
Encoding: 206 206 68
Width: 214
VWidth: 0
Flags: HW
HStem: 0 21<80 154> 712 20<80 154> 797 130
VStem: -29 292 80 74<0 732>
LayerCount: 2
Fore
SplineSet
-29 797 m 1
 88 927 l 1
 159 927 l 1
 263 797 l 1
 192 797 l 1
 121 868 l 1
 43 797 l 1
 -29 797 l 1
80 0 m 1
 80 732 l 1
 154 732 l 1
 154 0 l 1
 80 0 l 1
EndSplineSet
Substitution2: "'c2sc' Capitals to Small Capitals in Latin lookup 17 subtable" icircumflex.smcp
EndChar

StartChar: Idieresis
Encoding: 207 207 69
Width: 214
VWidth: 0
Flags: HW
HStem: 0 21<80 154> 712 20<80 154> 797 101<-51.5443 30.883 203.456 285.883>
VStem: -61 101<806.456 888.883> 80 74<0 732> 194 101<806.456 888.883>
CounterMasks: 1 1c
LayerCount: 2
Fore
SplineSet
194 848 m 0
 194 876 217 898 245 898 c 0
 273 898 295 876 295 848 c 0
 295 820 273 797 245 797 c 0
 217 797 194 820 194 848 c 0
-61 848 m 0
 -61 876 -38 898 -10 898 c 0
 18 898 40 876 40 848 c 0
 40 820 18 797 -10 797 c 0
 -38 797 -61 820 -61 848 c 0
80 0 m 1
 80 732 l 1
 154 732 l 1
 154 0 l 1
 80 0 l 1
EndSplineSet
Substitution2: "'c2sc' Capitals to Small Capitals in Latin lookup 17 subtable" idieresis.smcp
EndChar

StartChar: Ntilde
Encoding: 209 209 70
Width: 680
VWidth: 0
Flags: HW
HStem: 0 21<80 155 532.835 620> 712 20<80 169.131 546 620> 798 69<350.881 464.875> 832 70<236.717 354.241>
VStem: 80 75<0 594> 546 74<138 732>
DStem2: 156 732 155 594 0.549823 -0.835281<114.719 710.588>
LayerCount: 2
Fore
SplineSet
181 838 m 1
 221 871 258 902 299 902 c 1
 349 899 378 868 406 867 c 0
 430 866 465 886 497 903 c 1
 519 861 l 1
 486 836 446 796 404 798 c 0
 348 801 333 833 297 832 c 0
 253 831 239 811 202 797 c 1
 181 838 l 1
80 0 m 1
 80 732 l 1
 156 732 l 1
 546 138 l 1
 546 732 l 1
 620 732 l 1
 620 0 l 1
 546 0 l 1
 155 594 l 1
 155 0 l 1
 80 0 l 1
EndSplineSet
AlternateSubs2: "'salt' Access All Alternates in Latin lookup 4-1" Ntilde.salt
Substitution2: "'c2sc' Capitals to Small Capitals in Latin lookup 17 subtable" ntilde.smcp
EndChar

StartChar: Ograve
Encoding: 210 210 71
Width: 676
VWidth: 0
Flags: HW
HStem: -4 74<219.697 475.299> 663 74<215.42 480.653> 797 133
VStem: 65 74<165.414 559.094> 181.5 202 557 74<169.3 563.994>
LayerCount: 2
Fore
SplineSet
181.5 930 m 1
 276.5 930 l 1
 383.5 797 l 1
 314.5 797 l 1
 181.5 930 l 1
139 361 m 0
 139 104 191 70 349 70 c 0
 505 70 557 112 557 361 c 0
 557 660 485 663 349 663 c 0
 216 663 139 660 139 361 c 0
65 361 m 0
 65 704 181 737 349 737 c 0
 522 737 631 704 631 361 c 0
 631 38 529 -4 349 -4 c 0
 169 -4 65 28 65 361 c 0
EndSplineSet
Substitution2: "'c2sc' Capitals to Small Capitals in Latin lookup 17 subtable" ograve.smcp
EndChar

StartChar: Oacute
Encoding: 211 211 72
Width: 676
VWidth: 0
Flags: HW
HStem: -4 74<219.697 475.299> 663 74<215.42 480.653> 797 133
VStem: 65 74<165.414 559.094> 314.5 202 557 74<169.3 563.994>
LayerCount: 2
Fore
SplineSet
314.5 797 m 1
 421.5 930 l 1
 516.5 930 l 1
 383.5 797 l 1
 314.5 797 l 1
139 361 m 0
 139 104 191 70 349 70 c 0
 505 70 557 112 557 361 c 0
 557 660 485 663 349 663 c 0
 216 663 139 660 139 361 c 0
65 361 m 0
 65 704 181 737 349 737 c 0
 522 737 631 704 631 361 c 0
 631 38 529 -4 349 -4 c 0
 169 -4 65 28 65 361 c 0
EndSplineSet
Substitution2: "'c2sc' Capitals to Small Capitals in Latin lookup 17 subtable" oacute.smcp
EndChar

StartChar: Ocircumflex
Encoding: 212 212 73
Width: 676
VWidth: 0
Flags: HW
HStem: -4 74<219.697 475.299> 663 74<215.42 480.653> 797 130
VStem: 65 74<165.414 559.094> 203 292 557 74<169.3 563.994>
LayerCount: 2
Fore
SplineSet
203 797 m 1
 320 927 l 1
 391 927 l 1
 495 797 l 1
 424 797 l 1
 353 868 l 1
 275 797 l 1
 203 797 l 1
139 361 m 0
 139 104 191 70 349 70 c 0
 505 70 557 112 557 361 c 0
 557 660 485 663 349 663 c 0
 216 663 139 660 139 361 c 0
65 361 m 0
 65 704 181 737 349 737 c 0
 522 737 631 704 631 361 c 0
 631 38 529 -4 349 -4 c 0
 169 -4 65 28 65 361 c 0
EndSplineSet
Substitution2: "'c2sc' Capitals to Small Capitals in Latin lookup 17 subtable" ocircumflex.smcp
EndChar

StartChar: Otilde
Encoding: 213 213 74
Width: 676
VWidth: 0
Flags: HW
HStem: -4 74<219.697 475.299> 663 74<215.42 480.653> 798 69<349.881 463.875> 832 70<235.717 353.241>
VStem: 65 74<165.414 559.094> 557 74<169.3 563.994>
LayerCount: 2
Fore
SplineSet
180 838 m 1
 220 871 257 902 298 902 c 1
 348 899 377 868 405 867 c 0
 429 866 464 886 496 903 c 1
 518 861 l 1
 485 836 445 796 403 798 c 0
 347 801 332 833 296 832 c 0
 252 831 238 811 201 797 c 1
 180 838 l 1
139 361 m 0
 139 104 191 70 349 70 c 0
 505 70 557 112 557 361 c 0
 557 660 485 663 349 663 c 0
 216 663 139 660 139 361 c 0
65 361 m 0
 65 704 181 737 349 737 c 0
 522 737 631 704 631 361 c 0
 631 38 529 -4 349 -4 c 0
 169 -4 65 28 65 361 c 0
EndSplineSet
Substitution2: "'c2sc' Capitals to Small Capitals in Latin lookup 17 subtable" otilde.smcp
EndChar

StartChar: Odieresis
Encoding: 214 214 75
Width: 676
VWidth: 0
Flags: HW
HStem: -4 74<219.697 475.299> 663 74<215.42 480.653> 797 101<180.456 262.883 435.456 517.883>
VStem: 65 74<165.414 559.094> 171 101<806.456 888.883> 426 101<806.456 888.883> 557 74<169.3 563.994>
LayerCount: 2
Fore
SplineSet
426 848 m 0
 426 876 449 898 477 898 c 0
 505 898 527 876 527 848 c 0
 527 820 505 797 477 797 c 0
 449 797 426 820 426 848 c 0
171 848 m 0
 171 876 194 898 222 898 c 0
 250 898 272 876 272 848 c 0
 272 820 250 797 222 797 c 0
 194 797 171 820 171 848 c 0
139 361 m 0
 139 104 191 70 349 70 c 0
 505 70 557 112 557 361 c 0
 557 660 485 663 349 663 c 0
 216 663 139 660 139 361 c 0
65 361 m 0
 65 704 181 737 349 737 c 0
 522 737 631 704 631 361 c 0
 631 38 529 -4 349 -4 c 0
 169 -4 65 28 65 361 c 0
EndSplineSet
Substitution2: "'c2sc' Capitals to Small Capitals in Latin lookup 17 subtable" odieresis.smcp
EndChar

StartChar: Oslash
Encoding: 216 216 76
Width: 676
VWidth: 0
Flags: HW
HStem: -4 74<217.74 474.522> 663 74<216.932 482.825>
VStem: 65 74<165.535 563.994> 557 74<169.3 565.119>
DStem2: 79 0 140 0 0.540293 0.841477<32.9579 73.4545 168.656 741.41 831.625 869.899>
LayerCount: 2
Fore
SplineSet
204 100 m 1
 237 76 283 70 348 70 c 0
 504 70 557 112 557 361 c 0
 557 480 546 552 523 596 c 1
 204 100 l 1
139 361 m 0
 139 253 148 185 170 142 c 1
 488 638 l 1
 454 663 407 663 348 663 c 0
 215 663 139 660 139 361 c 0
65 361 m 0
 65 704 176 737 348 737 c 0
 420 737 481 732 528 700 c 1
 549 732 l 1
 610 732 l 1
 566 664 l 1
 608 610 631 518 631 361 c 0
 631 38 528 -4 348 -4 c 0
 271 -4 209 2 162 34 c 1
 140 0 l 1
 79 0 l 1
 124 71 l 1
 85 124 65 212 65 361 c 0
EndSplineSet
Substitution2: "'c2sc' Capitals to Small Capitals in Latin lookup 17 subtable" oslash.smcp
EndChar

StartChar: Ugrave
Encoding: 217 217 77
Width: 677
VWidth: 0
Flags: HW
HStem: -5 74<220.463 468.056> 712 20<80 154 542 617> 797 133
VStem: 80 74<156.362 732> 181 202 542 75<163.07 732>
LayerCount: 2
Fore
SplineSet
181 930 m 1
 276 930 l 1
 383 797 l 1
 314 797 l 1
 181 930 l 1
80 320 m 2
 80 732 l 1
 154 732 l 1
 154 320 l 2
 154 63 234 69 351 69 c 0
 450 69 542 71 542 320 c 2
 542 732 l 1
 617 732 l 1
 617 320 l 2
 617 -3 472 -5 351 -5 c 0
 215 -5 80 -13 80 320 c 2
EndSplineSet
Substitution2: "'c2sc' Capitals to Small Capitals in Latin lookup 17 subtable" ugrave.smcp
EndChar

StartChar: Uacute
Encoding: 218 218 78
Width: 677
VWidth: 0
Flags: HW
HStem: -5 74<220.463 468.056> 712 20<80 154 542 617> 797 133
VStem: 80 74<156.362 732> 314 202 542 75<163.07 732>
LayerCount: 2
Fore
SplineSet
314 797 m 1
 421 930 l 1
 516 930 l 1
 383 797 l 1
 314 797 l 1
80 320 m 2
 80 732 l 1
 154 732 l 1
 154 320 l 2
 154 63 234 69 351 69 c 0
 450 69 542 71 542 320 c 2
 542 732 l 1
 617 732 l 1
 617 320 l 2
 617 -3 472 -5 351 -5 c 0
 215 -5 80 -13 80 320 c 2
EndSplineSet
Substitution2: "'c2sc' Capitals to Small Capitals in Latin lookup 17 subtable" uacute.smcp
EndChar

StartChar: Ucircumflex
Encoding: 219 219 79
Width: 677
VWidth: 0
Flags: HW
HStem: -5 74<220.463 468.056> 712 20<80 154 542 617> 797 130
VStem: 80 74<156.362 732> 202.5 292 542 75<163.07 732>
LayerCount: 2
Fore
SplineSet
202.5 797 m 1
 319.5 927 l 1
 390.5 927 l 1
 494.5 797 l 1
 423.5 797 l 1
 352.5 868 l 1
 274.5 797 l 1
 202.5 797 l 1
80 320 m 2
 80 732 l 1
 154 732 l 1
 154 320 l 2
 154 63 234 69 351 69 c 0
 450 69 542 71 542 320 c 2
 542 732 l 1
 617 732 l 1
 617 320 l 2
 617 -3 472 -5 351 -5 c 0
 215 -5 80 -13 80 320 c 2
EndSplineSet
Substitution2: "'c2sc' Capitals to Small Capitals in Latin lookup 17 subtable" ucircumflex.smcp
EndChar

StartChar: Udieresis
Encoding: 220 220 80
Width: 677
VWidth: 0
Flags: HW
HStem: -5 74<220.463 468.056> 712 20<80 154 542 617> 797 101<179.956 262.383 434.956 517.383>
VStem: 80 74<156.362 732> 170.5 101<806.456 888.883> 425.5 101<806.456 888.883> 542 75<163.07 732>
LayerCount: 2
Fore
SplineSet
425.5 848 m 0
 425.5 876 448.5 898 476.5 898 c 0
 504.5 898 526.5 876 526.5 848 c 0
 526.5 820 504.5 797 476.5 797 c 0
 448.5 797 425.5 820 425.5 848 c 0
170.5 848 m 0
 170.5 876 193.5 898 221.5 898 c 0
 249.5 898 271.5 876 271.5 848 c 0
 271.5 820 249.5 797 221.5 797 c 0
 193.5 797 170.5 820 170.5 848 c 0
80 320 m 2
 80 732 l 1
 154 732 l 1
 154 320 l 2
 154 63 234 69 351 69 c 0
 450 69 542 71 542 320 c 2
 542 732 l 1
 617 732 l 1
 617 320 l 2
 617 -3 472 -5 351 -5 c 0
 215 -5 80 -13 80 320 c 2
EndSplineSet
Substitution2: "'c2sc' Capitals to Small Capitals in Latin lookup 17 subtable" udieresis.smcp
EndChar

StartChar: Yacute
Encoding: 221 221 81
Width: 630
VWidth: 0
Flags: HW
HStem: 0 21<278 352> 712 20<45 135.844 513.115 605> 797 133
VStem: 278 74<0 260> 290.5 202
DStem2: 126 732 45 732 0.442648 -0.896695<0 427.992> 315 348 352 260 0.472429 0.881369<0 437.183>
LayerCount: 2
Fore
SplineSet
290.5 797 m 1
 397.5 930 l 1
 492.5 930 l 1
 359.5 797 l 1
 290.5 797 l 1
45 732 m 1
 126 732 l 1
 315 348 l 1
 524 732 l 1
 605 732 l 1
 352 260 l 1
 352 0 l 1
 278 0 l 1
 278 260 l 1
 45 732 l 1
EndSplineSet
Substitution2: "'c2sc' Capitals to Small Capitals in Latin lookup 17 subtable" yacute.smcp
EndChar

StartChar: agrave
Encoding: 224 224 82
Width: 519
VWidth: 0
Flags: HW
HStem: -6 74<124.061 278.286> 262 58<297.875 394.839> 469 72<92.8965 374.922> 601 133
VStem: 40 74<78.9822 232.113> 99 202 395 74<111.909 262 319.629 449.646> 414 55<0 23.5789>
LayerCount: 2
Fore
SplineSet
99 734 m 1
 194 734 l 1
 301 601 l 1
 232 601 l 1
 99 734 l 1
114 131 m 2
 114 83 139 68 173 68 c 0
 253 68 395 119 395 119 c 1
 395 262 l 1
 173 246 l 2
 130 242 114 213 114 181 c 2
 114 131 l 2
40 126 m 2
 40 187 l 2
 40 267 90 320 173 320 c 2
 173 320 395 319 395 320 c 2
 395 320 396 386 395 387 c 1
 395 448 363 469 313 469 c 0
 241 469 154 464 57 457 c 1
 57 511 l 1
 128 531 217 540 316 541 c 0
 399 542 469 497 469 387 c 2
 469 0 l 1
 414 0 l 1
 395 64 l 1
 393 64 264 -6 173 -6 c 0
 100 -6 40 41 40 126 c 2
EndSplineSet
Substitution2: "'smcp' Lowercase to Small Capitals lookup 16-1" agrave.smcp
AlternateSubs2: "'salt' Access All Alternates in Latin lookup 4-1" agrave.salt
EndChar

StartChar: aacute
Encoding: 225 225 83
Width: 519
VWidth: 0
Flags: HW
HStem: -6 74<124.061 278.286> 262 58<297.875 394.839> 469 72<92.8965 374.922> 601 133
VStem: 40 74<78.9822 232.113> 227 202 395 74<111.909 262 319.629 449.646> 414 55<0 23.5789>
LayerCount: 2
Fore
SplineSet
227 601 m 1
 334 734 l 1
 429 734 l 1
 296 601 l 1
 227 601 l 1
114 131 m 2
 114 83 139 68 173 68 c 0
 253 68 395 119 395 119 c 1
 395 262 l 1
 173 246 l 2
 130 242 114 213 114 181 c 2
 114 131 l 2
40 126 m 2
 40 187 l 2
 40 267 90 320 173 320 c 2
 173 320 395 319 395 320 c 2
 395 320 396 386 395 387 c 1
 395 448 363 469 313 469 c 0
 241 469 154 464 57 457 c 1
 57 511 l 1
 128 531 217 540 316 541 c 0
 399 542 469 497 469 387 c 2
 469 0 l 1
 414 0 l 1
 395 64 l 1
 393 64 264 -6 173 -6 c 0
 100 -6 40 41 40 126 c 2
EndSplineSet
Substitution2: "'smcp' Lowercase to Small Capitals lookup 16-1" aacute.smcp
AlternateSubs2: "'salt' Access All Alternates in Latin lookup 4-1" aacute.salt
EndChar

StartChar: acircumflex
Encoding: 226 226 84
Width: 519
VWidth: 0
Flags: HW
HStem: -6 74<124.061 278.286> 262 58<297.875 394.839> 469 72<92.8965 374.922> 601 130
VStem: 40 74<78.9822 232.113> 117 292 395 74<111.909 262 319.629 449.646> 414 55<0 23.5789>
LayerCount: 2
Fore
SplineSet
117 601 m 1
 234 731 l 1
 305 731 l 1
 409 601 l 1
 338 601 l 1
 267 672 l 1
 189 601 l 1
 117 601 l 1
114 131 m 2
 114 83 139 68 173 68 c 0
 253 68 395 119 395 119 c 1
 395 262 l 1
 173 246 l 2
 130 242 114 213 114 181 c 2
 114 131 l 2
40 126 m 2
 40 187 l 2
 40 267 90 320 173 320 c 2
 173 320 395 319 395 320 c 2
 395 320 396 386 395 387 c 1
 395 448 363 469 313 469 c 0
 241 469 154 464 57 457 c 1
 57 511 l 1
 128 531 217 540 316 541 c 0
 399 542 469 497 469 387 c 2
 469 0 l 1
 414 0 l 1
 395 64 l 1
 393 64 264 -6 173 -6 c 0
 100 -6 40 41 40 126 c 2
EndSplineSet
Substitution2: "'smcp' Lowercase to Small Capitals lookup 16-1" acircumflex.smcp
AlternateSubs2: "'salt' Access All Alternates in Latin lookup 4-1" acircumflex.salt
EndChar

StartChar: atilde
Encoding: 227 227 85
Width: 519
VWidth: 0
Flags: HW
HStem: -6 74<124.061 278.286> 262 58<297.875 394.839> 469 72<92.8965 374.922> 602 69<258.881 372.875> 636 70<144.717 262.241>
VStem: 40 74<78.9822 232.113> 395 74<111.909 262 319.629 449.646> 414 55<0 23.5789>
LayerCount: 2
Fore
SplineSet
89 642 m 1
 129 675 166 706 207 706 c 1
 257 703 286 672 314 671 c 0
 338 670 373 690 405 707 c 1
 427 665 l 1
 394 640 354 600 312 602 c 0
 256 605 241 637 205 636 c 0
 161 635 147 615 110 601 c 1
 89 642 l 1
114 131 m 2
 114 83 139 68 173 68 c 0
 253 68 395 119 395 119 c 1
 395 262 l 1
 173 246 l 2
 130 242 114 213 114 181 c 2
 114 131 l 2
40 126 m 2
 40 187 l 2
 40 267 90 320 173 320 c 2
 173 320 395 319 395 320 c 2
 395 320 396 386 395 387 c 1
 395 448 363 469 313 469 c 0
 241 469 154 464 57 457 c 1
 57 511 l 1
 128 531 217 540 316 541 c 0
 399 542 469 497 469 387 c 2
 469 0 l 1
 414 0 l 1
 395 64 l 1
 393 64 264 -6 173 -6 c 0
 100 -6 40 41 40 126 c 2
EndSplineSet
Substitution2: "'smcp' Lowercase to Small Capitals lookup 16-1" atilde.smcp
AlternateSubs2: "'salt' Access All Alternates in Latin lookup 4-1" atilde.salt
EndChar

StartChar: adieresis
Encoding: 228 228 86
Width: 519
VWidth: 0
Flags: HW
HStem: -6 74<124.061 278.286> 262 58<297.875 394.839> 469 72<92.8965 374.922> 601.016 101<92.8036 175.231 347.804 430.231>
VStem: 40 74<78.9822 232.113> 83.3479 101<610.472 692.899> 338.348 101<610.472 692.899> 395 74<111.909 262 319.629 449.646> 414 55<0 23.5789>
LayerCount: 2
Fore
SplineSet
338.348 652.017 m 0
 338.348 680.017 361.348 702.017 389.348 702.017 c 0
 417.348 702.017 439.348 680.017 439.348 652.017 c 0
 439.348 624.017 417.348 601.017 389.348 601.017 c 0
 361.348 601.017 338.348 624.017 338.348 652.017 c 0
83.3477 652.017 m 0
 83.3477 680.017 106.348 702.017 134.348 702.017 c 0
 162.348 702.017 184.348 680.017 184.348 652.017 c 0
 184.348 624.017 162.348 601.017 134.348 601.017 c 0
 106.348 601.017 83.3477 624.017 83.3477 652.017 c 0
114 131 m 2
 114 83 139 68 173 68 c 0
 253 68 395 119 395 119 c 1
 395 262 l 1
 173 246 l 2
 130 242 114 213 114 181 c 2
 114 131 l 2
40 126 m 2
 40 187 l 2
 40 267 90 320 173 320 c 2
 173 320 395 319 395 320 c 2
 395 320 396 386 395 387 c 1
 395 448 363 469 313 469 c 0
 241 469 154 464 57 457 c 1
 57 511 l 1
 128 531 217 540 316 541 c 0
 399 542 469 497 469 387 c 2
 469 0 l 1
 414 0 l 1
 395 64 l 1
 393 64 264 -6 173 -6 c 0
 100 -6 40 41 40 126 c 2
EndSplineSet
Substitution2: "'smcp' Lowercase to Small Capitals lookup 16-1" adieresis.smcp
AlternateSubs2: "'salt' Access All Alternates in Latin lookup 4-1" adieresis.salt
EndChar

StartChar: aring
Encoding: 229 229 87
Width: 519
VWidth: 0
Flags: HW
HStem: -6 74<124.061 278.286 124.061 278.286> 262 58<297.875 394.839 297.875 394.839> 469 72<92.8965 374.922 92.8965 374.922> 571 48<218.98 305.492 218.98 305.492> 728 48<220.507 305.098 220.507 305.098>
VStem: 40 74<78.9822 232.113 78.9822 232.113> 161 47<630.6 715.795 630.6 715.795> 317 47<630.206 716.2 630.206 716.2> 395 74<111.909 262 111.909 262 319.629 449.646 319.629 449.646> 414 55<0 23.5789 0 23.5789>
LayerCount: 2
Fore
SplineSet
208 673 m 0
 208 643 233 619 263 619 c 0
 293 619 317 643 317 673 c 0
 317 703 293 728 263 728 c 0
 233 728 208 703 208 673 c 0
161 673 m 0
 161 730 207 776 263 776 c 0
 319 776 364 730 364 673 c 0
 364 616 319 571 263 571 c 0
 207 571 161 616 161 673 c 0
114 131 m 2
 114 83 139 68 173 68 c 0
 253 68 395 119 395 119 c 1
 395 262 l 1
 173 246 l 2
 130 242 114 213 114 181 c 2
 114 131 l 2
40 126 m 2
 40 187 l 2
 40 267 90 320 173 320 c 2
 173 320 395 319 395 320 c 2
 395 320 396 386 395 387 c 1
 395 448 363 469 313 469 c 0
 241 469 154 464 57 457 c 1
 57 511 l 1
 128 531 217 540 316 541 c 0
 399 542 469 497 469 387 c 2
 469 0 l 1
 414 0 l 1
 395 64 l 1
 393 64 264 -6 173 -6 c 0
 100 -6 40 41 40 126 c 2
EndSplineSet
Substitution2: "'smcp' Lowercase to Small Capitals lookup 16-1" aring.smcp
AlternateSubs2: "'salt' Access All Alternates in Latin lookup 4-1" aring.salt
EndChar

StartChar: ae
Encoding: 230 230 88
Width: 871
VWidth: 0
Flags: HW
HStem: 0 74<124.061 286.088 501.158 791.452> 231 73<470 749.251> 253 52<297.875 391.147> 467 74<507.696 735.792> 475 72<89.2435 376.39>
VStem: 40 74<84.9822 223.113> 395 75<118.256 231 304.629 426.766> 757 74<312.569 447.221>
LayerCount: 2
Fore
SplineSet
470 304 m 1
 694 304 l 2
 738 304 757 320 757 353 c 0
 757 458 737 467 629 467 c 0
 516 467 470 466 470 304 c 1
114 137 m 2
 114 89 139 74 173 74 c 0
 253 74 395 125 395 125 c 1
 395 253 l 1
 173 237 l 2
 130 233 114 204 114 172 c 2
 114 137 l 2
40 132 m 2
 40 172 l 2
 40 252 90 305 173 305 c 2
 173 305 395 304 395 305 c 2
 395 305 396 392 395 393 c 1
 395 454 363 475 313 475 c 0
 241 475 157 470 57 463 c 1
 57 517 l 1
 123 539 217 546 316 547 c 0
 369 548 415 530 443 489 c 1
 480 533 541 541 628 541 c 0
 753 541 831 529 831 353 c 0
 831 276 790 231 694 231 c 2
 470 231 l 1
 470 106 493 75 571 75 c 0
 663 75 746 74 821 85 c 1
 821 29 l 1
 740 6 654 1 571 1 c 0
 484 1 453 29 417 71 c 1
 415 71 264 0 173 0 c 0
 100 0 40 47 40 132 c 2
EndSplineSet
Substitution2: "'smcp' Lowercase to Small Capitals lookup 16-1" ae.smcp
EndChar

StartChar: ccedilla
Encoding: 231 231 89
Width: 500
VWidth: 0
Flags: HW
HStem: -173 37<175 199.733> -7 74<162.645 431.709> 464 74<158.815 417.97>
VStem: 50 74<112.354 421.109> 260 67<-113.741 -37>
LayerCount: 2
Fore
SplineSet
175 -136 m 1
 228 -121 l 1
 256 -109 260 -75 260 -37 c 1
 327 -37 l 1
 327 -139 306 -173 226 -173 c 2
 175 -173 l 1
 175 -136 l 1
50 266 m 0
 50 498 123 538 225 538 c 0
 277 538 383 523 453 510 c 1
 453 456 l 1
 453 456 314 464 225 464 c 0
 165 464 124 451 124 262 c 0
 124 109 153 67 225 67 c 0
 317 67 460 78 460 78 c 1
 460 22 l 1
 379 -1 308 -6 225 -7 c 1
 126 -7 50 33 50 266 c 0
EndSplineSet
Substitution2: "'smcp' Lowercase to Small Capitals lookup 16-1" ccedilla.smcp
EndChar

StartChar: egrave
Encoding: 232 232 90
Width: 525
VWidth: 0
Flags: HW
HStem: -5 74<153.639 451.098> 225 73<124 403.251> 461 74<160.856 389.792> 596 133
VStem: 50 74<101.024 225 298 420.766> 114.5 202 411 74<306.569 441.221>
LayerCount: 2
Fore
SplineSet
114.5 729 m 1
 209.5 729 l 1
 316.5 596 l 1
 247.5 596 l 1
 114.5 729 l 1
124 298 m 1
 348 298 l 2
 392 298 411 314 411 347 c 0
 411 452 391 461 283 461 c 0
 170 461 124 460 124 298 c 1
50 268 m 0
 50 505 118 535 282 535 c 0
 407 535 485 523 485 347 c 0
 485 270 444 225 348 225 c 2
 124 225 l 1
 124 100 147 69 225 69 c 0
 317 69 400 68 475 79 c 1
 475 23 l 1
 394 0 308 -5 225 -5 c 0
 90 -5 50 60 50 268 c 0
EndSplineSet
Substitution2: "'smcp' Lowercase to Small Capitals lookup 16-1" egrave.smcp
EndChar

StartChar: eacute
Encoding: 233 233 91
Width: 525
VWidth: 0
Flags: HW
HStem: -5 74<153.639 451.098> 225 73<124 403.251> 461 74<160.856 389.792> 596 133
VStem: 50 74<101.024 225 298 420.766> 237.5 202 411 74<306.569 441.221>
LayerCount: 2
Fore
SplineSet
237.5 596 m 1
 344.5 729 l 1
 439.5 729 l 1
 306.5 596 l 1
 237.5 596 l 1
124 298 m 1
 348 298 l 2
 392 298 411 314 411 347 c 0
 411 452 391 461 283 461 c 0
 170 461 124 460 124 298 c 1
50 268 m 0
 50 505 118 535 282 535 c 0
 407 535 485 523 485 347 c 0
 485 270 444 225 348 225 c 2
 124 225 l 1
 124 100 147 69 225 69 c 0
 317 69 400 68 475 79 c 1
 475 23 l 1
 394 0 308 -5 225 -5 c 0
 90 -5 50 60 50 268 c 0
EndSplineSet
Substitution2: "'smcp' Lowercase to Small Capitals lookup 16-1" eacute.smcp
EndChar

StartChar: ecircumflex
Encoding: 234 234 92
Width: 525
VWidth: 0
Flags: HW
HStem: -5 74<153.639 451.098> 225 73<124 403.251> 461 74<160.856 389.792> 596 130
VStem: 50 74<101.024 225 298 420.766> 128 292 411 74<306.569 441.221>
LayerCount: 2
Fore
SplineSet
128 596 m 1
 245 726 l 1
 316 726 l 1
 420 596 l 1
 349 596 l 1
 278 667 l 1
 200 596 l 1
 128 596 l 1
124 298 m 1
 348 298 l 2
 392 298 411 314 411 347 c 0
 411 452 391 461 283 461 c 0
 170 461 124 460 124 298 c 1
50 268 m 0
 50 505 118 535 282 535 c 0
 407 535 485 523 485 347 c 0
 485 270 444 225 348 225 c 2
 124 225 l 1
 124 100 147 69 225 69 c 0
 317 69 400 68 475 79 c 1
 475 23 l 1
 394 0 308 -5 225 -5 c 0
 90 -5 50 60 50 268 c 0
EndSplineSet
Substitution2: "'smcp' Lowercase to Small Capitals lookup 16-1" ecircumflex.smcp
EndChar

StartChar: edieresis
Encoding: 235 235 93
Width: 525
VWidth: 0
Flags: HW
HStem: -5 74<153.639 451.098> 225 73<124 403.251> 461 74<160.856 389.792> 596 101<102.456 184.883 357.456 439.883>
VStem: 50 74<101.024 225 298 420.766> 93 101<605.456 687.883> 348 101<605.456 687.883> 411 74<306.569 441.221>
LayerCount: 2
Fore
SplineSet
348 647 m 0
 348 675 371 697 399 697 c 0
 427 697 449 675 449 647 c 0
 449 619 427 596 399 596 c 0
 371 596 348 619 348 647 c 0
93 647 m 0
 93 675 116 697 144 697 c 0
 172 697 194 675 194 647 c 0
 194 619 172 596 144 596 c 0
 116 596 93 619 93 647 c 0
124 298 m 1
 348 298 l 2
 392 298 411 314 411 347 c 0
 411 452 391 461 283 461 c 0
 170 461 124 460 124 298 c 1
50 268 m 0
 50 505 118 535 282 535 c 0
 407 535 485 523 485 347 c 0
 485 270 444 225 348 225 c 2
 124 225 l 1
 124 100 147 69 225 69 c 0
 317 69 400 68 475 79 c 1
 475 23 l 1
 394 0 308 -5 225 -5 c 0
 90 -5 50 60 50 268 c 0
EndSplineSet
Substitution2: "'smcp' Lowercase to Small Capitals lookup 16-1" edieresis.smcp
EndChar

StartChar: igrave
Encoding: 236 236 94
Width: 194
VWidth: 0
Flags: HW
HStem: 0 21<60 134> 511 20<60 134> 596 133
VStem: -70.5 202 60 74<0 531>
LayerCount: 2
Fore
SplineSet
-70.5 729 m 1
 24.5 729 l 1
 131.5 596 l 1
 62.5 596 l 1
 -70.5 729 l 1
60 0 m 1
 60 531 l 1
 134 531 l 1
 134 0 l 1
 60 0 l 1
EndSplineSet
Substitution2: "'smcp' Lowercase to Small Capitals lookup 16-1" igrave.smcp
EndChar

StartChar: iacute
Encoding: 237 237 95
Width: 194
VWidth: 0
Flags: HW
HStem: 0 21<60 134> 511 20<60 134> 596 133
VStem: 60 74<0 531> 62.5 202
LayerCount: 2
Fore
SplineSet
62.5 596 m 1
 169.5 729 l 1
 264.5 729 l 1
 131.5 596 l 1
 62.5 596 l 1
60 0 m 1
 60 531 l 1
 134 531 l 1
 134 0 l 1
 60 0 l 1
EndSplineSet
Substitution2: "'smcp' Lowercase to Small Capitals lookup 16-1" iacute.smcp
EndChar

StartChar: icircumflex
Encoding: 238 238 96
Width: 194
VWidth: 0
Flags: HW
HStem: 0 21<60 134> 511 20<60 134> 596 130
VStem: -49 292 60 74<0 531>
LayerCount: 2
Fore
SplineSet
-49 596 m 1
 68 726 l 1
 139 726 l 1
 243 596 l 1
 172 596 l 1
 101 667 l 1
 23 596 l 1
 -49 596 l 1
60 0 m 1
 60 531 l 1
 134 531 l 1
 134 0 l 1
 60 0 l 1
EndSplineSet
Substitution2: "'smcp' Lowercase to Small Capitals lookup 16-1" icircumflex.smcp
EndChar

StartChar: idieresis
Encoding: 239 239 97
Width: 194
VWidth: 0
Flags: HW
HStem: 0 21<60 134> 511 20<60 134> 596 101<-71.5443 10.883 183.456 265.883>
VStem: -81 101<605.456 687.883> 60 74<0 531> 174 101<605.456 687.883>
CounterMasks: 1 1c
LayerCount: 2
Fore
SplineSet
174 647 m 0
 174 675 197 697 225 697 c 0
 253 697 275 675 275 647 c 0
 275 619 253 596 225 596 c 0
 197 596 174 619 174 647 c 0
-81 647 m 0
 -81 675 -58 697 -30 697 c 0
 -2 697 20 675 20 647 c 0
 20 619 -2 596 -30 596 c 0
 -58 596 -81 619 -81 647 c 0
60 0 m 1
 60 531 l 1
 134 531 l 1
 134 0 l 1
 60 0 l 1
EndSplineSet
Substitution2: "'smcp' Lowercase to Small Capitals lookup 16-1" idieresis.smcp
EndChar

StartChar: eth
Encoding: 240 240 98
Width: 538
VWidth: 0
Flags: HW
HStem: 0 76<150.7 378.668> 457 74<156.295 386.397> 718 65<124 249.864>
VStem: 40 74<118.53 411.533> 424 74<126.054 417.109>
DStem2: 145 650 169 590 0.930346 0.366684<0.327288 117.542 232.45 329.055>
LayerCount: 2
Fore
SplineSet
114 264 m 0
 114 85 160 76 218 76 c 2
 318 76 l 2
 403 76 424 146 424 264 c 0
 424 414 402 457 318 457 c 2
 218 457 l 2
 152 457 114 428 114 264 c 0
40 264 m 0
 40 434 83 531 218 531 c 2
 318 531 l 2
 324 531 374 531 388 516 c 1
 374 562 351 611 314 648 c 1
 169 590 l 1
 145 650 l 1
 254 694 l 1
 211 717 161 720 124 718 c 1
 124 783 l 1
 216 783 281 764 333 724 c 1
 451 771 l 1
 476 711 l 1
 385 675 l 1
 485 552 498 360 498 264 c 0
 498 65 425 0 318 0 c 2
 218 0 l 2
 81 0 40 85 40 264 c 0
EndSplineSet
Substitution2: "'smcp' Lowercase to Small Capitals lookup 16-1" eth.smcp
EndChar

StartChar: ograve
Encoding: 242 242 99
Width: 568
VWidth: 0
Flags: HW
HStem: -5 74<175.515 395.003> 462 74<173.221 396.872> 596 133
VStem: 50 74<124.237 406.335> 126.5 202 444 74<126.206 409.804>
LayerCount: 2
Fore
SplineSet
126.5 729 m 1
 221.5 729 l 1
 328.5 596 l 1
 259.5 596 l 1
 126.5 729 l 1
124 258 m 0
 124 81 181 69 284 69 c 0
 392 69 444 83 444 258 c 0
 444 448 401 462 284 462 c 0
 172 462 124 449 124 258 c 0
50 258 m 0
 50 475 110 536 284 536 c 0
 463 536 518 469 518 258 c 0
 518 61 463 -5 284 -5 c 0
 105 -5 50 68 50 258 c 0
EndSplineSet
Substitution2: "'smcp' Lowercase to Small Capitals lookup 16-1" ograve.smcp
EndChar

StartChar: oacute
Encoding: 243 243 100
Width: 568
VWidth: 0
Flags: HW
HStem: -5 74<175.515 395.003> 462 74<173.221 396.872> 596 133
VStem: 50 74<124.237 406.335> 249.5 202 444 74<126.206 409.804>
LayerCount: 2
Fore
SplineSet
249.5 596 m 1
 356.5 729 l 1
 451.5 729 l 1
 318.5 596 l 1
 249.5 596 l 1
124 258 m 0
 124 81 181 69 284 69 c 0
 392 69 444 83 444 258 c 0
 444 448 401 462 284 462 c 0
 172 462 124 449 124 258 c 0
50 258 m 0
 50 475 110 536 284 536 c 0
 463 536 518 469 518 258 c 0
 518 61 463 -5 284 -5 c 0
 105 -5 50 68 50 258 c 0
EndSplineSet
Substitution2: "'smcp' Lowercase to Small Capitals lookup 16-1" oacute.smcp
EndChar

StartChar: ocircumflex
Encoding: 244 244 101
Width: 568
VWidth: 0
Flags: HW
HStem: -5 74<175.515 395.003> 462 74<173.221 396.872> 596 130
VStem: 50 74<124.237 406.335> 143 292 444 74<126.206 409.804>
LayerCount: 2
Fore
SplineSet
143 596 m 1
 260 726 l 1
 331 726 l 1
 435 596 l 1
 364 596 l 1
 293 667 l 1
 215 596 l 1
 143 596 l 1
124 258 m 0
 124 81 181 69 284 69 c 0
 392 69 444 83 444 258 c 0
 444 448 401 462 284 462 c 0
 172 462 124 449 124 258 c 0
50 258 m 0
 50 475 110 536 284 536 c 0
 463 536 518 469 518 258 c 0
 518 61 463 -5 284 -5 c 0
 105 -5 50 68 50 258 c 0
EndSplineSet
Substitution2: "'smcp' Lowercase to Small Capitals lookup 16-1" ocircumflex.smcp
EndChar

StartChar: otilde
Encoding: 245 245 102
Width: 568
VWidth: 0
Flags: HW
HStem: -5 74<175.515 395.003> 462 74<173.221 396.872> 597 69<293.881 407.875> 631 70<179.717 297.241>
VStem: 50 74<124.237 406.335> 444 74<126.206 409.804>
LayerCount: 2
Fore
SplineSet
124 637 m 1
 164 670 201 701 242 701 c 1
 292 698 321 667 349 666 c 0
 373 665 408 685 440 702 c 1
 462 660 l 1
 429 635 389 595 347 597 c 0
 291 600 276 632 240 631 c 0
 196 630 182 610 145 596 c 1
 124 637 l 1
124 258 m 0
 124 81 181 69 284 69 c 0
 392 69 444 83 444 258 c 0
 444 448 401 462 284 462 c 0
 172 462 124 449 124 258 c 0
50 258 m 0
 50 475 110 536 284 536 c 0
 463 536 518 469 518 258 c 0
 518 61 463 -5 284 -5 c 0
 105 -5 50 68 50 258 c 0
EndSplineSet
Substitution2: "'smcp' Lowercase to Small Capitals lookup 16-1" otilde.smcp
EndChar

StartChar: odieresis
Encoding: 246 246 103
Width: 568
VWidth: 0
Flags: HW
HStem: -5 74<175.515 395.003> 462 74<173.221 396.872> 596 101<116.456 198.883 371.456 453.883>
VStem: 50 74<124.237 406.335> 107 101<605.456 687.883> 362 101<605.456 687.883> 444 74<126.206 409.804>
LayerCount: 2
Fore
SplineSet
362 647 m 0
 362 675 385 697 413 697 c 0
 441 697 463 675 463 647 c 0
 463 619 441 596 413 596 c 0
 385 596 362 619 362 647 c 0
107 647 m 0
 107 675 130 697 158 697 c 0
 186 697 208 675 208 647 c 0
 208 619 186 596 158 596 c 0
 130 596 107 619 107 647 c 0
124 258 m 0
 124 81 181 69 284 69 c 0
 392 69 444 83 444 258 c 0
 444 448 401 462 284 462 c 0
 172 462 124 449 124 258 c 0
50 258 m 0
 50 475 110 536 284 536 c 0
 463 536 518 469 518 258 c 0
 518 61 463 -5 284 -5 c 0
 105 -5 50 68 50 258 c 0
EndSplineSet
Substitution2: "'smcp' Lowercase to Small Capitals lookup 16-1" odieresis.smcp
EndChar

StartChar: ntilde
Encoding: 241 241 104
Width: 544
VWidth: 0
Flags: HW
HStem: 0 21<60 134 420 494> 466 74<227.78 392.581> 511 20<60 119.097> 601 69<277.881 391.875> 635 70<163.717 281.241>
VStem: 60 74<0 418.956> 420 74<0 437.431>
LayerCount: 2
Fore
SplineSet
108 641 m 1
 148 674 185 705 226 705 c 1
 276 702 305 671 333 670 c 0
 357 669 392 689 424 706 c 1
 446 664 l 1
 413 639 373 599 331 601 c 0
 275 604 260 636 224 635 c 0
 180 634 166 614 129 600 c 1
 108 641 l 1
60 0 m 1
 60 531 l 1
 112 531 l 1
 134 469 l 1
 195 504 249 540 330 540 c 0
 436 540 494 458 494 370 c 2
 494 0 l 1
 420 0 l 1
 420 370 l 2
 420 436 381 466 330 466 c 0
 250 466 211 446 134 409 c 1
 134 0 l 1
 60 0 l 1
EndSplineSet
Substitution2: "'smcp' Lowercase to Small Capitals lookup 16-1" ntilde.smcp
AlternateSubs2: "'salt' Access All Alternates in Latin lookup 4-1" ntilde.salt
EndChar

StartChar: oslash
Encoding: 248 248 105
Width: 568
VWidth: 0
Flags: HW
HStem: -5 74<178.237 395.003> 462 74<173.221 380.348>
VStem: 50 74<128.75 406.335> 444 74<126.206 409.536>
DStem2: 51 0 112 0 0.595878 0.803075<36.3486 73.4478 157.407 553.155 629.766 658.229>
LayerCount: 2
Fore
SplineSet
177 88 m 1
 203 71 240 69 284 69 c 0
 392 69 444 83 444 258 c 0
 444 337 437 385 420 415 c 1
 177 88 l 1
124 258 m 0
 124 197 131 155 144 127 c 1
 381 450 l 1
 357 460 325 462 284 462 c 0
 172 462 124 449 124 258 c 0
50 258 m 0
 50 475 110 536 284 536 c 0
 344 536 390 529 425 511 c 1
 440 531 l 1
 506 531 l 1
 467 478 l 1
 504 435 518 365 518 258 c 0
 518 61 463 -5 284 -5 c 0
 217 -5 168 5 132 27 c 1
 112 0 l 1
 51 0 l 1
 95 61 l 1
 62 103 50 167 50 258 c 0
EndSplineSet
Substitution2: "'smcp' Lowercase to Small Capitals lookup 16-1" oslash.smcp
EndChar

StartChar: thorn
Encoding: 254 254 106
Width: 554
VWidth: 0
Flags: HW
HStem: -10 74<196.682 397.077> 466 74<240.11 390.34> 762 20G<70 144>
VStem: 70 74<-270 29 84.0355 423.782 471 782> 440 74<118.783 401.518>
LayerCount: 2
Fore
SplineSet
144 89 m 1
 226 66 286 67 339 64 c 1
 400 64 440 104 440 269 c 0
 440 394 401 466 339 466 c 1
 274 462 206 440 144 416 c 1
 144 89 l 1
70 -270 m 1
 70 782 l 1
 144 782 l 1
 144 471 l 1
 170 490 271 540 339 540 c 0
 475 540 514 403 514 267 c 0
 514 133 493 -10 339 -10 c 0
 294 -10 208 3 144 29 c 1
 144 -270 l 1
 70 -270 l 1
EndSplineSet
Substitution2: "'smcp' Lowercase to Small Capitals lookup 16-1" thorn.smcp
EndChar

StartChar: ugrave
Encoding: 249 249 107
Width: 544
VWidth: 0
Flags: HW
HStem: -9 74<151.419 316.22> 0 21<424.903 484> 511 20<50 124 410 484> 596 133
VStem: 50 74<93.5694 531> 109.5 202 410 74<112.044 531>
LayerCount: 2
Fore
SplineSet
109.5 729 m 1
 204.5 729 l 1
 311.5 596 l 1
 242.5 596 l 1
 109.5 729 l 1
50 161 m 2
 50 531 l 1
 124 531 l 1
 124 161 l 2
 124 95 163 65 214 65 c 0
 294 65 333 85 410 122 c 1
 410 531 l 1
 484 531 l 1
 484 0 l 1
 432 0 l 1
 410 62 l 1
 349 27 295 -9 214 -9 c 0
 108 -9 50 73 50 161 c 2
EndSplineSet
Substitution2: "'smcp' Lowercase to Small Capitals lookup 16-1" ugrave.smcp
AlternateSubs2: "'salt' Access All Alternates in Latin lookup 4-1" ugrave.salt
EndChar

StartChar: uacute
Encoding: 250 250 108
Width: 544
VWidth: 0
Flags: HW
HStem: -9 74<151.419 316.22> 0 21<424.903 484> 511 20<50 124 410 484> 596 133
VStem: 50 74<93.5694 531> 232.5 202 410 74<112.044 531>
LayerCount: 2
Fore
SplineSet
232.5 596 m 1
 339.5 729 l 1
 434.5 729 l 1
 301.5 596 l 1
 232.5 596 l 1
50 161 m 2
 50 531 l 1
 124 531 l 1
 124 161 l 2
 124 95 163 65 214 65 c 0
 294 65 333 85 410 122 c 1
 410 531 l 1
 484 531 l 1
 484 0 l 1
 432 0 l 1
 410 62 l 1
 349 27 295 -9 214 -9 c 0
 108 -9 50 73 50 161 c 2
EndSplineSet
Substitution2: "'smcp' Lowercase to Small Capitals lookup 16-1" uacute.smcp
AlternateSubs2: "'salt' Access All Alternates in Latin lookup 4-1" uacute.salt
EndChar

StartChar: ucircumflex
Encoding: 251 251 109
Width: 544
VWidth: 0
Flags: HW
HStem: -9 74<151.419 316.22> 0 21<424.903 484> 511 20<50 124 410 484> 596 130
VStem: 50 74<93.5694 531> 121 292 410 74<112.044 531>
LayerCount: 2
Fore
SplineSet
121 596 m 1
 238 726 l 1
 309 726 l 1
 413 596 l 1
 342 596 l 1
 271 667 l 1
 193 596 l 1
 121 596 l 1
50 161 m 2
 50 531 l 1
 124 531 l 1
 124 161 l 2
 124 95 163 65 214 65 c 0
 294 65 333 85 410 122 c 1
 410 531 l 1
 484 531 l 1
 484 0 l 1
 432 0 l 1
 410 62 l 1
 349 27 295 -9 214 -9 c 0
 108 -9 50 73 50 161 c 2
EndSplineSet
Substitution2: "'smcp' Lowercase to Small Capitals lookup 16-1" ucircumflex.smcp
AlternateSubs2: "'salt' Access All Alternates in Latin lookup 4-1" ucircumflex.salt
EndChar

StartChar: udieresis
Encoding: 252 252 110
Width: 544
VWidth: 0
Flags: HW
HStem: -9 74<151.419 316.22> 0 21<424.903 484> 511 20<50 124 410 484> 596 101<98.4557 180.883 353.456 435.883>
VStem: 50 74<93.5694 531> 89 101<605.456 687.883> 344 101<605.456 687.883> 410 74<112.044 531>
LayerCount: 2
Fore
SplineSet
344 647 m 0
 344 675 367 697 395 697 c 0
 423 697 445 675 445 647 c 0
 445 619 423 596 395 596 c 0
 367 596 344 619 344 647 c 0
89 647 m 0
 89 675 112 697 140 697 c 0
 168 697 190 675 190 647 c 0
 190 619 168 596 140 596 c 0
 112 596 89 619 89 647 c 0
50 161 m 2
 50 531 l 1
 124 531 l 1
 124 161 l 2
 124 95 163 65 214 65 c 0
 294 65 333 85 410 122 c 1
 410 531 l 1
 484 531 l 1
 484 0 l 1
 432 0 l 1
 410 62 l 1
 349 27 295 -9 214 -9 c 0
 108 -9 50 73 50 161 c 2
EndSplineSet
Substitution2: "'smcp' Lowercase to Small Capitals lookup 16-1" udieresis.smcp
AlternateSubs2: "'salt' Access All Alternates in Latin lookup 4-1" udieresis.salt
EndChar

StartChar: yacute
Encoding: 253 253 111
Width: 554
VWidth: 0
Flags: HW
HStem: 511 20<21 108.217 442.304 532> 596 133
VStem: 242 202
DStem2: 102 531 21 531 0.295043 -0.955484<0 481.736> 177 -270 298 -168 0.321542 0.946895<94.4357 285.887 367.158 845.923>
LayerCount: 2
Fore
SplineSet
242 596 m 1
 349 729 l 1
 444 729 l 1
 311 596 l 1
 242 596 l 1
21 531 m 1
 102 531 l 1
 231 116 l 2
 249 59 297 77 297 77 c 1
 449 531 l 1
 532 531 l 1
 298 -168 l 1
 223 -270 l 1
 177 -270 l 1
 271 0 l 1
 250 0 184 2 151 110 c 2
 21 531 l 1
EndSplineSet
Substitution2: "'smcp' Lowercase to Small Capitals lookup 16-1" yacute.smcp
EndChar

StartChar: ydieresis
Encoding: 255 255 112
Width: 554
VWidth: 0
Flags: HW
HStem: 511 20<21 108.217 442.304 532> 596 101<107.956 190.383 362.956 445.383>
VStem: 98.5 101<605.456 687.883> 353.5 101<605.456 687.883>
DStem2: 102 531 21 531 0.295043 -0.955484<0 481.736> 177 -270 298 -168 0.321542 0.946895<94.4357 285.887 367.158 845.923>
LayerCount: 2
Fore
SplineSet
353.5 647 m 0
 353.5 675 376.5 697 404.5 697 c 0
 432.5 697 454.5 675 454.5 647 c 0
 454.5 619 432.5 596 404.5 596 c 0
 376.5 596 353.5 619 353.5 647 c 0
98.5 647 m 0
 98.5 675 121.5 697 149.5 697 c 0
 177.5 697 199.5 675 199.5 647 c 0
 199.5 619 177.5 596 149.5 596 c 0
 121.5 596 98.5 619 98.5 647 c 0
21 531 m 1
 102 531 l 1
 231 116 l 2
 249 59 297 77 297 77 c 1
 449 531 l 1
 532 531 l 1
 298 -168 l 1
 223 -270 l 1
 177 -270 l 1
 271 0 l 1
 250 0 184 2 151 110 c 2
 21 531 l 1
EndSplineSet
Substitution2: "'smcp' Lowercase to Small Capitals lookup 16-1" ydieresis.smcp
EndChar

StartChar: Thorn
Encoding: 222 222 113
Width: 557
VWidth: 0
Flags: HW
HStem: 0 21G<60 134> 149 74<139.919 393.459> 168 55<134 328.542> 513 75<134 395.608>
VStem: 60 74<0 168 223 513 588 729> 432 75<264.771 473.867>
LayerCount: 2
Fore
SplineSet
134 223 m 1
 331 223 l 1
 383 222 432 244 432 377 c 1
 430 508 366 513 331 513 c 2
 134 513 l 1
 134 223 l 1
60 0 m 1
 60 243 60 486 60 729 c 1
 134 729 l 1
 134 588 l 1
 331 588 l 1
 410 587 507 554 507 375 c 0
 507 171 405 149 331 149 c 0
 278 149 262 144 134 168 c 1
 134 0 l 1
 60 0 l 1
EndSplineSet
Substitution2: "'c2sc' Capitals to Small Capitals in Latin lookup 17 subtable" thorn.smcp
EndChar

StartChar: uni00B5
Encoding: 181 181 114
Width: 594
VWidth: 0
Flags: HW
HStem: -9 74<191.802 356.22> 0 21G<464.903 524> 511 20G<90 164 450 524>
VStem: 90 74<-270 16 92.8978 531> 450 74<112.044 531>
LayerCount: 2
Fore
SplineSet
90 161 m 1
 90 531 l 1
 164 531 l 1
 164 161 l 2
 164 95 203 65 254 65 c 0
 334 65 373 85 450 122 c 1
 450 531 l 1
 524 531 l 1
 524 0 l 1
 472 0 l 1
 450 62 l 1
 389 27 335 -9 254 -9 c 0
 218 -9 188 0 164 16 c 1
 164 -270 l 1
 90 -270 l 1
 90 161 l 1
EndSplineSet
EndChar

StartChar: germandbls
Encoding: 223 223 115
Width: 570
VWidth: 0
Flags: HW
HStem: -8 74<220.849 453.851> 0 21G<60 134> 703 74<192.934 391.74>
VStem: 60 74<0 643.149> 267 74<321.468 395.401> 476 74<90.5124 210.507>
LayerCount: 2
Fore
SplineSet
60 0 m 1
 60 566 l 2
 60 682 141 777 283 777 c 0
 578 777 542 531 433 455 c 1
 376 408 341 388 341 348 c 0
 341 281 550 329 550 179 c 2
 550 132 l 1
 551 23 455 -8 392 -8 c 0
 324 -8 257 7 219 11 c 1
 219 71 l 1
 259 71 327 66 396 66 c 0
 436 66 474 92 476 132 c 1
 476 179 l 2
 476 256 267 200 267 348 c 0
 267 412 288 438 388 512 c 0
 420 536 438 568 438 612 c 0
 438 688 353 703 283 703 c 0
 204 703 134 667 134 566 c 2
 134 0 l 1
 60 0 l 1
EndSplineSet
Substitution2: "'smcp' Lowercase to Small Capitals lookup 16-1" germandbls.smcp
EndChar

StartChar: asciitilde
Encoding: 126 126 116
Width: 438
VWidth: 0
Flags: HW
HStem: 531 74<214.313 333.572> 566 74<103.477 224.334>
LayerCount: 2
Fore
SplineSet
50 572 m 1
 90 605 114 640 167 640 c 0
 211 640 233 605 273 605 c 0
 312 605 340 629 366 645 c 1
 388 603 l 1
 361 578 326 531 273 531 c 0
 228 531 203 566 164 566 c 0
 125 566 107 545 71 531 c 1
 50 572 l 1
EndSplineSet
EndChar

StartChar: asciicircum
Encoding: 94 94 117
Width: 392
VWidth: 0
Flags: HW
HStem: 531 130
VStem: 50 292
LayerCount: 2
Fore
SplineSet
50 531 m 1
 167 661 l 1
 238 661 l 1
 342 531 l 1
 271 531 l 1
 201 602 l 1
 122 531 l 1
 50 531 l 1
EndSplineSet
EndChar

StartChar: grave
Encoding: 96 96 118
Width: 242
VWidth: 0
Flags: HW
HStem: 531 133
VStem: 20 202
LayerCount: 2
Fore
SplineSet
20 664 m 1
 115 664 l 1
 222 531 l 1
 153 531 l 1
 20 664 l 1
EndSplineSet
Substitution2: "'smcp' Lowercase to Small Capitals lookup 16-1" grave.smcp
EndChar

StartChar: dieresis
Encoding: 168 168 119
Width: 456
VWidth: 0
Flags: HW
HStem: 531 101<59.4557 141.883 314.456 396.883>
VStem: 50 101<540.456 622.883> 305 101<540.456 622.883>
LayerCount: 2
Fore
SplineSet
305 582 m 0
 305 610 328 632 356 632 c 0
 384 632 406 610 406 582 c 0
 406 554 384 531 356 531 c 0
 328 531 305 554 305 582 c 0
50 582 m 0
 50 610 73 632 101 632 c 0
 129 632 151 610 151 582 c 0
 151 554 129 531 101 531 c 0
 73 531 50 554 50 582 c 0
EndSplineSet
Substitution2: "'smcp' Lowercase to Small Capitals lookup 16-1" dieresis.smcp
EndChar

StartChar: acute
Encoding: 180 180 120
Width: 242
VWidth: 0
Flags: HW
HStem: 531 133
VStem: 20 202
LayerCount: 2
Fore
SplineSet
20 531 m 1
 127 664 l 1
 222 664 l 1
 89 531 l 1
 20 531 l 1
EndSplineSet
Substitution2: "'smcp' Lowercase to Small Capitals lookup 16-1" acute.smcp
EndChar

StartChar: cedilla
Encoding: 184 184 121
Width: 252
VWidth: 0
Flags: HW
HStem: -173 37<50 74.7333>
VStem: 135 67<-113.741 -37>
LayerCount: 2
Fore
SplineSet
50 -136 m 1
 103 -121 l 1
 131 -109 135 -75 135 -37 c 1
 202 -37 l 1
 202 -139 181 -173 101 -173 c 2
 50 -173 l 1
 50 -136 l 1
EndSplineSet
EndChar

StartChar: exclam
Encoding: 33 33 122
Width: 269
VWidth: 0
Flags: HW
HStem: 0 105<82.1465 183.837> 711 20G<88 177>
VStem: 82 102<0.104492 104.928> 88 89<654.571 731> 95 75<196 731>
LayerCount: 2
Fore
SplineSet
88 731 m 1
 177 731 l 1
 170 196 l 1
 95 196 l 1
 88 731 l 1
82 23 m 2
 82 80 l 2
 82 95 90 105 106 105 c 2
 161 105 l 2
 176 105 184 94 184 80 c 2
 184 23 l 2
 184 8 175 0 161 0 c 2
 106 0 l 2
 92 0 82 9 82 23 c 2
EndSplineSet
Substitution2: "'smcp' Lowercase to Small Capitals lookup 16-1" exclam.smcp
EndChar

StartChar: degree
Encoding: 176 176 123
Width: 303
VWidth: 0
Flags: HW
HStem: 530 48<107.98 194.492> 687 48<109.507 194.098>
VStem: 50 47<589.6 674.795> 206 47<589.206 675.2>
LayerCount: 2
Fore
SplineSet
97 632 m 0
 97 602 122 578 152 578 c 0
 182 578 206 602 206 632 c 0
 206 662 182 687 152 687 c 0
 122 687 97 662 97 632 c 0
50 632 m 0
 50 689 96 735 152 735 c 0
 208 735 253 689 253 632 c 0
 253 575 208 530 152 530 c 0
 96 530 50 575 50 632 c 0
EndSplineSet
Substitution2: "'smcp' Lowercase to Small Capitals lookup 16-1" degree.smcp
EndChar

StartChar: period
Encoding: 46 46 124
Width: 272
VWidth: 0
Flags: HW
HStem: 0 105<85.1465 186.87>
VStem: 85 102<0.104492 104.884>
LayerCount: 2
Fore
SplineSet
85 23 m 2
 85 80 l 2
 85 95 93 105 109 105 c 2
 162 105 l 2
 180 105 187 96 187 80 c 2
 187 23 l 2
 187 5 176 0 162 0 c 2
 109 0 l 2
 95 0 85 9 85 23 c 2
EndSplineSet
EndChar

StartChar: periodcentered
Encoding: 183 183 125
Width: 272
VWidth: 0
Flags: HW
HStem: 331 105<85.1465 186.87>
VStem: 85 102<331.104 435.884>
LayerCount: 2
Fore
SplineSet
85 354 m 2
 85 411 l 2
 85 426 93 436 109 436 c 2
 162 436 l 2
 180 436 187 427 187 411 c 2
 187 354 l 2
 187 336 176 331 162 331 c 2
 109 331 l 2
 95 331 85 340 85 354 c 2
EndSplineSet
Substitution2: "'smcp' Lowercase to Small Capitals lookup 16-1" periodcentered.smcp
EndChar

StartChar: comma
Encoding: 44 44 126
Width: 270
VWidth: 0
Flags: HW
HStem: -88 32<90 117.989>
VStem: 85 100<0.146961 105.835> 121 64<-53.3831 0>
LayerCount: 2
Fore
SplineSet
85 25 m 2
 85 79 l 2
 85 97 94 106 110 106 c 2
 161 106 l 2
 179 106 185 94 185 79 c 2
 185 -11 l 2
 185 -106 90 -88 90 -88 c 1
 90 -56 l 1
 120 -57 121 -36 121 -25 c 2
 121 0 l 1
 110 0 l 2
 96 0 85 8 85 25 c 2
EndSplineSet
EndChar

StartChar: bullet
Encoding: 256 8226 127
Width: 312
VWidth: 0
Flags: HW
HStem: 309 147<86.8127 225.484>
VStem: 85 142<310.452 454.326>
LayerCount: 2
Fore
SplineSet
85 341 m 2
 85 421 l 2
 85 442 96 456 118 456 c 2
 192 456 l 2
 217 456 227 443 227 421 c 2
 227 341 l 2
 227 317 212 309 192 309 c 2
 118 309 l 2
 98 309 85 321 85 341 c 2
EndSplineSet
Substitution2: "'smcp' Lowercase to Small Capitals lookup 16-1" bullet.smcp
EndChar

StartChar: quoteleft
Encoding: 257 8216 128
Width: 270
VWidth: 0
Flags: HW
HStem: 705 35<153.359 184>
VStem: 80 110<527.487 642.517> 80 70<643 702.371>
LayerCount: 2
Fore
SplineSet
80 557 m 2
 80 656 l 2
 80 760 184 740 184 740 c 1
 184 705 l 1
 151 706 150 683 150 671 c 2
 150 643 l 1
 162 643 l 2
 177 643 190 635 190 616 c 2
 190 557 l 2
 190 537 180 527 162 527 c 2
 106 527 l 2
 86 527 80 541 80 557 c 2
EndSplineSet
Substitution2: "'smcp' Lowercase to Small Capitals lookup 16-1" quoteleft.smcp
EndChar

StartChar: quoteright
Encoding: 258 8217 129
Width: 270
VWidth: 0
Flags: HW
HStem: 528 35<86 116.641>
VStem: 80 110<625.537 741.513> 120 70<566.537 625>
LayerCount: 2
Fore
SplineSet
80 653 m 2
 80 712 l 2
 80 732 90 742 108 742 c 2
 164 742 l 2
 184 742 190 728 190 712 c 2
 190 613 l 2
 190 509 86 528 86 528 c 1
 86 563 l 1
 119 562 120 586 120 598 c 2
 120 625 l 1
 108 625 l 2
 93 625 80 634 80 653 c 2
EndSplineSet
Substitution2: "'smcp' Lowercase to Small Capitals lookup 16-1" quoteright.smcp
EndChar

StartChar: quotesinglbase
Encoding: 259 8218 130
Width: 270
VWidth: 0
Flags: HW
HStem: -98 35<86 116.641>
VStem: 80 110<-0.463284 115.513> 120 70<-59.8347 -1>
LayerCount: 2
Fore
SplineSet
80 27 m 2
 80 86 l 2
 80 106 90 116 108 116 c 2
 164 116 l 2
 184 116 190 102 190 86 c 2
 190 -13 l 2
 190 -118 86 -98 86 -98 c 1
 86 -63 l 1
 119 -64 120 -40 120 -28 c 2
 120 -1 l 1
 108 -1 l 2
 93 -1 80 8 80 27 c 2
EndSplineSet
Substitution2: "'smcp' Lowercase to Small Capitals lookup 16-1" quotesinglbase.smcp
EndChar

StartChar: quotedblleft
Encoding: 260 8220 131
Width: 418
VWidth: 0
Flags: HW
HStem: 527 117<143 182.259 305 344.313> 705 35<146.359 177 309.064 340>
VStem: 73 110<527.487 643.463> 73 70<644 702.371> 235 110<527.359 643.576> 235 70<644 702.371>
LayerCount: 2
Fore
SplineSet
73 557 m 2
 73 656 l 2
 73 760 177 740 177 740 c 1
 177 705 l 1
 144 706 143 683 143 671 c 2
 143 644 l 1
 155 644 l 2
 170 644 183 635 183 616 c 2
 183 557 l 2
 183 537 173 527 155 527 c 2
 99 527 l 2
 79 527 73 541 73 557 c 2
235 557 m 2
 235 656 l 2
 235 760 340 740 340 740 c 1
 340 705 l 1
 307 706 305 683 305 671 c 2
 305 644 l 1
 318 644 l 2
 333 644 345 635 345 616 c 2
 345 557 l 2
 345 537 336 527 318 527 c 2
 262 527 l 2
 242 527 235 541 235 557 c 2
EndSplineSet
Substitution2: "'smcp' Lowercase to Small Capitals lookup 16-1" quotedblleft.smcp
EndChar

StartChar: quotedblright
Encoding: 261 8221 132
Width: 418
VWidth: 0
Flags: HW
HStem: 528 35<78 108.936 241 271.641> 625 117<73.6869 112 235.741 275>
VStem: 73 110<625.424 741.641> 112 71<566.537 625> 235 110<625.537 741.513> 275 70<566.537 625>
LayerCount: 2
Fore
SplineSet
235 653 m 2
 235 712 l 2
 235 732 245 742 263 742 c 2
 319 742 l 2
 339 742 345 728 345 712 c 2
 345 613 l 2
 345 509 241 528 241 528 c 1
 241 563 l 1
 274 562 275 586 275 598 c 2
 275 625 l 1
 263 625 l 2
 248 625 235 634 235 653 c 2
73 653 m 2
 73 712 l 2
 73 732 82 742 100 742 c 2
 156 742 l 2
 176 742 183 728 183 712 c 2
 183 613 l 2
 183 509 78 528 78 528 c 1
 78 563 l 1
 111 562 112 586 112 598 c 2
 112 625 l 1
 100 625 l 2
 85 625 73 634 73 653 c 2
EndSplineSet
Substitution2: "'smcp' Lowercase to Small Capitals lookup 16-1" quotedblright.smcp
EndChar

StartChar: quotedblbase
Encoding: 262 8222 133
Width: 418
VWidth: 0
Flags: HW
HStem: -98 35<78 108.936 241 271.641> -1 117<73.6869 112 235.741 275>
VStem: 73 110<-0.576172 115.641> 112 71<-59.8347 -1> 235 110<-0.463284 115.513> 275 70<-59.8347 -1>
LayerCount: 2
Fore
SplineSet
235 27 m 2
 235 86 l 2
 235 106 245 116 263 116 c 2
 319 116 l 2
 339 116 345 102 345 86 c 2
 345 -13 l 2
 345 -118 241 -98 241 -98 c 1
 241 -63 l 1
 274 -64 275 -40 275 -28 c 2
 275 -1 l 1
 263 -1 l 2
 248 -1 235 8 235 27 c 2
73 27 m 2
 73 86 l 2
 73 106 82 116 100 116 c 2
 156 116 l 2
 176 116 183 102 183 86 c 2
 183 -13 l 2
 183 -118 78 -98 78 -98 c 1
 78 -63 l 1
 111 -64 112 -40 112 -28 c 2
 112 -1 l 1
 100 -1 l 2
 85 -1 73 8 73 27 c 2
EndSplineSet
Substitution2: "'smcp' Lowercase to Small Capitals lookup 16-1" quotedblbase.smcp
EndChar

StartChar: colon
Encoding: 58 58 134
Width: 272
VWidth: 0
Flags: HW
HStem: 0 105<85.1465 186.87> 427 105<85.1465 186.87>
VStem: 85 102<0.104492 104.884 427.104 531.884>
LayerCount: 2
Fore
SplineSet
85 450 m 2
 85 507 l 2
 85 522 93 532 109 532 c 2
 162 532 l 2
 180 532 187 523 187 507 c 2
 187 450 l 2
 187 432 176 427 162 427 c 2
 109 427 l 2
 95 427 85 436 85 450 c 2
85 23 m 2
 85 80 l 2
 85 95 93 105 109 105 c 2
 162 105 l 2
 180 105 187 96 187 80 c 2
 187 23 l 2
 187 5 176 0 162 0 c 2
 109 0 l 2
 95 0 85 9 85 23 c 2
EndSplineSet
EndChar

StartChar: semicolon
Encoding: 59 59 135
Width: 274
VWidth: 0
Flags: HW
HStem: -88 32<90 117.989> 428 105<87.1465 188.87>
VStem: 87 102<0.0376587 105.155 428.104 532.884> 121 64<-53.3831 0>
LayerCount: 2
Fore
SplineSet
87 451 m 2
 87 508 l 2
 87 523 95 533 111 533 c 2
 164 533 l 2
 182 533 189 524 189 508 c 2
 189 451 l 2
 189 433 178 428 164 428 c 2
 111 428 l 2
 97 428 87 437 87 451 c 2
85 25 m 2
 85 79 l 2
 85 93 95 106 110 106 c 2
 161 106 l 2
 176 106 185 94 185 79 c 2
 185 -11 l 2
 185 -106 90 -88 90 -88 c 1
 90 -56 l 1
 120 -57 121 -36 121 -25 c 2
 121 0 l 1
 110 0 l 2
 96 0 85 13 85 25 c 2
EndSplineSet
EndChar

StartChar: quotedbl
Encoding: 34 34 136
Width: 380
VWidth: 0
Flags: HW
HStem: 531 201<96 150 231 285>
VStem: 85 75<579.727 732> 220 75<579.727 732>
LayerCount: 2
Fore
SplineSet
220 665 m 1
 220 732 l 1
 295 732 l 1
 295 665 l 1
 285 531 l 1
 231 531 l 1
 220 665 l 1
85 665 m 1
 85 732 l 1
 160 732 l 1
 160 665 l 1
 150 531 l 1
 96 531 l 1
 85 665 l 1
EndSplineSet
Substitution2: "'smcp' Lowercase to Small Capitals lookup 16-1" quotedbl.smcp
EndChar

StartChar: exclamdown.alt
Encoding: 263 -1 137
Width: 269
VWidth: 0
Flags: HW
HStem: 0 21G<89 178> 626 105<82.1629 183.854>
VStem: 82 102<626.072 730.896> 89 89<0 76.4286> 96 75<0 535>
LayerCount: 2
Fore
SplineSet
89 0 m 1
 96 535 l 1
 171 535 l 1
 178 0 l 1
 89 0 l 1
82 651 m 2
 82 708 l 2
 82 723 91 731 105 731 c 2
 160 731 l 2
 174 731 184 722 184 708 c 2
 184 651 l 2
 184 636 176 626 160 626 c 2
 105 626 l 2
 90 626 82 637 82 651 c 2
EndSplineSet
EndChar

StartChar: zero
Encoding: 48 48 138
Width: 643
VWidth: 0
Flags: HW
HStem: 0 74<172.932 473.547> 658 74<171.412 474.558>
VStem: 70 74<102.489 629.128> 499 74<99.1994 631.594>
LayerCount: 2
Fore
SplineSet
144 162 m 2
 144 95 194 74 242 74 c 2
 406 74 l 2
 470 74 499 108 499 162 c 2
 499 570 l 2
 499 616 480 658 406 658 c 2
 242 658 l 2
 172 658 144 618 144 570 c 2
 144 162 l 2
70 162 m 2
 70 570 l 2
 70 678 147 732 242 732 c 2
 406 732 l 2
 528 732 573 656 573 570 c 2
 573 162 l 2
 573 43 505 0 406 0 c 2
 242 0 l 2
 151 0 70 42 70 162 c 2
EndSplineSet
Substitution2: "'smcp' Lowercase to Small Capitals lookup 16-1" zero.smcp
Substitution2: "'sinf' Scientific Inferiors lookup 3-1" zeroinferior
Substitution2: "'zero' Slashed Zero lookup 20-1" uni0338
Substitution2: "'frac' Diagonal Fractions lookup 13-1" zero.numerator
Substitution2: "'dnom' Denominators lookup 0 subtable" zero.denominator
Substitution2: "'numr' Numerators lookup 9 subtable" zero.numerator
Substitution2: "'tnum' Tabular Numbers in Latin lookup 7-1" zero.tnum
Substitution2: "'onum' Oldstyle Figures in Latin lookup 5-1" zero.oldstyle
Substitution2: "'sups' Superscript lookup 2 subtable" zerosuperior
EndChar

StartChar: one
Encoding: 49 49 139
Width: 362
VWidth: 0
Flags: HW
HStem: 0 21G<208 282> 712 20G<168.471 282>
VStem: 208 74<0 648>
LayerCount: 2
Fore
SplineSet
40 594 m 1
 40 647 l 1
 208 732 l 1
 282 732 l 1
 282 0 l 1
 208 0 l 1
 208 648 l 1
 40 594 l 1
EndSplineSet
Substitution2: "'smcp' Lowercase to Small Capitals lookup 16-1" one.smcp
Substitution2: "'sinf' Scientific Inferiors lookup 3-1" oneinferior
Substitution2: "'frac' Diagonal Fractions lookup 13-1" one.numerator
Substitution2: "'dnom' Denominators lookup 0 subtable" one.denominator
Substitution2: "'numr' Numerators lookup 9 subtable" one.numerator
Substitution2: "'tnum' Tabular Numbers in Latin lookup 7-1" one.tnum
Substitution2: "'onum' Oldstyle Figures in Latin lookup 5-1" one.oldstyle
Substitution2: "'sups' Superscript lookup 2 subtable" onesuperior
EndChar

StartChar: two
Encoding: 50 50 140
Width: 597
VWidth: 0
Flags: HW
HStem: 0 74<190 547> 667 75<105.683 421.713> 667 55<40 259.199>
VStem: 472 75<455.329 616.435>
LayerCount: 2
Fore
SplineSet
40 667 m 1
 40 722 l 1
 142 735 233 742 344 742 c 0
 489 742 547 634 547 532 c 0
 547 336 262 123 190 74 c 1
 547 74 l 1
 547 0 l 1
 47 0 l 1
 47 68 l 1
 156 142 472 368 472 534 c 0
 472 607 435 667 343 667 c 2
 40 667 l 1
EndSplineSet
Substitution2: "'smcp' Lowercase to Small Capitals lookup 16-1" two.smcp
Substitution2: "'sinf' Scientific Inferiors lookup 3-1" twoinferior
Substitution2: "'frac' Diagonal Fractions lookup 13-1" two.numerator
Substitution2: "'dnom' Denominators lookup 0 subtable" two.denominator
Substitution2: "'numr' Numerators lookup 9 subtable" two.numerator
Substitution2: "'tnum' Tabular Numbers in Latin lookup 7-1" two.tnum
Substitution2: "'onum' Oldstyle Figures in Latin lookup 5-1" two.oldstyle
Substitution2: "'sups' Superscript lookup 2 subtable" twosuperior
EndChar

StartChar: three
Encoding: 51 51 141
Width: 594
VWidth: 0
Flags: HW
HStem: -7 75<100.295 416.034> 21 47<37 136.501> 326 75<170.9 408.193> 333 58<98 268.1> 660 74<109.715 412.5> 660 46<30 128.759>
VStem: 445 74<96.7407 289.271 434.139 625.858>
LayerCount: 2
Fore
SplineSet
30 660 m 1
 30 706 l 1
 118 737 231 736 348 734 c 0
 458 732 519 661 519 569 c 2
 519 500 l 2
 519 427 493 380 453 364 c 1
 494 338 519 296 519 220 c 2
 519 161 l 2
 519 52 463 -7 341 -7 c 0
 227 -7 124 -10 36 21 c 1
 37 68 l 1
 335 68 l 2
 388 68 443 77 443 161 c 2
 443 220 l 2
 443 298 395 324 341 326 c 2
 98 333 l 1
 98 391 l 1
 341 401 l 2
 410 404 445 439 445 500 c 2
 445 569 l 2
 445 634 393 660 341 660 c 2
 30 660 l 1
EndSplineSet
Substitution2: "'smcp' Lowercase to Small Capitals lookup 16-1" three.smcp
Substitution2: "'sinf' Scientific Inferiors lookup 3-1" threeinferior
Substitution2: "'frac' Diagonal Fractions lookup 13-1" three.numerator
Substitution2: "'dnom' Denominators lookup 0 subtable" three.denominator
Substitution2: "'numr' Numerators lookup 9 subtable" three.numerator
Substitution2: "'tnum' Tabular Numbers in Latin lookup 7-1" three.tnum
Substitution2: "'onum' Oldstyle Figures in Latin lookup 5-1" three.oldstyle
Substitution2: "'sups' Superscript lookup 2 subtable" threesuperior
EndChar

StartChar: four
Encoding: 52 52 142
Width: 603
VWidth: 0
Flags: HW
HStem: 2 21G<419 493> 187 78<135 419> 206 59<549.842 583> 712 20G<328.362 429>
VStem: 419 74<2 187 265 472>
DStem2: 20 224 135 265 0.534181 0.84537<96.091 600.92>
LayerCount: 2
Fore
SplineSet
20 224 m 1
 341 732 l 1
 429 732 l 1
 135 265 l 1
 419 265 l 1
 419 472 l 1
 456 547 l 1
 493 547 l 1
 493 265 l 1
 583 265 l 1
 583 206 l 1
 493 187 l 1
 493 2 l 1
 419 2 l 1
 419 187 l 1
 54 187 l 1
 20 224 l 1
EndSplineSet
Substitution2: "'smcp' Lowercase to Small Capitals lookup 16-1" four.smcp
Substitution2: "'sinf' Scientific Inferiors lookup 3-1" fourinferior
Substitution2: "'frac' Diagonal Fractions lookup 13-1" four.numerator
Substitution2: "'dnom' Denominators lookup 0 subtable" four.denominator
Substitution2: "'numr' Numerators lookup 9 subtable" four.numerator
Substitution2: "'tnum' Tabular Numbers in Latin lookup 7-1" four.tnum
Substitution2: "'onum' Oldstyle Figures in Latin lookup 5-1" four.oldstyle
Substitution2: "'sups' Superscript lookup 2 subtable" foursuperior
EndChar

StartChar: five
Encoding: 53 53 143
Width: 603
VWidth: 0
Flags: HW
HStem: -4 79<138.138 442.079> 20 55<76 252.245> 372 74<166.114 447.374> 658 74<168 522>
VStem: 78 66<297 349.931> 100 68<593.591 658> 470 74<104.216 346.859>
LayerCount: 2
Fore
SplineSet
76 20 m 1
 76 75 l 1
 380 75 l 2
 449 75 470 124 470 168 c 2
 470 278 l 2
 470 311 469 372 380 372 c 2
 226 372 l 2
 187 372 144 351 144 297 c 1
 78 297 l 1
 100 732 l 1
 522 732 l 1
 522 658 l 1
 168 658 l 1
 156 416 l 1
 170 433 198 442 230 446 c 0
 284 453 349 446 380 446 c 0
 498 446 544 377 544 280 c 2
 544 166 l 2
 544 29 442 -4 380 -4 c 0
 256 -4 210 -3 76 20 c 1
EndSplineSet
Substitution2: "'smcp' Lowercase to Small Capitals lookup 16-1" five.smcp
Substitution2: "'sinf' Scientific Inferiors lookup 3-1" fiveinferior
Substitution2: "'frac' Diagonal Fractions lookup 13-1" five.numerator
Substitution2: "'dnom' Denominators lookup 0 subtable" five.denominator
Substitution2: "'numr' Numerators lookup 9 subtable" five.numerator
Substitution2: "'tnum' Tabular Numbers in Latin lookup 7-1" five.tnum
Substitution2: "'onum' Oldstyle Figures in Latin lookup 5-1" five.oldstyle
Substitution2: "'sups' Superscript lookup 2 subtable" fivesuperior
EndChar

StartChar: six
Encoding: 54 54 144
Width: 623
VWidth: 0
Flags: HW
HStem: -1 74<199.704 470.441> 354 74<163.367 471.753> 354 53<139 357.534> 664 74<203.105 475.245> 664 55<318.243 539>
VStem: 65 74<163.839 354 407 559.548> 490 73<92.6597 334.838>
LayerCount: 2
Fore
SplineSet
139 354 m 1
 139 260 143 73 253 73 c 2
 402 73 l 2
 453 73 490 83 490 154 c 2
 490 279 l 2
 490 340 448 354 402 354 c 2
 139 354 l 1
65 384 m 0
 65 649 154 738 237 738 c 0
 338 738 444 732 539 719 c 1
 539 664 l 1
 250 664 l 2
 159 664 141 491 139 407 c 1
 224 417 328 428 402 428 c 0
 538 428 563 357 563 279 c 2
 563 148 l 2
 563 36 496 -1 402 -1 c 2
 253 -1 l 1
 144 0 65 69 65 384 c 0
EndSplineSet
Substitution2: "'smcp' Lowercase to Small Capitals lookup 16-1" six.smcp
Substitution2: "'sinf' Scientific Inferiors lookup 3-1" sixinferior
Substitution2: "'frac' Diagonal Fractions lookup 13-1" six.numerator
Substitution2: "'dnom' Denominators lookup 0 subtable" six.denominator
Substitution2: "'numr' Numerators lookup 9 subtable" six.numerator
Substitution2: "'tnum' Tabular Numbers in Latin lookup 7-1" six.tnum
Substitution2: "'onum' Oldstyle Figures in Latin lookup 5-1" six.oldstyle
Substitution2: "'sups' Superscript lookup 2 subtable" sixsuperior
EndChar

StartChar: seven
Encoding: 55 55 145
Width: 546
VWidth: 0
Flags: HW
HStem: 0 21G<163 258.749> 658 74<30 421>
DStem2: 163 0 251 0 0.361262 0.932464<31.791 706.767>
LayerCount: 2
Fore
SplineSet
30 658 m 1
 30 732 l 1
 489 732 l 1
 516 684 l 1
 251 0 l 1
 163 0 l 1
 421 658 l 1
 30 658 l 1
EndSplineSet
Substitution2: "'smcp' Lowercase to Small Capitals lookup 16-1" seven.smcp
Substitution2: "'sinf' Scientific Inferiors lookup 3-1" seveninferior
Substitution2: "'frac' Diagonal Fractions lookup 13-1" seven.numerator
Substitution2: "'dnom' Denominators lookup 0 subtable" seven.denominator
Substitution2: "'numr' Numerators lookup 9 subtable" seven.numerator
Substitution2: "'tnum' Tabular Numbers in Latin lookup 7-1" seven.tnum
Substitution2: "'onum' Oldstyle Figures in Latin lookup 5-1" seven.oldstyle
Substitution2: "'sups' Superscript lookup 2 subtable" sevensuperior
EndChar

StartChar: percent
Encoding: 37 37 146
Width: 955
VWidth: 0
Flags: HW
HStem: 2 65<628.174 840.273> 320 65<628.727 840.826> 349 65<114.174 326.273> 667 65<114.727 326.826>
VStem: 42 65<421.586 659.414> 334 65<421.586 659.414> 556 65<74.5858 312.414> 848 65<74.5858 312.414>
DStem2: 227 0 298 0 0.513461 0.858113<36.4557 853.035>
LayerCount: 2
Fore
SplineSet
621 127 m 2
 621 78 636 67 683 67 c 2
 784 67 l 2
 842 67 848 82 848 127 c 2
 848 260 l 2
 848 309 833 320 786 320 c 2
 685 320 l 2
 627 320 621 305 621 260 c 2
 621 127 l 2
556 127 m 2
 556 260 l 2
 556 345 584 385 685 385 c 2
 786 385 l 2
 884 385 913 345 913 260 c 2
 913 127 l 2
 913 42 885 2 784 2 c 2
 683 2 l 2
 585 2 556 42 556 127 c 2
227 0 m 1
 665 732 l 1
 736 732 l 1
 298 0 l 1
 227 0 l 1
107 474 m 2
 107 425 122 414 169 414 c 2
 270 414 l 2
 328 414 334 429 334 474 c 2
 334 607 l 2
 334 656 319 667 272 667 c 2
 171 667 l 2
 113 667 107 652 107 607 c 2
 107 474 l 2
42 474 m 2
 42 607 l 2
 42 692 70 732 171 732 c 2
 272 732 l 2
 370 732 399 692 399 607 c 2
 399 474 l 2
 399 389 371 349 270 349 c 2
 169 349 l 2
 71 349 42 389 42 474 c 2
EndSplineSet
Substitution2: "'smcp' Lowercase to Small Capitals lookup 16-1" percent.smcp
EndChar

StartChar: nine
Encoding: 57 57 147
Width: 623
VWidth: 0
Flags: HW
HStem: -1 74<149.106 419.895> 18 55<84 303.514> 309 74<151.247 459.633> 330 53<265.466 484> 664 74<152.559 423.296>
VStem: 60 73<402.162 644.34> 484 74<177.452 330 383 573.161>
LayerCount: 2
Fore
SplineSet
133 458 m 2
 133 397 175 383 221 383 c 2
 484 383 l 1
 484 477 480 664 370 664 c 2
 221 664 l 2
 170 664 133 654 133 583 c 2
 133 458 l 2
60 458 m 2
 60 589 l 2
 60 701 127 738 221 738 c 2
 370 738 l 1
 479 737 558 668 558 353 c 0
 558 88 469 -1 386 -1 c 0
 285 -1 171 0 84 18 c 1
 84 73 l 1
 373 73 l 2
 464 73 482 246 484 330 c 1
 399 320 295 309 221 309 c 0
 85 309 60 380 60 458 c 2
EndSplineSet
Substitution2: "'smcp' Lowercase to Small Capitals lookup 16-1" nine.smcp
Substitution2: "'sinf' Scientific Inferiors lookup 3-1" nineinferior
Substitution2: "'frac' Diagonal Fractions lookup 13-1" nine.numerator
Substitution2: "'dnom' Denominators lookup 0 subtable" nine.denominator
Substitution2: "'numr' Numerators lookup 9 subtable" nine.numerator
Substitution2: "'tnum' Tabular Numbers in Latin lookup 7-1" nine.tnum
Substitution2: "'onum' Oldstyle Figures in Latin lookup 5-1" nine.oldstyle
Substitution2: "'sups' Superscript lookup 2 subtable" ninesuperior
EndChar

StartChar: eight
Encoding: 56 56 148
Width: 634
VWidth: 0
Flags: HW
HStem: 0 74<171.117 458.748> 337 73<176.667 461.413> 663 74<172.17 459.723>
VStem: 75 74<96.9204 313.04 437.213 638.886> 485 74<100.513 312.273 432.538 638.75>
LayerCount: 2
Fore
SplineSet
149 494 m 2
 149 427 206 410 240 410 c 2
 399 410 l 2
 472 410 485 458 485 494 c 2
 485 562 l 2
 485 636 456 663 397 663 c 2
 251 663 l 2
 187 663 149 652 149 562 c 2
 149 494 l 2
149 151 m 2
 149 102 178 74 251 74 c 2
 396 74 l 2
 439 74 485 98 485 151 c 2
 485 256 l 2
 485 313 443 337 399 337 c 2
 240 337 l 2
 194 337 149 318 149 256 c 2
 149 151 l 2
75 154 m 2
 75 252 l 2
 75 326 120 346 160 359 c 1
 96 381 75 446 75 499 c 2
 75 564 l 2
 75 698 148 737 251 737 c 2
 397 737 l 2
 504 737 559 687 559 564 c 2
 559 499 l 1
 560 477 556 398 484 383 c 1
 538 373 560 295 559 252 c 1
 559 154 l 2
 559 24 460 0 396 0 c 2
 251 0 l 2
 79 0 75 113 75 154 c 2
EndSplineSet
Substitution2: "'smcp' Lowercase to Small Capitals lookup 16-1" eight.smcp
Substitution2: "'sinf' Scientific Inferiors lookup 3-1" eightinferior
Substitution2: "'frac' Diagonal Fractions lookup 13-1" eight.numerator
Substitution2: "'dnom' Denominators lookup 0 subtable" eight.denominator
Substitution2: "'numr' Numerators lookup 9 subtable" eight.numerator
Substitution2: "'onum' Oldstyle Figures in Latin lookup 5-1" eight.oldstyle
Substitution2: "'tnum' Tabular Numbers in Latin lookup 7-1" eight.tnum
Substitution2: "'sups' Superscript lookup 2 subtable" eightsuperior
EndChar

StartChar: quotesingle
Encoding: 39 39 149
Width: 185
VWidth: 0
Flags: HW
HStem: 531 201<66 120>
VStem: 55 75<579.727 732>
LayerCount: 2
Fore
SplineSet
55 665 m 1
 55 732 l 1
 130 732 l 1
 130 665 l 1
 120 531 l 1
 66 531 l 1
 55 665 l 1
EndSplineSet
Substitution2: "'smcp' Lowercase to Small Capitals lookup 16-1" quotesingle.smcp
EndChar

StartChar: onesuperior
Encoding: 185 185 150
Width: 271
VWidth: 150
Flags: HW
VStem: 144 62<406 813>
LayerCount: 2
Fore
SplineSet
16 778 m 1
 16 827 l 1
 144 882 l 1
 206 882 l 1
 206 406 l 1
 144 406 l 1
 144 813 l 1
 16 778 l 1
EndSplineSet
EndChar

StartChar: twosuperior
Encoding: 178 178 151
Width: 387
VWidth: 150
Flags: HW
HStem: 406 62<148 344> 826 62<35.0786 263.388> 826 47<31.2969 211.645>
VStem: 280 64<678.395 812.01>
LayerCount: 2
Fore
SplineSet
32 826 m 2
 30 826 31 874 32 873 c 1
 98 881 143 888 215 888 c 0
 313 888 345 830 345 752 c 0
 345 627 190 503 148 468 c 1
 344 468 l 1
 344 406 l 1
 35 406 l 1
 35 464 l 1
 102 518 280 636 280 749 c 0
 280 802 262 826 204 826 c 2
 32 826 l 2
EndSplineSet
EndChar

StartChar: threesuperior
Encoding: 179 179 152
Width: 406
VWidth: 150
Flags: HW
HStem: 402 62<36.6705 274.687> 617 59<74 268.448> 622 47<74 216> 822 61<32.6756 271.615> 822 43<30 221.448>
VStem: 284 62<475.19 601.25 690.079 809.594>
LayerCount: 2
Fore
SplineSet
30 822 m 1
 30 865 l 1
 87 885 149 883 225 883 c 0
 312 883 346 826 346 766 c 2
 346 731 l 2
 346 684 323 653 297 643 c 1
 324 626 346 598 346 549 c 2
 346 521 l 2
 346 450 319 402 220 402 c 0
 146 402 91 400 34 420 c 1
 35 463 l 1
 67 463 212 464 212 464 c 2
 266 464 284 481 284 525 c 2
 284 548 l 2
 284 599 251 616 216 617 c 2
 74 622 l 1
 74 669 l 1
 216 676 l 2
 261 678 285 700 285 740 c 2
 285 762 l 2
 285 804 261 822 216 822 c 2
 30 822 l 1
EndSplineSet
EndChar

StartChar: ordmasculine
Encoding: 186 186 153
Width: 390
VWidth: 0
Flags: HW
HStem: 271 58<41 348> 373 62<115.218 276.263> 675 62<112.817 276.368>
VStem: 30 62<458.397 653.369> 298 62<456.103 652.182>
LayerCount: 2
Fore
SplineSet
92 550 m 0
 92 438 133 435 196 435 c 0
 263 435 296 436 298 550 c 0
 300 673 263 675 196 675 c 0
 126 675 92 675 92 550 c 0
41 271 m 1
 41 329 l 1
 348 329 l 1
 348 271 l 1
 41 271 l 1
30 550 m 0
 30 692 69 737 196 737 c 0
 323 737 360 692 360 550 c 0
 360 422 323 373 196 373 c 0
 69 373 30 422 30 550 c 0
EndSplineSet
Ligature2: "'ordn' Ordinals lookup 21-1" o
Substitution2: "'smcp' Lowercase to Small Capitals lookup 16-1" ordmasculine.smcp
EndChar

StartChar: ordfeminine
Encoding: 170 170 154
Width: 364
VWidth: 0
Flags: HW
HStem: 268 58<30 334> 374 62<96.0643 210.681> 681 58<49.8003 261.125>
VStem: 30 62<440.144 537.358> 270 62<459.925 554 598.578 672.699>
LayerCount: 2
Fore
SplineSet
92 476 m 2
 92 446 110 436 136 436 c 0
 196 436 270 468 270 468 c 1
 270 554 l 1
 136 544 l 2
 104 541 92 523 92 503 c 2
 92 476 l 2
30 463 m 2
 30 509 l 2
 30 563 68 599 130 599 c 2
 130 599 270 598 270 599 c 2
 270 599 271 630 270 631 c 1
 270 668 247 681 209 681 c 0
 155 681 115 677 42 674 c 1
 42 716 l 1
 98 724 142 738 217 739 c 0
 279 740 332 709 332 636 c 2
 332 378 l 1
 292 378 l 1
 271 427 l 1
 269 427 189 374 130 374 c 0
 78 374 30 405 30 463 c 2
30 268 m 1
 30 326 l 1
 334 326 l 1
 334 268 l 1
 30 268 l 1
EndSplineSet
Ligature2: "'ordn' Ordinals lookup 21-1" a
Substitution2: "'smcp' Lowercase to Small Capitals lookup 16-1" ordfeminine.smcp
EndChar

StartChar: slash
Encoding: 47 47 155
Width: 400
VWidth: 0
Flags: HW
DStem2: 20 -72 99 -72 0.316566 0.948571<25.0087 887.651>
LayerCount: 2
Fore
SplineSet
20 -72 m 1
 301 770 l 1
 380 770 l 1
 99 -72 l 1
 20 -72 l 1
EndSplineSet
Substitution2: "'frac' Diagonal Fractions lookup 12-1" fraction
Substitution2: "'numr' Numerators lookup 9 subtable" fraction
EndChar

StartChar: backslash
Encoding: 92 92 156
Width: 400
VWidth: 0
Flags: HW
DStem2: 99 770 20 770 0.316566 -0.948571<0 862.643>
LayerCount: 2
Fore
SplineSet
20 770 m 1
 99 770 l 1
 380 -72 l 1
 301 -72 l 1
 20 770 l 1
EndSplineSet
EndChar

StartChar: bar
Encoding: 124 124 157
Width: 245
VWidth: 0
Flags: HW
VStem: 86 74<-72 770>
LayerCount: 2
Fore
SplineSet
86 -72 m 1
 86 770 l 1
 160 770 l 1
 160 -72 l 1
 86 -72 l 1
EndSplineSet
EndChar

StartChar: underscore
Encoding: 95 95 158
Width: 674
VWidth: 0
Flags: HW
HStem: -1 74<20 654>
LayerCount: 2
Fore
SplineSet
20 -1 m 1
 20 73 l 1
 654 73 l 1
 654 -1 l 1
 20 -1 l 1
EndSplineSet
EndChar

StartChar: hyphen
Encoding: 45 45 159
Width: 354
VWidth: 0
Flags: HW
HStem: 253 74<20 334>
VStem: 20 314<253 327>
LayerCount: 2
Fore
SplineSet
20 253 m 1
 20 327 l 1
 334 327 l 1
 334 253 l 1
 20 253 l 1
EndSplineSet
Substitution2: "'smcp' Lowercase to Small Capitals lookup 16-1" hyphen.smcp
Substitution2: "'c2sc' Capitals to Small Capitals in Latin lookup 17 subtable" hyphen.smcp
Substitution2: "'case' Case-Sensitive Forms lookup 1-1" hyphen.alt
EndChar

StartChar: numbersign
Encoding: 35 35 160
Width: 687
VWidth: 0
Flags: HW
HStem: 0 21G<141 196.19 359 414.203> 231 52<28 178 239 396 456 625> 449 52<63 213 273 430 491 659> 712 20G<254.797 310 471.883 527>
DStem2: 141 0 193 0 0.157833 0.987466<8.2073 234.932 295.908 454.736 515.554 741.291> 359 0 411 0 0.156517 0.987675<8.13888 233.944 294.694 454.579 515.486 741.134>
LayerCount: 2
Fore
SplineSet
239 284 m 1
 404 283 l 1
 430 449 l 1
 265 449 l 1
 239 284 l 1
20 232 m 1
 28 284 l 1
 187 284 l 1
 213 449 l 1
 54 449 l 1
 63 501 l 1
 221 501 l 1
 258 732 l 1
 310 732 l 1
 273 501 l 1
 439 501 l 1
 475 732 l 1
 527 732 l 1
 491 501 l 1
 668 501 l 1
 659 449 l 1
 482 449 l 1
 456 283 l 1
 633 283 l 1
 625 231 l 1
 448 231 l 1
 411 0 l 1
 359 0 l 1
 396 231 l 1
 230 232 l 1
 193 0 l 1
 141 0 l 1
 178 232 l 1
 20 232 l 1
EndSplineSet
Substitution2: "'smcp' Lowercase to Small Capitals lookup 16-1" numbersign.smcp
EndChar

StartChar: dollar
Encoding: 36 36 161
Width: 575
VWidth: 0
Flags: HW
HStem: 322 74<161.987 423.753>
VStem: 55 74<426.402 633.413> 244 58<-90 -8 738 824> 446 74<98.8168 299.071>
LayerCount: 2
Fore
SplineSet
55 494 m 2
 55 560 l 1
 57 701 137 736 244 738 c 1
 244 824 l 1
 302 824 l 1
 302 735 l 1
 365 730 453 718 493 714 c 1
 493 656 l 1
 443 656 253 665 253 665 c 2
 183 668 129 655 129 560 c 2
 129 494 l 2
 129 414 183 396 233 396 c 2
 363 396 l 2
 501 396 520 306 520 224 c 2
 520 156 l 2
 520 18 409 -14 302 -8 c 1
 302 -90 l 1
 244 -90 l 1
 244 -3 l 1
 181 4 104 14 78 17 c 1
 78 72 l 1
 118 72 224 66 317 66 c 0
 358 66 446 73 446 156 c 2
 446 224 l 2
 446 281 428 322 363 322 c 2
 233 322 l 2
 86 322 55 415 55 494 c 2
EndSplineSet
Substitution2: "'smcp' Lowercase to Small Capitals lookup 16-1" dollar.smcp
EndChar

StartChar: zerosuperior
Encoding: 264 8304 162
Width: 468
VWidth: 150
Flags: HW
HStem: 405 62<128.724 341.188> 818 62<128.766 341.101>
VStem: 60 63<474.412 811.344> 346 61<472.422 812.91>
LayerCount: 2
Fore
SplineSet
123 519 m 2
 123 479 132 467 181 467 c 2
 290 467 l 2
 341 467 346 484 346 519 c 2
 346 766 l 2
 346 801 338 818 290 818 c 2
 181 818 l 2
 130 818 123 797 123 766 c 2
 123 519 l 2
60 515 m 2
 60 770 l 2
 60 854 106 880 177 880 c 2
 294 880 l 2
 377 880 407 837 407 770 c 2
 407 515 l 2
 407 419 358 405 294 405 c 2
 177 405 l 2
 118 405 60 415 60 515 c 2
EndSplineSet
EndChar

StartChar: foursuperior
Encoding: 265 8308 163
Width: 417
VWidth: 150
Flags: HW
HStem: 526 65<114 281> 539 52<370.231 402>
VStem: 281 62<406 526 591 712>
DStem2: 16 550 114 591 0.533221 0.845976<86.9407 390.082>
LayerCount: 2
Fore
SplineSet
16 550 m 1
 224 880 l 1
 295 880 l 1
 114 591 l 1
 281 591 l 1
 281 712 l 1
 309 760 l 1
 343 760 l 1
 343 591 l 1
 402 591 l 1
 402 539 l 1
 343 526 l 1
 343 406 l 1
 281 406 l 1
 281 526 l 1
 38 526 l 1
 16 550 l 1
EndSplineSet
EndChar

StartChar: fivesuperior
Encoding: 266 8309 164
Width: 419
VWidth: 149
Flags: HW
HStem: 401 63<59.0491 308.6> 415 49<55 266.228> 637 62<121.448 308.652> 818 62<128 365>
VStem: 55 52<588 632.231> 317 62<471.352 630.406>
DStem2: 55 588 120 680 0.0513022 0.998683<95.2135 233.442>
LayerCount: 2
Fore
SplineSet
55 415 m 1
 55 464 l 1
 266 464 l 2
 301 464 317 486 317 519 c 2
 317 575 l 2
 317 597 319 637 266 637 c 2
 151 637 l 2
 126 637 107 623 107 588 c 1
 55 588 l 1
 70 880 l 1
 365 880 l 1
 365 818 l 1
 128 818 l 1
 120 680 l 1
 150 709 238 699 270 699 c 0
 347 699 379 650 379 579 c 2
 379 515 l 2
 379 433 333 401 270 401 c 0
 189 401 142 400 55 415 c 1
EndSplineSet
EndChar

StartChar: sixsuperior
Encoding: 267 8310 165
Width: 440
VWidth: 149
Flags: HW
HStem: 406 62<144.815 331.308> 623 62<119.592 333.357> 623 48<117 291.731> 824 62<143.426 380.311> 824 50<169.179 383>
VStem: 55 62<503.633 623 671 795.833> 337 62<474.574 619.064>
LayerCount: 2
Fore
SplineSet
117 623 m 1
 117 590 119 468 184 468 c 2
 290 468 l 2
 323 468 337 483 337 519 c 2
 337 580 l 2
 337 616 320 623 290 623 c 2
 117 623 l 1
55 656 m 0
 57 853 115 882 178 886 c 0
 245 891 326 882 383 874 c 1
 383 824 l 1
 181 824 l 2
 122 824 118 726 117 671 c 1
 172 677 246 685 294 685 c 0
 382 685 399 635 399 584 c 2
 399 511 l 2
 399 439 355 406 294 406 c 2
 187 406 l 2
 115 406 53 443 55 656 c 0
EndSplineSet
EndChar

StartChar: sevensuperior
Encoding: 268 8311 166
Width: 367
VWidth: 150
Flags: HW
HStem: 820 62<15 270>
DStem2: 99 406 169 406 0.378552 0.92558<26.4986 447.923>
LayerCount: 2
Fore
SplineSet
15 820 m 1
 15 882 l 1
 334 882 l 1
 351 851 l 1
 169 406 l 1
 99 406 l 1
 270 820 l 1
 15 820 l 1
EndSplineSet
EndChar

StartChar: eightsuperior
Encoding: 269 8312 167
Width: 466
VWidth: 150
Flags: HW
HStem: 404 63<133.915 332.269> 614 63<135.594 331.8> 823 62<135.609 330.645>
VStem: 66 62<471.283 607.766 685.015 816.121> 338 62<473.145 607.676 683.136 816.793>
LayerCount: 2
Fore
SplineSet
128 732 m 2
 128 688 155 677 177 677 c 2
 288 677 l 2
 335 677 338 709 338 732 c 2
 338 764 l 2
 338 812 321 823 283 823 c 2
 186 823 l 2
 141 823 128 810 128 764 c 2
 128 732 l 2
128 512 m 2
 128 480 138 467 179 467 c 2
 291 467 l 2
 319 467 338 478 338 512 c 2
 338 562 l 2
 338 599 321 614 292 614 c 2
 177 614 l 2
 147 614 128 602 128 562 c 2
 128 512 l 2
66 508 m 2
 66 566 l 2
 66 614 95 630 121 638 c 1
 79 652 66 694 66 728 c 2
 66 768 l 2
 66 860 115 885 182 885 c 2
 292 885 l 2
 362 885 400 854 400 768 c 2
 400 728 l 1
 401 714 399 663 352 653 c 1
 387 647 400 594 400 566 c 2
 400 508 l 2
 400 424 350 404 295 404 c 2
 175 404 l 2
 83 404 66 454 66 508 c 2
EndSplineSet
EndChar

StartChar: ninesuperior
Encoding: 270 8313 168
Width: 440
VWidth: 150
Flags: HW
HStem: 406 62<64.2358 299.765> 418 50<61 276.198> 607 62<110.643 324.408> 621 48<152.269 327> 824 62<112.692 299.185>
VStem: 45 62<672.936 817.426> 327 62<497.013 621 669 793.735>
LayerCount: 2
Fore
SplineSet
107 712 m 2
 107 676 124 669 154 669 c 2
 327 669 l 1
 327 702 328 824 263 824 c 2
 154 824 l 2
 121 824 107 809 107 773 c 2
 107 712 l 2
45 708 m 2
 45 781 l 2
 45 853 89 886 150 886 c 2
 257 886 l 2
 329 886 391 849 389 636 c 0
 387 439 333 411 267 406 c 0
 201 401 130 404 61 418 c 1
 61 468 l 1
 262 468 l 2
 321 468 326 566 327 621 c 1
 272 615 198 607 150 607 c 0
 62 607 45 657 45 708 c 2
EndSplineSet
EndChar

StartChar: zeroinferior
Encoding: 271 8320 169
Width: 468
VWidth: 0
Flags: HW
HStem: -200 62<128.724 341.188> 213 62<128.766 341.101>
VStem: 60 63<-130.588 206.344> 346 61<-132.578 207.91>
LayerCount: 2
Fore
SplineSet
123 -86 m 2
 123 -126 132 -138 181 -138 c 2
 290 -138 l 2
 341 -138 346 -121 346 -86 c 2
 346 161 l 2
 346 196 338 213 290 213 c 2
 181 213 l 2
 130 213 123 192 123 161 c 2
 123 -86 l 2
60 -90 m 2
 60 165 l 2
 60 249 106 275 177 275 c 2
 294 275 l 2
 377 275 407 232 407 165 c 2
 407 -90 l 2
 407 -186 358 -200 294 -200 c 2
 177 -200 l 2
 118 -200 60 -190 60 -90 c 2
EndSplineSet
EndChar

StartChar: oneinferior
Encoding: 272 8321 170
Width: 271
VWidth: 0
Flags: HW
VStem: 144 62<-199 208>
LayerCount: 2
Fore
SplineSet
16 173 m 1
 16 222 l 1
 144 277 l 1
 206 277 l 1
 206 -199 l 1
 144 -199 l 1
 144 208 l 1
 16 173 l 1
EndSplineSet
EndChar

StartChar: twoinferior
Encoding: 273 8322 171
Width: 387
VWidth: 0
Flags: HW
HStem: -199 62<148 344> 221 62<35.0786 263.388> 221 47<31.2969 211.645>
VStem: 280 64<73.3947 207.011>
LayerCount: 2
Fore
SplineSet
32 221 m 2
 30 221 31 269 32 268 c 1
 98 276 143 283 215 283 c 0
 313 283 345 225 345 147 c 0
 345 22 190 -102 148 -137 c 1
 344 -137 l 1
 344 -199 l 1
 35 -199 l 1
 35 -141 l 1
 102 -87 280 31 280 144 c 0
 280 197 262 221 204 221 c 2
 32 221 l 2
EndSplineSet
EndChar

StartChar: threeinferior
Encoding: 274 8323 172
Width: 406
VWidth: 0
Flags: HW
HStem: -203 62<36.6705 274.687> 12 59<74 268.448> 17 47<74 216> 217 61<32.6756 271.615> 217 43<30 221.448>
VStem: 284 62<-129.81 -3.75 85.079 204.594>
LayerCount: 2
Fore
SplineSet
30 217 m 1
 30 260 l 1
 87 280 149 278 225 278 c 0
 312 278 346 221 346 161 c 2
 346 126 l 2
 346 79 323 48 297 38 c 1
 324 21 346 -7 346 -56 c 2
 346 -84 l 2
 346 -155 319 -203 220 -203 c 0
 146 -203 91 -205 34 -185 c 1
 35 -142 l 1
 67 -142 212 -141 212 -141 c 2
 266 -141 284 -124 284 -80 c 2
 284 -57 l 2
 284 -6 251 11 216 12 c 2
 74 17 l 1
 74 64 l 1
 216 71 l 2
 261 73 285 95 285 135 c 2
 285 157 l 2
 285 199 261 217 216 217 c 2
 30 217 l 1
EndSplineSet
EndChar

StartChar: fourinferior
Encoding: 275 8324 173
Width: 417
VWidth: 0
Flags: HW
HStem: -79 65<114 281> -66 52<370.231 402>
VStem: 281 62<-199 -79 -14 107>
DStem2: 16 -55 114 -14 0.533221 0.845976<86.9407 390.082>
LayerCount: 2
Fore
SplineSet
16 -55 m 1
 224 275 l 1
 295 275 l 1
 114 -14 l 1
 281 -14 l 1
 281 107 l 1
 309 155 l 1
 343 155 l 1
 343 -14 l 1
 402 -14 l 1
 402 -66 l 1
 343 -79 l 1
 343 -199 l 1
 281 -199 l 1
 281 -79 l 1
 38 -79 l 1
 16 -55 l 1
EndSplineSet
EndChar

StartChar: fiveinferior
Encoding: 276 8325 174
Width: 419
VWidth: 0
Flags: HW
HStem: -204 63<59.0491 308.6> -190 49<55 266.228> 32 62<121.448 308.652> 213 62<128 365>
VStem: 55 52<-17 27.2307> 317 62<-133.648 25.4062>
DStem2: 55 -17 120 75 0.0513022 0.998683<95.2135 233.442>
LayerCount: 2
Fore
SplineSet
55 -17 m 1
 70 275 l 1
 365 275 l 1
 365 213 l 1
 128 213 l 1
 120 75 l 1
 150 104 238 94 270 94 c 0
 347 94 379 45 379 -26 c 2
 379 -90 l 2
 379 -172 333 -204 270 -204 c 0
 189 -204 142 -205 55 -190 c 1
 55 -141 l 1
 266 -141 l 2
 301 -141 317 -119 317 -86 c 2
 317 -30 l 2
 317 -8 319 32 266 32 c 2
 151 32 l 2
 126 32 107 18 107 -17 c 1
 55 -17 l 1
EndSplineSet
EndChar

StartChar: sixinferior
Encoding: 277 8326 175
Width: 440
VWidth: 0
Flags: HW
HStem: -199 62<144.815 331.308> 18 62<119.592 333.357> 18 48<117 291.731> 219 62<143.426 380.037> 219 50<169.179 383>
VStem: 55 62<-101.367 18 66 190.833> 337 62<-130.426 14.0637>
LayerCount: 2
Fore
SplineSet
117 18 m 1
 117 -15 119 -137 184 -137 c 2
 290 -137 l 2
 323 -137 337 -122 337 -86 c 2
 337 -25 l 2
 337 11 320 18 290 18 c 2
 117 18 l 1
55 51 m 0
 57 248 115 277 178 281 c 0
 244 285 320 281 383 269 c 1
 383 219 l 1
 181 219 l 2
 122 219 118 121 117 66 c 1
 172 72 246 80 294 80 c 0
 382 80 399 30 399 -21 c 2
 399 -94 l 2
 399 -166 355 -199 294 -199 c 2
 187 -199 l 2
 115 -199 53 -162 55 51 c 0
EndSplineSet
EndChar

StartChar: seveninferior
Encoding: 278 8327 176
Width: 367
VWidth: 0
Flags: HW
HStem: 215 62<15 270>
DStem2: 99 -199 169 -199 0.378552 0.92558<26.4986 447.923>
LayerCount: 2
Fore
SplineSet
15 215 m 1
 15 277 l 1
 334 277 l 1
 351 246 l 1
 169 -199 l 1
 99 -199 l 1
 270 215 l 1
 15 215 l 1
EndSplineSet
EndChar

StartChar: eightinferior
Encoding: 279 8328 177
Width: 466
VWidth: 0
Flags: HW
HStem: -201 63<133.915 332.269> 9 63<135.594 331.8> 218 62<135.609 330.645>
VStem: 66 62<-133.717 2.76562 80.0153 211.121> 338 62<-131.855 2.67554 78.1362 211.793>
LayerCount: 2
Fore
SplineSet
128 127 m 2
 128 83 155 72 177 72 c 2
 288 72 l 2
 335 72 338 104 338 127 c 2
 338 159 l 2
 338 207 321 218 283 218 c 2
 186 218 l 2
 141 218 128 205 128 159 c 2
 128 127 l 2
128 -43 m 2
 128 -93 l 2
 128 -125 138 -138 179 -138 c 2
 291 -138 l 2
 319 -138 338 -127 338 -93 c 2
 338 -43 l 2
 338 -6 321 9 292 9 c 2
 177 9 l 2
 147 9 128 -3 128 -43 c 2
66 -39 m 2
 66 9 95 25 121 33 c 1
 79 47 66 89 66 123 c 2
 66 163 l 2
 66 255 115 280 182 280 c 2
 292 280 l 2
 362 280 400 249 400 163 c 2
 400 123 l 1
 401 109 399 58 352 48 c 1
 387 42 400 -11 400 -39 c 2
 400 -97 l 2
 400 -181 350 -201 295 -201 c 2
 175 -201 l 2
 83 -201 66 -151 66 -97 c 2
 66 -39 l 2
EndSplineSet
EndChar

StartChar: nineinferior
Encoding: 280 8329 178
Width: 440
VWidth: 0
Flags: HW
HStem: -199 62<64.0995 299.765> -187 50<61 276.198> 2 62<110.643 324.408> 16 48<152.269 327> 219 62<112.692 299.185>
VStem: 45 62<67.9363 212.426> 327 62<-107.987 16 64 188.735>
LayerCount: 2
Fore
SplineSet
107 107 m 2
 107 71 124 64 154 64 c 2
 327 64 l 1
 327 97 328 219 263 219 c 2
 154 219 l 2
 121 219 107 204 107 168 c 2
 107 107 l 2
45 103 m 2
 45 176 l 2
 45 248 89 281 150 281 c 2
 257 281 l 2
 329 281 391 244 389 31 c 0
 387 -166 333 -194 267 -199 c 0
 201 -204 127 -200 61 -187 c 1
 61 -137 l 1
 262 -137 l 2
 321 -137 326 -39 327 16 c 1
 272 10 198 2 150 2 c 0
 62 2 45 52 45 103 c 2
EndSplineSet
EndChar

StartChar: zero.oldstyle
Encoding: 281 -1 179
Width: 643
VWidth: 0
Flags: HW
HStem: 0 74<172.932 473.547> 557 74<171.412 474.558>
VStem: 70 74<102.489 528.128> 499 74<99.1994 532.703>
LayerCount: 2
Fore
SplineSet
144 162 m 2
 144 95 194 74 242 74 c 2
 406 74 l 2
 470 74 499 108 499 162 c 2
 499 469 l 2
 499 515 480 557 406 557 c 2
 242 557 l 2
 172 557 144 517 144 469 c 2
 144 162 l 2
70 162 m 2
 70 469 l 2
 70 577 147 631 242 631 c 2
 406 631 l 2
 528 631 573 560 573 469 c 2
 573 162 l 2
 573 43 505 0 406 0 c 2
 242 0 l 2
 151 0 70 42 70 162 c 2
EndSplineSet
Substitution2: "'tnum' Tabular Numbers in Latin lookup 7-1" zero.tosf
Substitution2: "'lnum' Lining Figures lookup 19-1" zero
EndChar

StartChar: one.oldstyle
Encoding: 282 -1 180
Width: 357
VWidth: 0
Flags: HW
HStem: 0 21G<198 272>
VStem: 198 74<0 548>
LayerCount: 2
Fore
SplineSet
30 494 m 1
 30 547 l 1
 198 632 l 1
 272 632 l 1
 272 0 l 1
 198 0 l 1
 198 548 l 1
 30 494 l 1
EndSplineSet
Substitution2: "'tnum' Tabular Numbers in Latin lookup 7-1" one.tosf
Substitution2: "'lnum' Lining Figures lookup 19-1" one
EndChar

StartChar: two.oldstyle
Encoding: 283 -1 181
Width: 597
VWidth: 0
Flags: HW
HStem: 0 74<200 542> 564 74<104.509 434.781> 564 54<41 257.033>
VStem: 472 70<385.003 527.647>
LayerCount: 2
Fore
SplineSet
41 564 m 1
 41 618 l 1
 139 632 229 643 344 638 c 1
 484 638 547 564 547 451 c 0
 547 280 258 104 200 74 c 1
 542 74 l 1
 542 0 l 1
 47 0 l 1
 47 68 l 1
 174 139 472 306 472 453 c 0
 472 526 435 567 343 564 c 1
 41 564 l 1
EndSplineSet
Substitution2: "'tnum' Tabular Numbers in Latin lookup 7-1" two.tosf
Substitution2: "'lnum' Lining Figures lookup 19-1" two
EndChar

StartChar: three.oldstyle
Encoding: 284 -1 182
Width: 614
VWidth: 0
Flags: HW
HStem: -102 75<120.295 431.693> -74 47<57 156.501> 231 75<190.9 428.193> 238 58<118 288.1> 565 74<129.715 432.5> 565 46<50 148.759>
VStem: 465 74<5.84253 194.271 339.139 530.858>
LayerCount: 2
Fore
SplineSet
50 565 m 1
 50 611 l 1
 138 642 251 641 368 639 c 0
 478 637 539 566 539 474 c 2
 539 405 l 2
 539 332 513 285 473 269 c 1
 514 243 539 201 539 125 c 2
 539 66 l 2
 539 -43 483 -102 361 -102 c 0
 247 -102 144 -105 56 -74 c 1
 57 -27 l 1
 355 -27 l 2
 408 -27 463 -13 463 66 c 2
 463 125 l 2
 463 203 415 229 361 231 c 2
 118 238 l 1
 118 296 l 1
 361 306 l 2
 430 309 465 344 465 405 c 2
 465 474 l 2
 465 539 413 565 361 565 c 2
 50 565 l 1
EndSplineSet
Substitution2: "'tnum' Tabular Numbers in Latin lookup 7-1" three.tosf
Substitution2: "'lnum' Lining Figures lookup 19-1" three
EndChar

StartChar: four.oldstyle
Encoding: 285 -1 183
Width: 603
VWidth: 0
Flags: HW
HStem: 87 78<135 419> 106 59<549.842 583>
VStem: 419 74<-98 87 165 372>
DStem2: 20 124 135 165 0.534181 0.84537<96.091 600.92>
LayerCount: 2
Fore
SplineSet
20 124 m 1
 341 632 l 1
 429 632 l 1
 135 165 l 1
 419 165 l 1
 419 372 l 1
 456 447 l 1
 493 447 l 1
 493 165 l 1
 583 165 l 1
 583 106 l 1
 493 87 l 1
 493 -98 l 1
 419 -98 l 1
 419 87 l 1
 54 87 l 1
 20 124 l 1
EndSplineSet
Substitution2: "'tnum' Tabular Numbers in Latin lookup 7-1" four.tosf
Substitution2: "'lnum' Lining Figures lookup 19-1" four
EndChar

StartChar: five.oldstyle
Encoding: 286 -1 184
Width: 620
VWidth: 0
Flags: HW
HStem: -104 79<138.138 442.079> -80 55<76 252.245> 272 74<166.114 447.374> 558 74<168 522>
VStem: 78 66<197 249.931> 100 68<493.591 558> 470 74<4.21568 246.859>
LayerCount: 2
Fore
SplineSet
76 -25 m 1
 380 -25 l 2
 449 -25 470 24 470 68 c 2
 470 178 l 2
 470 211 469 272 380 272 c 2
 226 272 l 2
 187 272 144 251 144 197 c 1
 78 197 l 1
 100 632 l 1
 522 632 l 1
 522 558 l 1
 168 558 l 1
 156 316 l 1
 170 333 198 342 230 346 c 0
 284 353 349 346 380 346 c 0
 498 346 544 277 544 180 c 2
 544 66 l 2
 544 -71 442 -104 380 -104 c 0
 256 -104 210 -103 76 -80 c 1
 76 -25 l 1
EndSplineSet
Substitution2: "'tnum' Tabular Numbers in Latin lookup 7-1" five.tosf
Substitution2: "'lnum' Lining Figures lookup 19-1" five
EndChar

StartChar: six.oldstyle
Encoding: 287 -1 185
Width: 623
VWidth: 0
Flags: HW
HStem: -1 74<199.704 470.441> 354 74<163.367 471.753> 354 53<139 357.534> 664 74<203.105 475.245> 664 55<318.243 539>
VStem: 65 74<163.839 354 407 559.548> 490 73<92.6597 334.838>
LayerCount: 2
Fore
SplineSet
139 354 m 1
 139 260 143 73 253 73 c 2
 402 73 l 2
 453 73 490 83 490 154 c 2
 490 279 l 2
 490 340 448 354 402 354 c 2
 139 354 l 1
65 384 m 0
 65 649 154 738 237 738 c 0
 338 738 444 732 539 719 c 1
 539 664 l 1
 250 664 l 2
 159 664 141 491 139 407 c 1
 224 417 328 428 402 428 c 0
 538 428 563 357 563 279 c 2
 563 148 l 2
 563 36 496 -1 402 -1 c 2
 253 -1 l 1
 144 0 65 69 65 384 c 0
EndSplineSet
Substitution2: "'tnum' Tabular Numbers in Latin lookup 7-1" six.tosf
Substitution2: "'lnum' Lining Figures lookup 19-1" six
EndChar

StartChar: seven.oldstyle
Encoding: 288 -1 186
Width: 546
VWidth: 0
Flags: HW
HStem: 558 74<30 421>
DStem2: 163 -100 251 -100 0.361262 0.932464<31.791 706.767>
LayerCount: 2
Fore
SplineSet
30 558 m 1
 30 632 l 1
 489 632 l 1
 516 584 l 1
 251 -100 l 1
 163 -100 l 1
 421 558 l 1
 30 558 l 1
EndSplineSet
Substitution2: "'tnum' Tabular Numbers in Latin lookup 7-1" seven.tosf
Substitution2: "'lnum' Lining Figures lookup 19-1" seven
EndChar

StartChar: eight.oldstyle
Encoding: 289 -1 187
Width: 634
VWidth: 0
Flags: HW
HStem: 0 74<171.117 458.748> 337 73<176.667 461.413> 663 74<172.17 459.723>
VStem: 75 74<96.9204 313.04 437.213 638.886> 485 74<100.513 312.273 432.538 638.75>
LayerCount: 2
Fore
SplineSet
149 494 m 2
 149 427 206 410 240 410 c 2
 399 410 l 2
 472 410 485 458 485 494 c 2
 485 562 l 2
 485 636 456 663 397 663 c 2
 251 663 l 2
 187 663 149 652 149 562 c 2
 149 494 l 2
149 151 m 2
 149 102 178 74 251 74 c 2
 396 74 l 2
 439 74 485 98 485 151 c 2
 485 256 l 2
 485 313 443 337 399 337 c 2
 240 337 l 2
 194 337 149 318 149 256 c 2
 149 151 l 2
75 154 m 2
 75 252 l 2
 75 326 120 346 160 359 c 1
 96 381 75 446 75 499 c 2
 75 564 l 2
 75 698 148 737 251 737 c 2
 397 737 l 2
 504 737 559 687 559 564 c 2
 559 499 l 1
 560 477 556 398 484 383 c 1
 538 373 560 295 559 252 c 1
 559 154 l 2
 559 24 460 0 396 0 c 2
 251 0 l 2
 79 0 75 113 75 154 c 2
EndSplineSet
Substitution2: "'tnum' Tabular Numbers in Latin lookup 7-1" eight.tosf
Substitution2: "'lnum' Lining Figures lookup 19-1" eight
EndChar

StartChar: nine.oldstyle
Encoding: 290 -1 188
Width: 623
VWidth: 0
Flags: HW
HStem: -107 74<148.556 419.895> -88 55<84 305.068> 203 74<151.247 459.633> 224 53<265.466 484> 558 74<152.559 423.296>
VStem: 60 73<296.162 538.34> 484 74<71.4515 224 277 467.161>
LayerCount: 2
Fore
SplineSet
133 352 m 2
 133 291 175 277 221 277 c 2
 484 277 l 1
 484 371 480 558 370 558 c 2
 221 558 l 2
 170 558 133 548 133 477 c 2
 133 352 l 2
60 352 m 2
 60 483 l 2
 60 595 127 632 221 632 c 2
 370 632 l 1
 479 631 558 562 558 247 c 0
 558 -18 469 -107 386 -107 c 0
 285 -107 181 -106 84 -88 c 1
 84 -33 l 1
 373 -33 l 2
 464 -33 482 140 484 224 c 1
 399 214 295 203 221 203 c 0
 85 203 60 274 60 352 c 2
EndSplineSet
Substitution2: "'tnum' Tabular Numbers in Latin lookup 7-1" nine.tosf
Substitution2: "'lnum' Lining Figures lookup 19-1" nine
EndChar

StartChar: ampersand
Encoding: 38 38 189
Width: 637
VWidth: 0
Flags: HW
HStem: 0 21G<510.225 613> 660 50<340.109 473>
DStem2: 114 366 164 313 0.762377 0.647134<-85.2103 105.35> 216 538 137 524 0.59376 -0.804642<-85.5905 70.1594 144.18 395.41 478.366 616.369> 318 95 371 44 0.711414 0.702773<-57.6331 100.171 182.465 235.213>
LayerCount: 2
Fore
SplineSet
141 122 m 0
 181 71 264 44 318 95 c 2
 398 170 l 1
 242 378 l 1
 164 313 l 2
 84 247 95 181 141 122 c 0
78 82 m 1
 3 177 27 292 114 366 c 2
 200 439 l 1
 137 524 l 2
 58 631 137 723 207 730 c 0
 323 741 401 727 473 710 c 1
 473 660 l 1
 270 660 l 2
 184 660 147 631 216 538 c 2
 451 220 l 1
 565 339 l 1
 588 315 l 1
 537 208 l 1
 496 163 l 1
 613 0 l 1
 525 0 l 1
 443 111 l 1
 371 44 l 2
 290 -31 149 -19 78 82 c 1
EndSplineSet
Substitution2: "'smcp' Lowercase to Small Capitals lookup 16-1" ampersand.smcp
AlternateSubs2: "'salt' Access All Alternates in Latin lookup 4-1" ampersand.salt
EndChar

StartChar: asterisk
Encoding: 42 42 190
Width: 440
VWidth: 0
Flags: HW
HStem: 566 40<50 83.5517> 713 20G<176 227.712>
LayerCount: 2
Fore
SplineSet
251 571 m 1
 371 647 l 1
 390 612 l 1
 299 515 l 1
 251 571 l 1
208 476 m 1
 249 538 l 1
 359 447 l 1
 338 415 l 1
 208 476 l 1
176 717 m 1
 215 733 l 1
 290 615 l 1
 222 584 l 1
 176 717 l 1
118 414 m 1
 142 549 l 1
 214 532 l 1
 155 402 l 1
 118 414 l 1
50 566 m 1
 50 606 l 1
 189 635 l 1
 194 561 l 1
 50 566 l 1
EndSplineSet
Substitution2: "'smcp' Lowercase to Small Capitals lookup 16-1" asterisk.smcp
EndChar

StartChar: Euro
Encoding: 291 8364 191
Width: 611
VWidth: 0
Flags: HW
HStem: -6 74<251.837 537.562> 248 61<182 415.828> 255 47<20 108 182.033 416> 410 60<182 416> 418 43<20 88.4444 234 416> 666 74<242.044 538.976>
VStem: 108 74<140.637 248 309 410 470 604.073>
LayerCount: 2
Fore
SplineSet
20 255 m 1
 20 302 l 1
 108 309 l 1
 108 410 l 1
 20 418 l 1
 20 461 l 1
 108 470 l 1
 108 542 98 740 342 740 c 0
 394 740 517 723 587 710 c 1
 587 651 l 1
 587 651 424 666 342 666 c 0
 193 666 182 587 182 470 c 1
 416 463 l 1
 416 417 l 1
 182 410 l 1
 182 309 l 1
 416 302 l 1
 416 255 l 1
 416 255 179 250 182 248 c 1
 182 114 248 68 342 68 c 0
 439 68 591 85 591 85 c 1
 591 29 l 1
 510 6 425 -6 342 -6 c 0
 265 -6 108 22 108 248 c 1
 20 255 l 1
EndSplineSet
Substitution2: "'smcp' Lowercase to Small Capitals lookup 16-1" Euro.smcp
EndChar

StartChar: parenleft
Encoding: 40 40 192
Width: 335
VWidth: 60
Flags: HW
VStem: 75 74<136.909 500.827>
LayerCount: 2
Fore
SplineSet
75 326 m 0
 75 600 234 860 234 860 c 1
 315 860 l 1
 315 860 149 598 149 326 c 0
 149 26 315 -210 315 -210 c 1
 234 -210 l 1
 234 -210 75 10 75 326 c 0
EndSplineSet
Substitution2: "'smcp' Lowercase to Small Capitals lookup 16-1" parenleft.smcp
Substitution2: "'c2sc' Capitals to Small Capitals in Latin lookup 17 subtable" parenleft.smcp
Substitution2: "'case' Case-Sensitive Forms lookup 1-1" parenleft.alt
EndChar

StartChar: parenright
Encoding: 41 41 193
Width: 335
VWidth: 60
Flags: HW
VStem: 186 74<136.909 500.827>
LayerCount: 2
Fore
SplineSet
20 -210 m 1
 20 -210 186 26 186 326 c 0
 186 598 20 860 20 860 c 1
 101 860 l 1
 101 860 260 600 260 326 c 0
 260 10 101 -210 101 -210 c 1
 20 -210 l 1
EndSplineSet
Substitution2: "'smcp' Lowercase to Small Capitals lookup 16-1" parenright.smcp
Substitution2: "'c2sc' Capitals to Small Capitals in Latin lookup 17 subtable" parenright.smcp
Substitution2: "'case' Case-Sensitive Forms lookup 1-1" parenright.alt
EndChar

StartChar: plus
Encoding: 43 43 194
Width: 516
VWidth: 0
Flags: HW
HStem: 319 74<50 220 294 466>
VStem: 220 74<148 319 393 564>
LayerCount: 2
Fore
SplineSet
50 319 m 1
 50 393 l 1
 220 393 l 1
 220 564 l 1
 294 564 l 1
 294 393 l 1
 466 393 l 1
 466 319 l 1
 294 319 l 1
 294 148 l 1
 220 148 l 1
 220 319 l 1
 50 319 l 1
EndSplineSet
EndChar

StartChar: endash
Encoding: 292 8211 195
Width: 513
VWidth: 0
Flags: HW
HStem: 250 75<20 493>
LayerCount: 2
Fore
SplineSet
20 250 m 1
 20 325 l 1
 493 325 l 1
 493 250 l 1
 20 250 l 1
EndSplineSet
Substitution2: "'smcp' Lowercase to Small Capitals lookup 16-1" endash.smcp
Substitution2: "'c2sc' Capitals to Small Capitals in Latin lookup 17 subtable" endash.smcp
Substitution2: "'case' Case-Sensitive Forms lookup 1-1" endash.alt
EndChar

StartChar: emdash
Encoding: 293 8212 196
Width: 736
VWidth: 0
Flags: HW
HStem: 252 75<20 716>
LayerCount: 2
Fore
SplineSet
20 252 m 1
 20 327 l 1
 716 327 l 1
 716 252 l 1
 20 252 l 1
EndSplineSet
Substitution2: "'smcp' Lowercase to Small Capitals lookup 16-1" emdash.smcp
Substitution2: "'c2sc' Capitals to Small Capitals in Latin lookup 17 subtable" emdash.smcp
Substitution2: "'case' Case-Sensitive Forms lookup 1-1" emdash.alt
EndChar

StartChar: less
Encoding: 60 60 197
Width: 475
VWidth: 0
Flags: HW
DStem2: 50 394 149 354 0.918002 0.396577<75.0191 376.77> 149 354 50 314 0.907108 -0.420898<0 305.92>
LayerCount: 2
Fore
SplineSet
50 314 m 1
 50 394 l 1
 425 556 l 1
 425 476 l 1
 149 354 l 1
 425 222 l 1
 425 140 l 1
 50 314 l 1
EndSplineSet
EndChar

StartChar: equal
Encoding: 61 61 198
Width: 467
VWidth: 0
Flags: HW
HStem: 212 74<20 447> 421 74<20 447>
LayerCount: 2
Fore
SplineSet
20 421 m 1
 20 495 l 1
 447 495 l 1
 447 421 l 1
 20 421 l 1
20 212 m 1
 20 286 l 1
 447 286 l 1
 447 212 l 1
 20 212 l 1
EndSplineSet
EndChar

StartChar: greater
Encoding: 62 62 199
Width: 475
VWidth: 0
Flags: HW
DStem2: 50 556 50 476 0.918002 -0.396577<31.7261 333.477> 50 222 50 140 0.907108 0.420898<0 305.92>
LayerCount: 2
Fore
SplineSet
50 140 m 1
 50 222 l 1
 326 354 l 1
 50 476 l 1
 50 556 l 1
 425 394 l 1
 425 314 l 1
 50 140 l 1
EndSplineSet
EndChar

StartChar: multiply
Encoding: 215 215 200
Width: 458
VWidth: 0
Flags: HW
DStem2: 108 529 56 476 0.707107 -0.707107<0.707108 171.12 245.366 415.779> 56 235 109 183 0.708306 0.705905<0.833157 170.414 244.659 416.487>
LayerCount: 2
Fore
SplineSet
56 235 m 1
 177 355 l 1
 56 476 l 1
 108 529 l 1
 229 408 l 1
 351 529 l 1
 403 477 l 1
 281 355 l 1
 402 235 l 1
 350 182 l 1
 229 303 l 1
 109 183 l 1
 56 235 l 1
EndSplineSet
EndChar

StartChar: divide
Encoding: 247 247 201
Width: 516
VWidth: 0
Flags: HW
HStem: 150 102<212.146 308.837> 316 74<50 466> 449 102<212.146 308.837>
VStem: 212 97<150.104 251.928 449.104 550.928>
LayerCount: 2
Fore
SplineSet
212 472 m 2
 212 526 l 2
 212 541 220 551 236 551 c 2
 286 551 l 2
 301 551 309 540 309 526 c 2
 309 472 l 2
 309 457 300 449 286 449 c 2
 236 449 l 2
 222 449 212 458 212 472 c 2
212 173 m 2
 212 227 l 2
 212 242 220 252 236 252 c 2
 286 252 l 2
 301 252 309 241 309 227 c 2
 309 173 l 2
 309 158 300 150 286 150 c 2
 236 150 l 2
 222 150 212 159 212 173 c 2
50 316 m 1
 50 390 l 1
 466 390 l 1
 466 316 l 1
 50 316 l 1
EndSplineSet
EndChar

StartChar: question
Encoding: 63 63 202
Width: 541
VWidth: 0
Flags: HW
HStem: 0 105<170.146 271.837> 296 61<258 389.326> 664 75<61.0781 387.284> 664 55<20 237.382>
VStem: 170 102<0.104492 104.928> 183 75<195 296> 428 73<391.901 627.226>
LayerCount: 2
Fore
SplineSet
170 23 m 2
 170 80 l 2
 170 95 178 105 194 105 c 2
 249 105 l 2
 264 105 272 94 272 80 c 2
 272 23 l 2
 272 8 263 0 249 0 c 2
 194 0 l 2
 180 0 170 9 170 23 c 2
20 664 m 1
 20 719 l 1
 122 732 187 744 302 739 c 1
 454 739 501 652 501 554 c 2
 501 453 l 2
 501 318 393 275 258 296 c 1
 258 195 l 1
 183 195 l 1
 183 357 l 1
 325 357 l 1
 374 359 428 386 428 453 c 2
 428 554 l 2
 428 632 388 664 291 664 c 2
 20 664 l 1
EndSplineSet
Substitution2: "'smcp' Lowercase to Small Capitals lookup 16-1" question.smcp
EndChar

StartChar: bracketleft
Encoding: 91 91 203
Width: 321
VWidth: 60
Flags: HW
HStem: -210 74<180.416 301> 768 74<180.416 301>
VStem: 85 74<-115.223 747.223>
LayerCount: 2
Fore
SplineSet
85 -38 m 2
 85 670 l 2
 85 730 100 842 221 842 c 2
 301 842 l 1
 301 768 l 1
 221 768 l 2
 183 768 159 730 159 670 c 2
 159 -38 l 2
 159 -98 183 -136 221 -136 c 2
 301 -136 l 1
 301 -210 l 1
 221 -210 l 2
 100 -210 85 -98 85 -38 c 2
EndSplineSet
EndChar

StartChar: bracketright
Encoding: 93 93 204
Width: 321
VWidth: 60
Flags: HW
HStem: -210 74<20 140.584> 768 74<20 140.584>
VStem: 162 74<-115.223 747.223>
LayerCount: 2
Fore
SplineSet
20 -136 m 1
 100 -136 l 2
 138 -136 162 -98 162 -38 c 2
 162 670 l 2
 162 730 138 768 100 768 c 2
 20 768 l 1
 20 842 l 1
 100 842 l 2
 221 842 236 730 236 670 c 2
 236 -38 l 2
 236 -98 221 -210 100 -210 c 2
 20 -210 l 1
 20 -136 l 1
EndSplineSet
EndChar

StartChar: braceleft
Encoding: 123 123 205
Width: 320
VWidth: 60
Flags: HW
HStem: -210 74<217.197 300> 300 67<20 95.7727> 768 74<218.764 300>
VStem: 109 74<-101.481 285.794 380.597 729.656>
LayerCount: 2
Fore
SplineSet
20 300 m 1
 20 367 l 1
 53 370 110 369 110 420 c 2
 110 656 l 2
 110 752 167 842 300 842 c 1
 300 768 l 1
 237 768 184 747 184 656 c 2
 184 420 l 2
 184 372 147 343 99 334 c 1
 147 327 183 293 183 251 c 2
 183 -38 l 2
 183 -103 230 -140 300 -136 c 1
 300 -210 l 1
 151 -210 109 -116 109 -38 c 2
 109 247 l 2
 109 289 60 303 20 300 c 1
EndSplineSet
EndChar

StartChar: braceright
Encoding: 125 125 206
Width: 320
VWidth: 60
Flags: HW
HStem: -210 74<20 102.803> 300 67<224.227 300> 768 74<20 101.236>
VStem: 137 74<-101.481 285.794 380.597 729.656>
LayerCount: 2
Fore
SplineSet
20 -136 m 1
 90 -140 137 -103 137 -38 c 2
 137 251 l 2
 137 293 173 327 221 334 c 1
 173 343 136 372 136 420 c 2
 136 656 l 2
 136 747 83 768 20 768 c 1
 20 842 l 1
 153 842 210 752 210 656 c 2
 210 420 l 2
 210 369 267 370 300 367 c 1
 300 300 l 1
 260 303 211 289 211 247 c 2
 211 -38 l 2
 211 -116 169 -210 20 -210 c 1
 20 -136 l 1
EndSplineSet
EndChar

StartChar: at
Encoding: 64 64 207
Width: 844
VWidth: 0
Flags: HW
HStem: -178 75<167.6 658.979> 0 21G<540.625 601> 438 74<161.118 514.947> 626 74<225.531 646.161> 626 47<178 337.312>
VStem: 65 74<-72.5606 415.711> 225 74<80.4212 209.352> 529 72<108.568 242 293.57 369.945 370 421.883> 545 56<0 32> 685 74<-77 588.321>
LayerCount: 2
Fore
SplineSet
299 114 m 0
 299 93 327 64 360 65 c 1
 419 64 479 95 529 119 c 1
 529 242 l 1
 359 226 l 2
 319 222 298 194 299 159 c 0
 299 158 299 115 299 114 c 0
65 0 m 2
 65 348 l 2
 65 384 67 512 233 512 c 2
 448 512 l 2
 519 512 601 482 601 372 c 2
 601 0 l 1
 545 0 l 1
 531 64 l 1
 529 64 444 -9 353 -9 c 1
 279 -11 224 40 225 108 c 1
 225 161 l 2
 225 241 271 294 354 294 c 0
 422 294 529 293 529 294 c 2
 529 294 530 370 529 370 c 1
 529 426 499 438 445 438 c 2
 233 438 l 2
 185 438 139 428 139 348 c 2
 139 0 l 2
 139 -90 193 -103 233 -103 c 2
 582 -103 l 2
 664 -103 685 -68 685 0 c 2
 685 512 l 2
 685 589 643 626 582 626 c 2
 178 626 l 1
 178 673 l 1
 226 683 340 701 466 700 c 1
 582 700 l 1
 688 698 759 637 759 512 c 2
 759 0 l 2
 759 -98 720 -178 582 -178 c 2
 233 -178 l 2
 131 -178 65 -116 65 0 c 2
EndSplineSet
Substitution2: "'smcp' Lowercase to Small Capitals lookup 16-1" at.smcp
Substitution2: "'case' Case-Sensitive Forms lookup 1-1" at.alt
EndChar

StartChar: breve
Encoding: 294 728 208
Width: 329
VWidth: 0
Flags: HW
HStem: 530 47<115.707 215.707>
VStem: 50 47<595.875 644> 233 47<594.125 644>
LayerCount: 2
Fore
SplineSet
50 644 m 1
 97 644 l 1
 97 605 131 577 164 577 c 0
 202 577 233 602 233 644 c 1
 280 644 l 1
 280 568 219 530 164 530 c 0
 109 530 50 572 50 644 c 1
EndSplineSet
EndChar

StartChar: ogonek
Encoding: 295 731 209
Width: 224
VWidth: 0
Flags: HW
HStem: -181 60<119.03 174> -20 20G<57 171>
LayerCount: 2
Fore
SplineSet
132 0 m 1
 171 0 l 1
 88 -68 95 -119 174 -121 c 1
 174 -181 l 1
 59 -197 -18 -64 132 0 c 1
EndSplineSet
EndChar

StartChar: caron
Encoding: 296 711 210
Width: 392
VWidth: 0
Flags: HW
HStem: 531 130
VStem: 50 292
LayerCount: 2
Fore
SplineSet
50 661 m 1
 122 661 l 1
 202 590 l 1
 271 661 l 1
 342 661 l 1
 238 531 l 1
 167 531 l 1
 50 661 l 1
EndSplineSet
Substitution2: "'smcp' Lowercase to Small Capitals lookup 16-1" caron.smcp
EndChar

StartChar: hungarumlaut
Encoding: 297 733 211
Width: 380
VWidth: 0
Flags: HW
HStem: 531 133
LayerCount: 2
Fore
SplineSet
155 531 m 1
 262 664 l 1
 357 664 l 1
 224 531 l 1
 155 531 l 1
20 531 m 1
 127 664 l 1
 222 664 l 1
 89 531 l 1
 20 531 l 1
EndSplineSet
EndChar

StartChar: dotaccent
Encoding: 298 729 212
Width: 197
VWidth: 0
Flags: HW
HStem: 533 102<50.1465 146.837>
VStem: 50 97<533.104 634.928>
LayerCount: 2
Fore
SplineSet
50 556 m 2
 50 610 l 2
 50 625 58 635 74 635 c 2
 124 635 l 2
 139 635 147 624 147 610 c 2
 147 556 l 2
 147 541 138 533 124 533 c 2
 74 533 l 2
 60 533 50 542 50 556 c 2
EndSplineSet
EndChar

StartChar: Aogonek
Encoding: 299 260 213
Width: 670
VWidth: 0
Flags: HW
HStem: -181 60<571.363 626.333> -20 20<509.333 623.333> 0 21<45 142.471 550.824 645> 204 74<229 468> 712 20<306.65 395.022>
DStem2: 45 0 136 0 0.344933 0.938627<31.3889 31.3889 324.406 455.52 493.375 686.215> 388 732 350 619 0.331269 -0.943536<94.0314 454.867 533.302 533.302>
LayerCount: 2
Fore
SplineSet
229 278 m 1
 468 278 l 1
 350 619 l 1
 229 278 l 1
45 0 m 1
 314 732 l 1
 388 732 l 1
 645 0 l 1
 623.333 0 l 1
 540.333 -68 547.333 -119 626.333 -121 c 1
 626.333 -181 l 1
 511.333 -197 434.333 -64 584.333 0 c 1
 557 0 l 1
 494 204 l 1
 202 204 l 1
 136 0 l 1
 45 0 l 1
EndSplineSet
Substitution2: "'c2sc' Capitals to Small Capitals in Latin lookup 17 subtable" aogonek.smcp
EndChar

StartChar: Lcaron
Encoding: 300 317 214
Width: 557
VWidth: 0
Flags: HW
HStem: 0 74<161.006 522> 712 20G<80 154>
VStem: 80 74<80.0236 732> 231 74<619.727 772>
LayerCount: 2
Fore
SplineSet
231 705 m 1
 231 772 l 1
 305 772 l 1
 305 705 l 1
 295 571 l 1
 242 571 l 1
 231 705 l 1
80 126 m 2
 80 732 l 1
 154 732 l 1
 154 126 l 2
 154 73 187 74 216 74 c 2
 522 74 l 1
 522 0 l 1
 216 0 l 2
 149.992 0 80 13 80 126 c 2
EndSplineSet
Substitution2: "'c2sc' Capitals to Small Capitals in Latin lookup 17 subtable" lcaron.smcp
EndChar

StartChar: Sacute
Encoding: 301 346 215
Width: 584
VWidth: 0
Flags: HW
HStem: -8 74<108.551 432.534> 322 74<162.037 442.271> 664 74<167.448 495.913> 798 133
VStem: 65 74<417.897 635.158> 272 202 465 74<97.8527 300.228>
LayerCount: 2
Fore
SplineSet
272 798 m 1
 379 931 l 1
 474 931 l 1
 341 798 l 1
 272 798 l 1
65 494 m 2
 65 560 l 2
 65 705 151 738 263 738 c 0
 316 738 475 719 513 714 c 1
 513 654 l 1
 449 658 263 664 263 664 c 2
 193 667 139 660 139 560 c 2
 139 494 l 2
 139 403 181 396 241 396 c 2
 383 396 l 2
 516 396 539 306 539 224 c 2
 539 156 l 2
 539 14 436 -8 337 -8 c 0
 288 -8 133 9 87 17 c 1
 87 77 l 1
 127 73 244 66 337 66 c 0
 378 66 465 68 465 156 c 2
 465 224 l 2
 465 281 448 322 383 322 c 2
 243 322 l 2
 83 322 65 410 65 494 c 2
EndSplineSet
Substitution2: "'c2sc' Capitals to Small Capitals in Latin lookup 17 subtable" sacute.smcp
EndChar

StartChar: Scaron
Encoding: 302 352 216
Width: 584
VWidth: 0
Flags: HW
HStem: -8 74<108.551 432.534> 322 74<162.037 442.271> 664 74<167.448 495.913> 798 130
VStem: 65 74<417.897 635.158> 159 292 465 74<97.8527 300.228>
LayerCount: 2
Fore
SplineSet
159 928 m 1
 231 928 l 1
 311 857 l 1
 380 928 l 1
 451 928 l 1
 347 798 l 1
 276 798 l 1
 159 928 l 1
65 494 m 2
 65 560 l 2
 65 705 151 738 263 738 c 0
 316 738 475 719 513 714 c 1
 513 654 l 1
 449 658 263 664 263 664 c 2
 193 667 139 660 139 560 c 2
 139 494 l 2
 139 403 181 396 241 396 c 2
 383 396 l 2
 516 396 539 306 539 224 c 2
 539 156 l 2
 539 14 436 -8 337 -8 c 0
 288 -8 133 9 87 17 c 1
 87 77 l 1
 127 73 244 66 337 66 c 0
 378 66 465 68 465 156 c 2
 465 224 l 2
 465 281 448 322 383 322 c 2
 243 322 l 2
 83 322 65 410 65 494 c 2
EndSplineSet
Substitution2: "'c2sc' Capitals to Small Capitals in Latin lookup 17 subtable" scaron.smcp
EndChar

StartChar: Scedilla
Encoding: 303 350 217
Width: 584
VWidth: 0
Flags: HW
HStem: -181 37<196 220.733> -8 74<108.551 432.534> 322 74<162.037 442.271> 664 74<167.448 495.913>
VStem: 65 74<417.897 635.158> 281 67<-121.741 -45> 465 74<97.8527 300.228>
LayerCount: 2
Fore
SplineSet
196 -144 m 1
 249 -129 l 1
 277 -117 281 -83 281 -45 c 1
 348 -45 l 1
 348 -147 327 -181 247 -181 c 2
 196 -181 l 1
 196 -144 l 1
65 494 m 2
 65 560 l 2
 65 705 151 738 263 738 c 0
 316 738 475 719 513 714 c 1
 513 654 l 1
 449 658 263 664 263 664 c 2
 193 667 139 660 139 560 c 2
 139 494 l 2
 139 403 181 396 241 396 c 2
 383 396 l 2
 516 396 539 306 539 224 c 2
 539 156 l 2
 539 14 436 -8 337 -8 c 0
 288 -8 133 9 87 17 c 1
 87 77 l 1
 127 73 244 66 337 66 c 0
 378 66 465 68 465 156 c 2
 465 224 l 2
 465 281 448 322 383 322 c 2
 243 322 l 2
 83 322 65 410 65 494 c 2
EndSplineSet
Substitution2: "'c2sc' Capitals to Small Capitals in Latin lookup 17 subtable" scedilla.smcp
EndChar

StartChar: Tcaron
Encoding: 304 356 218
Width: 578
VWidth: 0
Flags: HW
HStem: 0 21<259 333> 658 74<45 259 333 553> 797 130
VStem: 143 292 259 74<0 658>
LayerCount: 2
Fore
SplineSet
143 927 m 1
 215 927 l 1
 295 856 l 1
 364 927 l 1
 435 927 l 1
 331 797 l 1
 260 797 l 1
 143 927 l 1
45 658 m 1
 45 732 l 1
 553 732 l 1
 553 658 l 1
 333 658 l 1
 333 0 l 1
 259 0 l 1
 259 658 l 1
 45 658 l 1
EndSplineSet
Substitution2: "'c2sc' Capitals to Small Capitals in Latin lookup 17 subtable" tcaron.smcp
EndChar

StartChar: Zacute
Encoding: 305 377 219
Width: 563
VWidth: 0
Flags: HW
HStem: 0 74<132 528> 658 74<35 431> 797 133
VStem: 247 202
DStem2: 35 74 132 74 0.561224 0.827664<54.4387 705.6>
LayerCount: 2
Fore
SplineSet
247 797 m 1
 354 930 l 1
 449 930 l 1
 316 797 l 1
 247 797 l 1
35 0 m 1
 35 74 l 1
 431 658 l 1
 35 658 l 1
 35 732 l 1
 528 732 l 1
 528 658 l 1
 132 74 l 1
 528 74 l 1
 528 0 l 1
 35 0 l 1
EndSplineSet
Substitution2: "'c2sc' Capitals to Small Capitals in Latin lookup 17 subtable" zacute.smcp
EndChar

StartChar: Zcaron
Encoding: 306 381 220
Width: 563
VWidth: 0
Flags: HW
HStem: 0 74<132 528> 658 74<35 431> 797 130
VStem: 135.5 292
DStem2: 35 74 132 74 0.561224 0.827664<54.4387 705.6>
LayerCount: 2
Fore
SplineSet
135.5 927 m 1
 207.5 927 l 1
 287.5 856 l 1
 356.5 927 l 1
 427.5 927 l 1
 323.5 797 l 1
 252.5 797 l 1
 135.5 927 l 1
35 0 m 1
 35 74 l 1
 431 658 l 1
 35 658 l 1
 35 732 l 1
 528 732 l 1
 528 658 l 1
 132 74 l 1
 528 74 l 1
 528 0 l 1
 35 0 l 1
EndSplineSet
Substitution2: "'c2sc' Capitals to Small Capitals in Latin lookup 17 subtable" zcaron.smcp
EndChar

StartChar: Zdotaccent
Encoding: 307 379 221
Width: 563
VWidth: 0
Flags: HW
HStem: 0 74<132 528> 658 74<35 431> 797 102<233.146 329.837>
VStem: 233 97<797.104 898.928>
DStem2: 35 74 132 74 0.561224 0.827664<54.4387 705.6>
LayerCount: 2
Fore
SplineSet
233 820 m 2
 233 874 l 2
 233 889 241 899 257 899 c 2
 307 899 l 2
 322 899 330 888 330 874 c 2
 330 820 l 2
 330 805 321 797 307 797 c 2
 257 797 l 2
 243 797 233 806 233 820 c 2
35 0 m 1
 35 74 l 1
 431 658 l 1
 35 658 l 1
 35 732 l 1
 528 732 l 1
 528 658 l 1
 132 74 l 1
 528 74 l 1
 528 0 l 1
 35 0 l 1
EndSplineSet
Substitution2: "'c2sc' Capitals to Small Capitals in Latin lookup 17 subtable" zdotaccent.smcp
EndChar

StartChar: aogonek
Encoding: 308 261 222
Width: 519
VWidth: 0
Flags: HW
HStem: -181 60<409.83 464.8> -20 20<347.8 461.8> -6 74<124.061 278.286> 262 58<297.875 394.839> 469 72<92.8965 374.922>
VStem: 40 74<78.9822 232.113> 395 74<111.909 262 319.629 449.646> 414 55<0 23.5789>
LayerCount: 2
Fore
SplineSet
114 131 m 2
 114 83 139 68 173 68 c 0
 253 68 395 119 395 119 c 1
 395 262 l 1
 173 246 l 2
 130 242 114 213 114 181 c 2
 114 131 l 2
40 126 m 2
 40 187 l 2
 40 267 90 320 173 320 c 2
 173 320 395 319 395 320 c 2
 395 320 396 386 395 387 c 1
 395 448 363 469 313 469 c 0
 241 469 154 464 57 457 c 1
 57 511 l 1
 128 531 217 540 316 541 c 0
 399 542 469 497 469 387 c 2
 469 0 l 1
 461.8 0 l 1
 378.8 -68 385.8 -119 464.8 -121 c 1
 464.8 -181 l 1
 349.8 -197 272.8 -64 422.8 0 c 1
 414 0 l 1
 395 64 l 1
 393 64 264 -6 173 -6 c 0
 100 -6 40 41 40 126 c 2
EndSplineSet
Substitution2: "'smcp' Lowercase to Small Capitals lookup 16-1" aogonek.smcp
AlternateSubs2: "'salt' Access All Alternates in Latin lookup 4-1" aogonek.salt
EndChar

StartChar: lcaron
Encoding: 309 318 223
Width: 300
VWidth: 0
Flags: HW
HStem: 0 53<189.006 280> 763 20G<60 134 210 284>
VStem: 60 74<91.597 783> 210 74<628.727 781>
LayerCount: 2
Fore
SplineSet
210 714 m 1
 210 781 l 1
 284 781 l 1
 284 714 l 1
 274 580 l 1
 221 580 l 1
 210 714 l 1
60 189 m 2
 60 783 l 1
 134 783 l 1
 134 189 l 2
 134 102 148 86 191 74 c 1
 191 74 273 53 280 53 c 1
 280 0 l 1
 192 0 l 2
 98 0 60 48 60 189 c 2
EndSplineSet
Substitution2: "'smcp' Lowercase to Small Capitals lookup 16-1" lcaron.smcp
EndChar

StartChar: sacute
Encoding: 310 347 224
Width: 506
VWidth: 0
Flags: HW
HStem: -5 74<97.198 383.312> 14 55<62 282.5> 227 74<120.694 383.578> 463 57<216.94 439> 463 73<119.823 414.988> 601 133
VStem: 40 74<307.663 456.151> 215 202 392 74<78.2272 217.859>
LayerCount: 2
Fore
SplineSet
215 601 m 1
 322 734 l 1
 417 734 l 1
 284 601 l 1
 215 601 l 1
40 358 m 2
 40 404 l 2
 40 486 75 536 178 536 c 0
 230 536 387 525 439 520 c 1
 439 463 l 1
 178 463 l 2
 114 463 114 438 114 404 c 2
 114 358 l 2
 114 303 141 301 178 301 c 2
 336 301 l 2
 423 301 466 247 466 172 c 2
 466 123 l 2
 466 14 400 -5 336 -5 c 0
 287 -5 100 10 62 14 c 1
 62 69 l 1
 336 69 l 1
 336 69 392 63 392 123 c 2
 392 172 l 2
 392 207 380 227 336 227 c 2
 178 227 l 2
 84 227 40 255 40 358 c 2
EndSplineSet
Substitution2: "'smcp' Lowercase to Small Capitals lookup 16-1" sacute.smcp
EndChar

StartChar: scaron
Encoding: 311 353 225
Width: 506
VWidth: 0
Flags: HW
HStem: -5 74<97.198 383.312> 14 55<62 282.5> 227 74<120.694 383.578> 463 57<216.94 439> 463 73<119.823 414.988> 601 130
VStem: 40 74<307.663 456.151> 110 292 392 74<78.2272 217.859>
LayerCount: 2
Fore
SplineSet
110 731 m 1
 182 731 l 1
 262 660 l 1
 331 731 l 1
 402 731 l 1
 298 601 l 1
 227 601 l 1
 110 731 l 1
40 358 m 2
 40 404 l 2
 40 486 75 536 178 536 c 0
 230 536 387 525 439 520 c 1
 439 463 l 1
 178 463 l 2
 114 463 114 438 114 404 c 2
 114 358 l 2
 114 303 141 301 178 301 c 2
 336 301 l 2
 423 301 466 247 466 172 c 2
 466 123 l 2
 466 14 400 -5 336 -5 c 0
 287 -5 100 10 62 14 c 1
 62 69 l 1
 336 69 l 1
 336 69 392 63 392 123 c 2
 392 172 l 2
 392 207 380 227 336 227 c 2
 178 227 l 2
 84 227 40 255 40 358 c 2
EndSplineSet
Substitution2: "'smcp' Lowercase to Small Capitals lookup 16-1" scaron.smcp
EndChar

StartChar: scedilla
Encoding: 312 351 226
Width: 506
VWidth: 0
Flags: HW
HStem: -175 37<149 173.733> -5 74<97.198 383.312> 14 55<62 282.5> 227 74<120.694 383.578> 463 57<216.94 439> 463 73<119.823 414.988>
VStem: 40 74<307.663 456.151> 234 67<-115.741 -39> 392 74<78.2272 217.859>
LayerCount: 2
Fore
SplineSet
149 -138 m 1
 202 -123 l 1
 230 -111 234 -77 234 -39 c 1
 301 -39 l 1
 301 -141 280 -175 200 -175 c 2
 149 -175 l 1
 149 -138 l 1
40 358 m 2
 40 404 l 2
 40 486 75 536 178 536 c 0
 230 536 387 525 439 520 c 1
 439 463 l 1
 178 463 l 2
 114 463 114 438 114 404 c 2
 114 358 l 2
 114 303 141 301 178 301 c 2
 336 301 l 2
 423 301 466 247 466 172 c 2
 466 123 l 2
 466 14 400 -5 336 -5 c 0
 287 -5 100 10 62 14 c 1
 62 69 l 1
 336 69 l 1
 336 69 392 63 392 123 c 2
 392 172 l 2
 392 207 380 227 336 227 c 2
 178 227 l 2
 84 227 40 255 40 358 c 2
EndSplineSet
Substitution2: "'smcp' Lowercase to Small Capitals lookup 16-1" scedilla.smcp
EndChar

StartChar: tcaron
Encoding: 313 357 227
Width: 368
VWidth: 0
Flags: HW
HStem: 1 53<247.407 339> 458 74<193 348> 458 56<20 58.5>
VStem: 119 74<96.4826 458> 137 56<622.444 680> 257 74<652.6 800>
LayerCount: 2
Fore
SplineSet
256 800 m 1
 331 800 l 1
 331 733 l 1
 320 599 l 1
 267 599 l 1
 257 733 l 1
 256 800 l 1
20 458 m 1
 20 514 l 1
 119 532 l 1
 137 680 l 1
 193 680 l 1
 193 532 l 1
 348 532 l 1
 348 458 l 1
 193 458 l 1
 193 190 l 2
 193 103 216 83 250 75 c 2
 250 75 332 54 339 54 c 1
 339 1 l 1
 251 1 l 2
 174 1 119 49 119 190 c 2
 119 458 l 1
 20 458 l 1
EndSplineSet
Substitution2: "'smcp' Lowercase to Small Capitals lookup 16-1" tcaron.smcp
AlternateSubs2: "'salt' Access All Alternates in Latin lookup 4-1" tcaron.salt
EndChar

StartChar: zacute
Encoding: 314 378 228
Width: 456
VWidth: 0
Flags: HW
HStem: 1 74<142 426> 457 74<30 334> 596 133
VStem: 193.5 202
DStem2: 45 75 142 75 0.603335 0.797488<58.5235 479.004>
LayerCount: 2
Fore
SplineSet
193.5 596 m 1
 300.5 729 l 1
 395.5 729 l 1
 262.5 596 l 1
 193.5 596 l 1
30 457 m 1
 30 531 l 1
 426 531 l 1
 426 457 l 1
 142 75 l 1
 426 75 l 1
 427 74 426 1 426 1 c 1
 45 1 l 1
 45 75 l 1
 334 457 l 1
 30 457 l 1
EndSplineSet
Substitution2: "'smcp' Lowercase to Small Capitals lookup 16-1" zacute.smcp
EndChar

StartChar: zcaron
Encoding: 315 382 229
Width: 456
VWidth: 0
Flags: HW
HStem: 1 74<142 426> 457 74<30 334> 596 130
VStem: 82 292
DStem2: 45 75 142 75 0.603335 0.797488<58.5235 479.004>
LayerCount: 2
Fore
SplineSet
82 726 m 1
 154 726 l 1
 234 655 l 1
 303 726 l 1
 374 726 l 1
 270 596 l 1
 199 596 l 1
 82 726 l 1
30 457 m 1
 30 531 l 1
 426 531 l 1
 426 457 l 1
 142 75 l 1
 426 75 l 1
 427 74 426 1 426 1 c 1
 45 1 l 1
 45 75 l 1
 334 457 l 1
 30 457 l 1
EndSplineSet
Substitution2: "'smcp' Lowercase to Small Capitals lookup 16-1" zcaron.smcp
EndChar

StartChar: zdotaccent
Encoding: 316 380 230
Width: 456
VWidth: 0
Flags: HW
HStem: 1 74<142 426> 457 74<30 334> 596 102<179.646 276.337>
VStem: 179.5 97<596.104 697.928>
DStem2: 45 75 142 75 0.603335 0.797488<58.5235 479.004>
LayerCount: 2
Fore
SplineSet
179.5 619 m 2
 179.5 673 l 2
 179.5 688 187.5 698 203.5 698 c 2
 253.5 698 l 2
 268.5 698 276.5 687 276.5 673 c 2
 276.5 619 l 2
 276.5 604 267.5 596 253.5 596 c 2
 203.5 596 l 2
 189.5 596 179.5 605 179.5 619 c 2
30 457 m 1
 30 531 l 1
 426 531 l 1
 426 457 l 1
 142 75 l 1
 426 75 l 1
 427 74 426 1 426 1 c 1
 45 1 l 1
 45 75 l 1
 334 457 l 1
 30 457 l 1
EndSplineSet
Substitution2: "'smcp' Lowercase to Small Capitals lookup 16-1" zdotaccent.smcp
EndChar

StartChar: Racute
Encoding: 317 340 231
Width: 593
VWidth: 0
Flags: HW
HStem: 0 21<60 134 477.699 568> 313 66<134 234> 657 75<134 430.774> 792 133
VStem: 60 74<0 313 379 657> 256 202 466 75<404.847 621.147>
DStem2: 414 302 334 299 0.454279 -0.890859<0 302.656>
LayerCount: 2
Fore
SplineSet
256 792 m 1
 363 925 l 1
 458 925 l 1
 325 792 l 1
 256 792 l 1
134 379 m 1
 372 379 l 2
 418 379 466 379 466 512 c 0
 466 643 416 657 372 657 c 2
 134 657 l 1
 134 379 l 1
60 0 m 1
 60 732 l 1
 372 732 l 2
 467 732 541 678 541 512 c 0
 541 322 442 306 414 302 c 1
 568 0 l 1
 488 0 l 1
 334 299 l 1
 134 313 l 1
 134 0 l 1
 60 0 l 1
EndSplineSet
Substitution2: "'c2sc' Capitals to Small Capitals in Latin lookup 17 subtable" racute.smcp
EndChar

StartChar: Abreve
Encoding: 318 258 232
Width: 670
VWidth: 0
Flags: HW
HStem: 0 21<45 142.471 550.824 645> 204 74<229 468> 712 20<306.65 395.022> 797 47<301.707 401.707>
VStem: 236 47<862.875 911> 419 47<861.125 911>
DStem2: 45 0 136 0 0.344933 0.938627<31.3889 31.3889 324.406 455.52 493.375 686.215> 388 732 350 619 0.331269 -0.943536<94.0314 454.867 533.302 533.302>
LayerCount: 2
Fore
SplineSet
236 911 m 1
 283 911 l 1
 283 872 317 844 350 844 c 0
 388 844 419 869 419 911 c 1
 466 911 l 1
 466 835 405 797 350 797 c 0
 295 797 236 839 236 911 c 1
229 278 m 1
 468 278 l 1
 350 619 l 1
 229 278 l 1
45 0 m 1
 314 732 l 1
 388 732 l 1
 645 0 l 1
 557 0 l 1
 494 204 l 1
 202 204 l 1
 136 0 l 1
 45 0 l 1
EndSplineSet
Substitution2: "'c2sc' Capitals to Small Capitals in Latin lookup 17 subtable" abreve.smcp
EndChar

StartChar: Lacute
Encoding: 319 313 233
Width: 557
VWidth: 0
Flags: HW
HStem: 0 74<161.01 522> 712 20<80 154> 797 133
VStem: 80 74<80.0236 732> 82.5 202
LayerCount: 2
Fore
SplineSet
82.5 797 m 1
 189.5 930 l 1
 284.5 930 l 1
 151.5 797 l 1
 82.5 797 l 1
80 126 m 2
 80 732 l 1
 154 732 l 1
 154 126 l 2
 154 73 187 74 216 74 c 2
 522 74 l 1
 522 0 l 1
 216 0 l 2
 150 0 80 13 80 126 c 2
EndSplineSet
Substitution2: "'c2sc' Capitals to Small Capitals in Latin lookup 17 subtable" lacute.smcp
EndChar

StartChar: Cacute
Encoding: 320 262 234
Width: 578
VWidth: 0
Flags: HW
HStem: -6 74<220.9 539.594> 666 74<203.384 525.638> 800 133
VStem: 55 74<193.881 566.781> 294.5 202
LayerCount: 2
Fore
SplineSet
294.5 800 m 1
 401.5 933 l 1
 496.5 933 l 1
 363.5 800 l 1
 294.5 800 l 1
55 368 m 0
 55 602 100 740 299 740 c 0
 351 740 473 728 543 715 c 1
 543 656 l 1
 542 656 391 666 299 666 c 0
 174 666 129 609 129 366 c 0
 129 202 166 68 299 68 c 0
 404 68 543 75 543 75 c 1
 543 16 l 1
 473 3 351 -6 299 -6 c 0
 114 -6 55 153 55 368 c 0
EndSplineSet
Substitution2: "'c2sc' Capitals to Small Capitals in Latin lookup 17 subtable" cacute.smcp
EndChar

StartChar: Ccaron
Encoding: 321 268 235
Width: 578
VWidth: 0
Flags: HW
HStem: -6 74<220.9 539.594> 666 74<203.384 525.638> 800 130
VStem: 55 74<193.881 566.781> 188 292
LayerCount: 2
Fore
SplineSet
188 930 m 1
 260 930 l 1
 340 859 l 1
 409 930 l 1
 480 930 l 1
 376 800 l 1
 305 800 l 1
 188 930 l 1
55 368 m 0
 55 602 100 740 299 740 c 0
 351 740 473 728 543 715 c 1
 543 656 l 1
 542 656 391 666 299 666 c 0
 174 666 129 609 129 366 c 0
 129 202 166 68 299 68 c 0
 404 68 543 75 543 75 c 1
 543 16 l 1
 473 3 351 -6 299 -6 c 0
 114 -6 55 153 55 368 c 0
EndSplineSet
Substitution2: "'c2sc' Capitals to Small Capitals in Latin lookup 17 subtable" ccaron.smcp
EndChar

StartChar: Eogonek
Encoding: 322 280 236
Width: 567
VWidth: 0
Flags: HW
HStem: -167.25 60<469.863 524.833> -6.25 20<407.833 521.833> 14 57<396 522> 323 79<154 383.6> 333 59<252.4 482> 658 58<383.75 522> 658 74<160.866 344.25>
VStem: 80 74<76.7764 323 402 650.645>
LayerCount: 2
Fore
SplineSet
80 123 m 2
 80 602 l 2
 80 700 139 735 206 732 c 2
 522 716 l 1
 522 658 l 1
 206 658 l 2
 154 658 154 629 154 602 c 2
 154 402 l 1
 482 392 l 1
 482 333 l 1
 154 323 l 1
 154 123 l 1
 155 70 187 71 216 71 c 2
 522 71 l 1
 522 14 l 1
 517.5 13.75 l 1
 521.833 13.75 l 1
 438.833 -54.25 445.833 -105.25 524.833 -107.25 c 1
 524.833 -167.25 l 1
 411.138 -183.068 334.585 -53.2488 477.815 11.5453 c 1
 216 -3 l 2
 150 -7 80 10 80 123 c 2
EndSplineSet
Substitution2: "'c2sc' Capitals to Small Capitals in Latin lookup 17 subtable" eogonek.smcp
EndChar

StartChar: Ecaron
Encoding: 323 282 237
Width: 567
VWidth: 0
Flags: HW
HStem: 14 57<396 522> 323 79<154 383.6> 333 59<252.4 482> 658 58<383.75 522> 658 74<160.866 344.25> 792 130
VStem: 80 74<76.7764 323 402 650.645> 169 292
LayerCount: 2
Fore
SplineSet
169 922 m 1
 241 922 l 1
 321 851 l 1
 390 922 l 1
 461 922 l 1
 357 792 l 1
 286 792 l 1
 169 922 l 1
80 123 m 2
 80 602 l 2
 80 700 139 735 206 732 c 2
 522 716 l 1
 522 658 l 1
 206 658 l 2
 154 658 154 629 154 602 c 2
 154 402 l 1
 482 392 l 1
 482 333 l 1
 154 323 l 1
 154 123 l 1
 155 70 187 71 216 71 c 2
 522 71 l 1
 522 14 l 1
 216 -3 l 2
 150 -7 80 10 80 123 c 2
EndSplineSet
Substitution2: "'c2sc' Capitals to Small Capitals in Latin lookup 17 subtable" ecaron.smcp
EndChar

StartChar: Dcaron
Encoding: 324 270 238
Width: 657
VWidth: 0
Flags: HW
HStem: 0 77<154 432.267> 658 74<154 436.081> 792 130
VStem: 80 74<77 658> 172 292 538 74<215.053 531.866>
LayerCount: 2
Fore
SplineSet
172 922 m 1
 244 922 l 1
 324 851 l 1
 393 922 l 1
 464 922 l 1
 360 792 l 1
 289 792 l 1
 172 922 l 1
154 77 m 1
 352 77 l 2
 484 77 538 210 538 364 c 0
 538 578 468 658 352 658 c 2
 154 658 l 1
 154 77 l 1
80 0 m 1
 80 732 l 1
 352 732 l 2
 577 732 612 513 612 363 c 0
 612 197 545 0 352 0 c 2
 80 0 l 1
EndSplineSet
Substitution2: "'c2sc' Capitals to Small Capitals in Latin lookup 17 subtable" dcaron.smcp
EndChar

StartChar: Nacute
Encoding: 325 323 239
Width: 680
VWidth: 0
Flags: HW
HStem: 0 21<80 155 532.835 620> 712 20<80 169.131 546 620> 797 133
VStem: 80 75<0 594> 325.5 202 546 74<138 732>
DStem2: 156 732 155 594 0.549823 -0.835281<114.719 710.588>
LayerCount: 2
Fore
SplineSet
325.5 797 m 1
 432.5 930 l 1
 527.5 930 l 1
 394.5 797 l 1
 325.5 797 l 1
80 0 m 1
 80 732 l 1
 156 732 l 1
 546 138 l 1
 546 732 l 1
 620 732 l 1
 620 0 l 1
 546 0 l 1
 155 594 l 1
 155 0 l 1
 80 0 l 1
EndSplineSet
AlternateSubs2: "'salt' Access All Alternates in Latin lookup 4-1" Nacute.salt
Substitution2: "'c2sc' Capitals to Small Capitals in Latin lookup 17 subtable" nacute.smcp
EndChar

StartChar: Ncaron
Encoding: 326 327 240
Width: 680
VWidth: 0
Flags: HW
HStem: 0 21<80 155 532.835 620> 712 20<80 169.131 546 620> 797 130
VStem: 80 75<0 594> 214 292 546 74<138 732>
DStem2: 156 732 155 594 0.549823 -0.835281<114.719 710.588>
LayerCount: 2
Fore
SplineSet
214 927 m 1
 286 927 l 1
 366 856 l 1
 435 927 l 1
 506 927 l 1
 402 797 l 1
 331 797 l 1
 214 927 l 1
80 0 m 1
 80 732 l 1
 156 732 l 1
 546 138 l 1
 546 732 l 1
 620 732 l 1
 620 0 l 1
 546 0 l 1
 155 594 l 1
 155 0 l 1
 80 0 l 1
EndSplineSet
AlternateSubs2: "'salt' Access All Alternates in Latin lookup 4-1" Ncaron.salt
Substitution2: "'c2sc' Capitals to Small Capitals in Latin lookup 17 subtable" ncaron.smcp
EndChar

StartChar: Ohungarumlaut
Encoding: 327 336 241
Width: 676
VWidth: 0
Flags: HW
HStem: -4 74<219.697 475.299> 663 74<215.42 480.653> 797 133
VStem: 65 74<165.414 559.094> 557 74<169.3 563.994>
LayerCount: 2
Fore
SplineSet
382 797 m 1
 489 930 l 1
 584 930 l 1
 451 797 l 1
 382 797 l 1
247 797 m 1
 354 930 l 1
 449 930 l 1
 316 797 l 1
 247 797 l 1
139 361 m 0
 139 104 191 70 349 70 c 0
 505 70 557 112 557 361 c 0
 557 660 485 663 349 663 c 0
 216 663 139 660 139 361 c 0
65 361 m 0
 65 704 181 737 349 737 c 0
 522 737 631 704 631 361 c 0
 631 38 529 -4 349 -4 c 0
 169 -4 65 28 65 361 c 0
EndSplineSet
Substitution2: "'c2sc' Capitals to Small Capitals in Latin lookup 17 subtable" ohungarumlaut.smcp
EndChar

StartChar: Rcaron
Encoding: 328 344 242
Width: 593
VWidth: 0
Flags: HW
HStem: 0 21<60 134 477.699 568> 313 66<134 234> 657 75<134 430.774> 797 130
VStem: 60 74<0 313 379 657> 141 292 466 75<404.847 621.147>
DStem2: 414 302 334 299 0.454279 -0.890859<0 302.656>
LayerCount: 2
Fore
SplineSet
141 927 m 1
 213 927 l 1
 293 856 l 1
 362 927 l 1
 433 927 l 1
 329 797 l 1
 258 797 l 1
 141 927 l 1
134 379 m 1
 372 379 l 2
 418 379 466 379 466 512 c 0
 466 643 416 657 372 657 c 2
 134 657 l 1
 134 379 l 1
60 0 m 1
 60 732 l 1
 372 732 l 2
 467 732 541 678 541 512 c 0
 541 322 442 306 414 302 c 1
 568 0 l 1
 488 0 l 1
 334 299 l 1
 134 313 l 1
 134 0 l 1
 60 0 l 1
EndSplineSet
Substitution2: "'c2sc' Capitals to Small Capitals in Latin lookup 17 subtable" rcaron.smcp
EndChar

StartChar: Uring
Encoding: 329 366 243
Width: 677
VWidth: 0
Flags: HW
HStem: -5 74<220.463 468.056> 712 20<80 154 542 617> 797 48<304.98 391.492> 954 48<306.507 391.098>
VStem: 80 74<156.362 732> 247 47<856.6 941.795> 403 47<856.206 942.2> 542 75<163.07 732>
LayerCount: 2
Fore
SplineSet
294 899 m 0
 294 869 319 845 349 845 c 0
 379 845 403 869 403 899 c 0
 403 929 379 954 349 954 c 0
 319 954 294 929 294 899 c 0
247 899 m 0
 247 956 293 1002 349 1002 c 0
 405 1002 450 956 450 899 c 0
 450 842 405 797 349 797 c 0
 293 797 247 842 247 899 c 0
80 320 m 2
 80 732 l 1
 154 732 l 1
 154 320 l 2
 154 63 234 69 351 69 c 0
 450 69 542 71 542 320 c 2
 542 732 l 1
 617 732 l 1
 617 320 l 2
 617 -3 472 -5 351 -5 c 0
 215 -5 80 -13 80 320 c 2
EndSplineSet
Substitution2: "'c2sc' Capitals to Small Capitals in Latin lookup 17 subtable" uring.smcp
EndChar

StartChar: Uhungarumlaut
Encoding: 330 368 244
Width: 677
VWidth: 0
Flags: HW
HStem: -5 74<220.463 468.056> 712 20<80 154 542 617> 797 133
VStem: 80 74<156.362 732> 542 75<163.07 732>
LayerCount: 2
Fore
SplineSet
381.5 797 m 1
 488.5 930 l 1
 583.5 930 l 1
 450.5 797 l 1
 381.5 797 l 1
246.5 797 m 1
 353.5 930 l 1
 448.5 930 l 1
 315.5 797 l 1
 246.5 797 l 1
80 320 m 2
 80 732 l 1
 154 732 l 1
 154 320 l 2
 154 63 234 69 351 69 c 0
 450 69 542 71 542 320 c 2
 542 732 l 1
 617 732 l 1
 617 320 l 2
 617 -3 472 -5 351 -5 c 0
 215 -5 80 -13 80 320 c 2
EndSplineSet
Substitution2: "'c2sc' Capitals to Small Capitals in Latin lookup 17 subtable" uhungarumlaut.smcp
EndChar

StartChar: Tcommaaccent
Encoding: 331 354 245
Width: 578
VWidth: 0
Flags: HW
HStem: -185 37<176 200.733> 0 21<259 333> 658 74<45 259 333 553>
VStem: 259 74<0 658> 261 67<-125.741 -49>
LayerCount: 2
Fore
SplineSet
176 -148 m 1
 229 -133 l 1
 257 -121 261 -87 261 -49 c 1
 328 -49 l 1
 328 -151 307 -185 227 -185 c 2
 176 -185 l 1
 176 -148 l 1
45 658 m 1
 45 732 l 1
 553 732 l 1
 553 658 l 1
 333 658 l 1
 333 0 l 1
 259 0 l 1
 259 658 l 1
 45 658 l 1
EndSplineSet
Substitution2: "'c2sc' Capitals to Small Capitals in Latin lookup 17 subtable" tcommaaccent.smcp
EndChar

StartChar: racute
Encoding: 332 341 246
Width: 426
VWidth: 0
Flags: HW
HStem: 0 21<60 134> 462 75<230.081 405.422> 598 133
VStem: 60 52<509.682 531> 60 74<0 413.98> 218 202
LayerCount: 2
Fore
SplineSet
218 598 m 1
 325 731 l 1
 420 731 l 1
 287 598 l 1
 218 598 l 1
60 0 m 1
 60 531 l 1
 112 531 l 1
 134 464 l 1
 195 499 250 537 332 537 c 0
 361 537 394 535 406 529 c 1
 406 456 l 1
 394 459 361 462 332 462 c 0
 252 462 211 441 134 404 c 1
 134 0 l 1
 60 0 l 1
EndSplineSet
Substitution2: "'smcp' Lowercase to Small Capitals lookup 16-1" racute.smcp
AlternateSubs2: "'salt' Access All Alternates in Latin lookup 4-1" racute.salt
EndChar

StartChar: abreve
Encoding: 333 259 247
Width: 519
VWidth: 0
Flags: HW
HStem: -6 74<124.061 278.286> 262 58<297.875 394.839> 469 72<92.8965 374.922> 601 47<223.707 323.707>
VStem: 40 74<78.9822 232.113> 158 47<666.875 715> 341 47<665.125 715> 395 74<111.909 262 319.629 449.646> 414 55<0 23.5789>
LayerCount: 2
Fore
SplineSet
158 715 m 1
 205 715 l 1
 205 676 239 648 272 648 c 0
 310 648 341 673 341 715 c 1
 388 715 l 1
 388 639 327 601 272 601 c 0
 217 601 158 643 158 715 c 1
114 131 m 2
 114 83 139 68 173 68 c 0
 253 68 395 119 395 119 c 1
 395 262 l 1
 173 246 l 2
 130 242 114 213 114 181 c 2
 114 131 l 2
40 126 m 2
 40 187 l 2
 40 267 90 320 173 320 c 2
 173 320 395 319 395 320 c 2
 395 320 396 386 395 387 c 1
 395 448 363 469 313 469 c 0
 241 469 154 464 57 457 c 1
 57 511 l 1
 128 531 217 540 316 541 c 0
 399 542 469 497 469 387 c 2
 469 0 l 1
 414 0 l 1
 395 64 l 1
 393 64 264 -6 173 -6 c 0
 100 -6 40 41 40 126 c 2
EndSplineSet
Substitution2: "'smcp' Lowercase to Small Capitals lookup 16-1" abreve.smcp
EndChar

StartChar: lacute
Encoding: 334 314 248
Width: 300
VWidth: 0
Flags: HW
HStem: 0 53<188.407 280> 763 20<60 134> 843 133
VStem: 60 74<95.4826 783> 94 202
LayerCount: 2
Fore
SplineSet
94 843 m 1
 201 976 l 1
 296 976 l 1
 163 843 l 1
 94 843 l 1
60 189 m 2
 60 783 l 1
 134 783 l 1
 134 189 l 2
 134 102 157 82 191 74 c 2
 191 74 273 53 280 53 c 1
 280 0 l 1
 192 0 l 2
 115 0 60 48 60 189 c 2
EndSplineSet
Substitution2: "'smcp' Lowercase to Small Capitals lookup 16-1" lacute.smcp
EndChar

StartChar: cacute
Encoding: 335 263 249
Width: 500
VWidth: 0
Flags: HW
HStem: -5 74<162.645 431.709> 462 74<158.815 440.878> 598 133
VStem: 50 74<113 420.51> 234 202
LayerCount: 2
Fore
SplineSet
234 598 m 1
 341 731 l 1
 436 731 l 1
 303 598 l 1
 234 598 l 1
50 266 m 0
 50 498 123 536 225 536 c 0
 277 536 383 523 453 510 c 1
 453 456 l 1
 453 456 314 462 225 462 c 0
 165 462 124 451 124 262 c 0
 124 109 153 69 225 69 c 0
 317 69 460 80 460 80 c 1
 460 24 l 1
 379 1 308 -4 225 -5 c 1
 126 -5 50 33 50 266 c 0
EndSplineSet
Substitution2: "'smcp' Lowercase to Small Capitals lookup 16-1" cacute.smcp
EndChar

StartChar: ccaron
Encoding: 336 269 250
Width: 500
VWidth: 0
Flags: HW
HStem: -5 74<162.645 431.709> 462 74<158.815 440.878> 598 130
VStem: 50 74<113 420.51> 122 292
LayerCount: 2
Fore
SplineSet
122 728 m 1
 194 728 l 1
 274 657 l 1
 343 728 l 1
 414 728 l 1
 310 598 l 1
 239 598 l 1
 122 728 l 1
50 266 m 0
 50 498 123 536 225 536 c 0
 277 536 383 523 453 510 c 1
 453 456 l 1
 453 456 314 462 225 462 c 0
 165 462 124 451 124 262 c 0
 124 109 153 69 225 69 c 0
 317 69 460 80 460 80 c 1
 460 24 l 1
 379 1 308 -4 225 -5 c 1
 126 -5 50 33 50 266 c 0
EndSplineSet
Substitution2: "'smcp' Lowercase to Small Capitals lookup 16-1" ccaron.smcp
EndChar

StartChar: eogonek
Encoding: 337 281 251
Width: 525
VWidth: 0
Flags: HW
HStem: -158 60<423.03 478> -5 74<153.639 451.098> 3 20<361 475> 225 73<124 403.251> 461 74<160.856 389.792>
VStem: 50 74<101.024 225 298 420.766> 411 74<306.569 441.221>
LayerCount: 2
Fore
SplineSet
124 298 m 1
 348 298 l 2
 392 298 411 314 411 347 c 0
 411 452 391 461 283 461 c 0
 170 461 124 460 124 298 c 1
50 268 m 0
 50 505 118 535 282 535 c 0
 407 535 485 523 485 347 c 0
 485 270 444 225 348 225 c 2
 124 225 l 1
 124 100 147 69 225 69 c 0
 317 69 400 68 475 79 c 1
 475 23 l 1
 392 -45 399 -96 478 -98 c 1
 478 -158 l 1
 371.548 -172.811 297.657 -59.9483 406.237 7.67472 c 1
 346.264 -2.4 284.852 -5 225 -5 c 0
 90 -5 50 60 50 268 c 0
EndSplineSet
Substitution2: "'smcp' Lowercase to Small Capitals lookup 16-1" eogonek.smcp
EndChar

StartChar: ecaron
Encoding: 338 283 252
Width: 525
VWidth: 0
Flags: HW
HStem: -5 74<153.639 451.098> 225 73<124 403.251> 461 74<160.856 389.792> 591 130
VStem: 50 74<101.024 225 298 420.766> 130 292 411 74<306.569 441.221>
LayerCount: 2
Fore
SplineSet
130 721 m 1
 202 721 l 1
 282 650 l 1
 351 721 l 1
 422 721 l 1
 318 591 l 1
 247 591 l 1
 130 721 l 1
124 298 m 1
 348 298 l 2
 392 298 411 314 411 347 c 0
 411 452 391 461 283 461 c 0
 170 461 124 460 124 298 c 1
50 268 m 0
 50 505 118 535 282 535 c 0
 407 535 485 523 485 347 c 0
 485 270 444 225 348 225 c 2
 124 225 l 1
 124 100 147 69 225 69 c 0
 317 69 400 68 475 79 c 1
 475 23 l 1
 394 0 308 -5 225 -5 c 0
 90 -5 50 60 50 268 c 0
EndSplineSet
Substitution2: "'smcp' Lowercase to Small Capitals lookup 16-1" ecaron.smcp
EndChar

StartChar: dcaron
Encoding: 339 271 253
Width: 554
VWidth: 0
Flags: HW
HStem: -6 74<170.522 328.738> 465 74<166.731 366.308> 765 20G<421 494>
VStem: 50 74<128.042 415.865> 421 73<105.707 443.8 499 785> 542 74<632.6 780>
LayerCount: 2
Fore
SplineSet
541 780 m 1
 616 780 l 1
 616 713 l 1
 605 579 l 1
 552 579 l 1
 542 713 l 1
 541 780 l 1
124 263 m 0
 124 133 160 68 225 68 c 0
 304 68 367 92 421 114 c 1
 421 439 l 1
 352 457 302 465 225 465 c 0
 161 465 124 426 124 263 c 0
50 263 m 0
 50 399 74 539 225 539 c 0
 270 539 357 525 421 499 c 1
 421 785 l 1
 494 785 l 1
 494 0 l 1
 441 0 l 1
 421 59 l 1
 395 40 293 -6 225 -6 c 0
 80 -6 50 141 50 263 c 0
EndSplineSet
Substitution2: "'smcp' Lowercase to Small Capitals lookup 16-1" dcaron.smcp
AlternateSubs2: "'salt' Access All Alternates in Latin lookup 4-1" dcaron.salt
EndChar

StartChar: nacute
Encoding: 340 324 254
Width: 544
VWidth: 0
Flags: HW
HStem: 0 21<60 134 420 494> 466 74<227.78 392.581> 511 20<60 119.097> 600 133
VStem: 60 74<0 418.956> 239 202 420 74<0 437.431>
LayerCount: 2
Fore
SplineSet
239 600 m 1
 346 733 l 1
 441 733 l 1
 308 600 l 1
 239 600 l 1
60 0 m 1
 60 531 l 1
 112 531 l 1
 134 469 l 1
 195 504 249 540 330 540 c 0
 436 540 494 458 494 370 c 2
 494 0 l 1
 420 0 l 1
 420 370 l 2
 420 436 381 466 330 466 c 0
 250 466 211 446 134 409 c 1
 134 0 l 1
 60 0 l 1
EndSplineSet
Substitution2: "'smcp' Lowercase to Small Capitals lookup 16-1" nacute.smcp
AlternateSubs2: "'salt' Access All Alternates in Latin lookup 4-1" nacute.salt
EndChar

StartChar: ncaron
Encoding: 341 328 255
Width: 544
VWidth: 0
Flags: HW
HStem: 0 21<60 134 420 494> 466 74<227.78 392.581> 511 20<60 119.097> 600 130
VStem: 60 74<0 418.956> 142 292 420 74<0 437.431>
LayerCount: 2
Fore
SplineSet
142 730 m 1
 214 730 l 1
 294 659 l 1
 363 730 l 1
 434 730 l 1
 330 600 l 1
 259 600 l 1
 142 730 l 1
60 0 m 1
 60 531 l 1
 112 531 l 1
 134 469 l 1
 195 504 249 540 330 540 c 0
 436 540 494 458 494 370 c 2
 494 0 l 1
 420 0 l 1
 420 370 l 2
 420 436 381 466 330 466 c 0
 250 466 211 446 134 409 c 1
 134 0 l 1
 60 0 l 1
EndSplineSet
Substitution2: "'smcp' Lowercase to Small Capitals lookup 16-1" ncaron.smcp
AlternateSubs2: "'salt' Access All Alternates in Latin lookup 4-1" ncaron.salt
EndChar

StartChar: ohungarumlaut
Encoding: 342 337 256
Width: 568
VWidth: 0
Flags: HW
HStem: -5 74<175.515 395.003> 462 74<173.221 396.872> 596 133
VStem: 50 74<124.237 406.335> 444 74<126.206 409.804>
LayerCount: 2
Fore
SplineSet
317 596 m 1
 424 729 l 1
 519 729 l 1
 386 596 l 1
 317 596 l 1
182 596 m 1
 289 729 l 1
 384 729 l 1
 251 596 l 1
 182 596 l 1
124 258 m 0
 124 81 181 69 284 69 c 0
 392 69 444 83 444 258 c 0
 444 448 401 462 284 462 c 0
 172 462 124 449 124 258 c 0
50 258 m 0
 50 475 110 536 284 536 c 0
 463 536 518 469 518 258 c 0
 518 61 463 -5 284 -5 c 0
 105 -5 50 68 50 258 c 0
EndSplineSet
Substitution2: "'smcp' Lowercase to Small Capitals lookup 16-1" ohungarumlaut.smcp
EndChar

StartChar: rcaron
Encoding: 343 345 257
Width: 426
VWidth: 0
Flags: HW
HStem: 0 21<60 134> 462 75<230.081 405.422> 597 130
VStem: 60 52<509.682 531> 60 74<0 413.98> 87 292
LayerCount: 2
Fore
SplineSet
87 727 m 1
 159 727 l 1
 239 656 l 1
 308 727 l 1
 379 727 l 1
 275 597 l 1
 204 597 l 1
 87 727 l 1
60 0 m 1
 60 531 l 1
 112 531 l 1
 134 464 l 1
 195 499 250 537 332 537 c 0
 361 537 394 535 406 529 c 1
 406 456 l 1
 394 459 361 462 332 462 c 0
 252 462 211 441 134 404 c 1
 134 0 l 1
 60 0 l 1
EndSplineSet
Substitution2: "'smcp' Lowercase to Small Capitals lookup 16-1" rcaron.smcp
AlternateSubs2: "'salt' Access All Alternates in Latin lookup 4-1" rcaron.salt
EndChar

StartChar: uring
Encoding: 344 367 258
Width: 544
VWidth: 0
Flags: HW
HStem: -9 74<151.419 316.22> 0 21<424.903 484> 511 20<50 124 410 484> 596 48<223.48 309.992> 753 48<225.007 309.598>
VStem: 50 74<93.5694 531> 165.5 47<655.6 740.795> 321.5 47<655.206 741.2> 410 74<112.044 531>
LayerCount: 2
Fore
SplineSet
212.5 698 m 0
 212.5 668 237.5 644 267.5 644 c 0
 297.5 644 321.5 668 321.5 698 c 0
 321.5 728 297.5 753 267.5 753 c 0
 237.5 753 212.5 728 212.5 698 c 0
165.5 698 m 0
 165.5 755 211.5 801 267.5 801 c 0
 323.5 801 368.5 755 368.5 698 c 0
 368.5 641 323.5 596 267.5 596 c 0
 211.5 596 165.5 641 165.5 698 c 0
50 161 m 2
 50 531 l 1
 124 531 l 1
 124 161 l 2
 124 95 163 65 214 65 c 0
 294 65 333 85 410 122 c 1
 410 531 l 1
 484 531 l 1
 484 0 l 1
 432 0 l 1
 410 62 l 1
 349 27 295 -9 214 -9 c 0
 108 -9 50 73 50 161 c 2
EndSplineSet
Substitution2: "'smcp' Lowercase to Small Capitals lookup 16-1" uring.smcp
AlternateSubs2: "'salt' Access All Alternates in Latin lookup 4-1" uring.salt
EndChar

StartChar: uhungarumlaut
Encoding: 345 369 259
Width: 544
VWidth: 0
Flags: HW
HStem: -9 74<151.419 316.22> 0 21<424.903 484> 511 20<50 124 410 484> 596 133
VStem: 50 74<93.5694 531> 410 74<112.044 531>
LayerCount: 2
Fore
SplineSet
300 596 m 1
 407 729 l 1
 502 729 l 1
 369 596 l 1
 300 596 l 1
165 596 m 1
 272 729 l 1
 367 729 l 1
 234 596 l 1
 165 596 l 1
50 161 m 2
 50 531 l 1
 124 531 l 1
 124 161 l 2
 124 95 163 65 214 65 c 0
 294 65 333 85 410 122 c 1
 410 531 l 1
 484 531 l 1
 484 0 l 1
 432 0 l 1
 410 62 l 1
 349 27 295 -9 214 -9 c 0
 108 -9 50 73 50 161 c 2
EndSplineSet
Substitution2: "'smcp' Lowercase to Small Capitals lookup 16-1" uhungarumlaut.smcp
AlternateSubs2: "'salt' Access All Alternates in Latin lookup 4-1" uhungarumlaut.salt
EndChar

StartChar: tcommaaccent
Encoding: 346 355 260
Width: 378
VWidth: 0
Flags: HW
HStem: -187 37<92 116.733> 1 53<247.407 339> 458 56<20 58.5> 458 74<193 348>
VStem: 119 74<96.4826 458> 137 56<622.444 680> 177 67<-127.741 -51>
LayerCount: 2
Fore
SplineSet
92 -150 m 1
 145 -135 l 1
 173 -123 177 -89 177 -51 c 1
 244 -51 l 1
 244 -153 223 -187 143 -187 c 2
 92 -187 l 1
 92 -150 l 1
20 458 m 1
 20 514 l 1
 119 532 l 1
 137 680 l 1
 193 680 l 1
 193 532 l 1
 348 532 l 1
 348 458 l 1
 193 458 l 1
 193 190 l 2
 193 103 216 83 250 75 c 2
 250 75 332 54 339 54 c 1
 339 1 l 1
 251 1 l 2
 174 1 119 49 119 190 c 2
 119 458 l 1
 20 458 l 1
EndSplineSet
Substitution2: "'smcp' Lowercase to Small Capitals lookup 16-1" tcommaaccent.smcp
AlternateSubs2: "'salt' Access All Alternates in Latin lookup 4-1" tcommaaccent.salt
EndChar

StartChar: Lslash
Encoding: 347 321 261
Width: 556
VWidth: 0
Flags: HW
HStem: 0 74<161.006 522> 712 20G<80 154>
VStem: 80 74<80.0236 356 449 732>
DStem2: -3 381 -3 320 0.918343 0.395784<0 66.3279 171.093 298.743>
LayerCount: 2
Fore
SplineSet
-3 320 m 1
 -3 381 l 1
 80 417 l 1
 80 732 l 1
 154 732 l 1
 154 449 l 1
 294 509 l 1
 293 449 l 1
 154 388 l 1
 154 126 l 2
 154 73 187 74 216 74 c 2
 522 74 l 1
 522 0 l 1
 216 0 l 2
 149.992 0 80 13 80 126 c 2
 80 356 l 1
 -3 320 l 1
EndSplineSet
Substitution2: "'c2sc' Capitals to Small Capitals in Latin lookup 17 subtable" lslash.smcp
EndChar

StartChar: uni00AD
Encoding: 173 173 262
Width: 354
VWidth: 0
Flags: HW
HStem: 253 74<20 334>
VStem: 20 314<253 327>
LayerCount: 2
Fore
SplineSet
20 253 m 1
 20 327 l 1
 334 327 l 1
 334 253 l 1
 20 253 l 1
EndSplineSet
Substitution2: "'smcp' Lowercase to Small Capitals lookup 16-1" uni00AD.smcp
Substitution2: "'c2sc' Capitals to Small Capitals in Latin lookup 17 subtable" uni00AD.smcp
Substitution2: "'case' Case-Sensitive Forms lookup 1-1" uni00AD.alt
EndChar

StartChar: lslash
Encoding: 348 322 263
Width: 330
VWidth: 0
Flags: HW
HStem: 0 53<218.407 310> 763 20G<90 164>
VStem: 90 74<95.4825 404 496 783>
DStem2: 10 430 10 369 0.918343 0.395784<0 63.1771 167.547 298.743>
LayerCount: 2
Fore
SplineSet
10 369 m 1
 10 430 l 1
 90 464 l 1
 90 783 l 1
 164 783 l 1
 164 496 l 1
 307 558 l 1
 306 498 l 1
 164 436 l 1
 164 189 l 2
 164 102 187 82 221 74 c 2
 221 74 303 53 310 53 c 1
 310 0 l 1
 222 0 l 2
 145 0 90 48 90 189 c 2
 90 404 l 1
 10 369 l 1
EndSplineSet
Substitution2: "'smcp' Lowercase to Small Capitals lookup 16-1" lslash.smcp
EndChar

StartChar: Dcroat
Encoding: 349 272 264
Width: 657
VWidth: 0
Flags: HW
HStem: 0 77<154 432.711> 346 54<15 80 154 293> 652 80<155.688 437.027>
VStem: 80 74<77 346 400 652> 535 77<212.114 523.426>
LayerCount: 2
Fore
SplineSet
154 77 m 1
 353 77 l 2
 485 77 535 210 535 364 c 0
 535 574 461 653 353 653 c 2
 154 652 l 1
 154 400 l 1
 293 400 l 1
 293 346 l 1
 154 346 l 1
 154 77 l 1
15 346 m 1
 15 400 l 1
 80 400 l 1
 80 731 l 2
 80 732 293 732 353 732 c 0
 578 732 612 513 612 363 c 0
 612 197 546 0 353 0 c 2
 80 0 l 1
 80 346 l 1
 15 346 l 1
EndSplineSet
Substitution2: "'c2sc' Capitals to Small Capitals in Latin lookup 17 subtable" dcroat.smcp
EndChar

StartChar: dcroat
Encoding: 350 273 265
Width: 554
VWidth: 0
Flags: HW
HStem: -6 74<170.522 328.738> 465 74<166.731 366.308> 616 54<299 421 494 566> 765 20G<421 494>
VStem: 50 74<128.042 415.865> 421 73<105.707 443.8 499 616 670 785>
LayerCount: 2
Fore
SplineSet
124 263 m 0
 124 133 160 68 225 68 c 0
 304 68 367 92 421 114 c 1
 421 439 l 1
 352 457 302 465 225 465 c 0
 161 465 124 426 124 263 c 0
50 263 m 0
 50 399 74 539 225 539 c 0
 270 539 357 525 421 499 c 1
 421 616 l 1
 299 616 l 1
 299 670 l 1
 421 670 l 1
 421 785 l 1
 494 785 l 1
 494 670 l 1
 566 670 l 1
 566 616 l 1
 494 616 l 1
 494 0 l 1
 441 0 l 1
 421 59 l 1
 395 40 293 -6 225 -6 c 0
 80 -6 50 141 50 263 c 0
EndSplineSet
Substitution2: "'smcp' Lowercase to Small Capitals lookup 16-1" dcroat.smcp
AlternateSubs2: "'salt' Access All Alternates in Latin lookup 4-1" dcroat.salt
EndChar

StartChar: questiondown.alt
Encoding: 351 -1 266
Width: 541
VWidth: 0
Flags: HW
HStem: -6 74<153.716 475.566> 14 55<303.618 521> 376 61<151.674 283> 628 105<272.163 373.854>
VStem: 40 73<105.413 341.099> 272 102<628.072 732.896> 283 75<437 538>
LayerCount: 2
Fore
SplineSet
272 653 m 2
 272 710 l 2
 272 725 281 733 295 733 c 2
 350 733 l 2
 364 733 374 724 374 710 c 2
 374 653 l 2
 374 638 366 628 350 628 c 2
 295 628 l 2
 280 628 272 639 272 653 c 2
40 179 m 2
 40 280 l 2
 40 415 148 458 283 437 c 1
 283 440 285 532 283 538 c 1
 358 538 l 1
 358 376 l 1
 300 377 274 378 216 376 c 0
 167 374 113 347 113 280 c 2
 113 179 l 2
 113 101 153 68 250 68 c 2
 521 69 l 1
 521 14 l 1
 419 1 354 -11 239 -6 c 1
 87 -6 40 81 40 179 c 2
EndSplineSet
EndChar

StartChar: at.alt
Encoding: 352 -1 267
Width: 846
VWidth: 0
Flags: HW
HStem: -100 75<168.6 659.979> 516 74<162.039 515.947> 704 74<226.531 647.161> 704 47<179 338.312>
VStem: 66 74<5.43942 493.711> 226 74<158.421 287.352> 530 72<186.568 320 371.57 447.945 448 499.883> 546 56<78 110> 686 74<1 666.321>
LayerCount: 2
Fore
SplineSet
300 192 m 0
 300 171 328 142 361 143 c 1
 420 142 480 173 530 197 c 1
 530 320 l 1
 360 304 l 2
 320 300 299 272 300 237 c 0
 300 236 300 193 300 192 c 0
65 426 m 2
 65 462 68 590 234 590 c 2
 449 590 l 2
 520 590 602 560 602 450 c 2
 602 78 l 1
 546 78 l 1
 532 142 l 1
 530 142 445 69 354 69 c 1
 280 67 225 118 226 186 c 1
 226 239 l 2
 226 319 272 372 355 372 c 0
 423 372 530 371 530 372 c 2
 530 372 531 448 530 448 c 1
 530 504 500 516 446 516 c 2
 234 516 l 2
 186 516 140 506 140 426 c 2
 140 78 l 2
 140 -12 194 -25 234 -25 c 2
 583 -25 l 2
 665 -25 686 10 686 78 c 2
 686 590 l 2
 686 667 644 704 583 704 c 2
 179 704 l 1
 179 751 l 1
 227 761 341 779 467 778 c 2
 583 777 l 1
 689 775 760 715 760 590 c 2
 760 78 l 2
 760 -20 721 -100 583 -100 c 2
 234 -100 l 2
 132 -100 66 -38 66 78 c 2
 65 426 l 2
EndSplineSet
EndChar

StartChar: questiondown
Encoding: 191 191 268
Width: 543
VWidth: 0
Flags: HW
HStem: -268 74<169.546 475.566> 114 61<164.881 281> 369 102<270.415 366.649>
VStem: 40 86<-151.483 72.3806> 270 97<369.191 470.697> 281 78<175 276>
LayerCount: 2
Fore
SplineSet
270 394 m 1
 270 445 l 2
 270 459 282 470 294 471 c 1
 343 471 l 1
 357 470 367 462 367 448 c 2
 367 394 l 1
 366 380 359 370 346 369 c 1
 290 369 l 1
 277 373 271 382 270 394 c 1
40 22 m 1
 38 139 146 196 281 175 c 1
 281 178 283 270 281 276 c 1
 358 276 l 1
 359 114 l 1
 301 115 274 116 216 114 c 0
 167 112 131 67 127 15 c 1
 127 15 126 -65 126 -85 c 0
 126 -136 158 -197 250 -194 c 1
 300 -194 523 -193 523 -193 c 2
 520 -193 523 -249 521 -248 c 1
 419 -261 354 -273 239 -268 c 1
 70 -269 40 -164 40 -80 c 2
 40 22 l 1
EndSplineSet
Substitution2: "'smcp' Lowercase to Small Capitals lookup 16-1" questiondown.smcp
Substitution2: "'case' Case-Sensitive Forms lookup 1-1" questiondown.alt
EndChar

StartChar: oe
Encoding: 353 339 269
Width: 917
VWidth: 0
Flags: HW
HStem: -5 74<175.515 395.321 547.47 843.098> 225 73<517 795.251> 462 74<173.221 391.247 557.068 781.792>
VStem: 50 74<124.237 406.335> 442 75<117.333 225 298 406.675> 803 74<306.569 441.221>
LayerCount: 2
Fore
SplineSet
517 298 m 1
 740 298 l 2
 784 298 803 314 803 347 c 0
 803 452 783 461 675 461 c 0
 561 461 511 450 517 298 c 1
124 258 m 0
 124 81 181 69 284 69 c 0
 422 69 442 107 442 268 c 0
 442 430 407 462 284 462 c 0
 172 462 124 449 124 258 c 0
50 258 m 0
 50 475 110 536 284 536 c 0
 381 536 442 516 477 465 c 1
 512 524 576 535 674 535 c 0
 799 535 877 523 877 347 c 0
 877 270 836 225 740 225 c 2
 517 225 l 1
 513 112 537 69 617 69 c 0
 709 69 792 68 867 79 c 1
 867 23 l 1
 786 0 700 -5 617 -5 c 0
 546 -5 501 14 475 61 c 1
 440 14 379 -5 284 -5 c 0
 105 -5 50 68 50 258 c 0
EndSplineSet
Substitution2: "'smcp' Lowercase to Small Capitals lookup 16-1" oe.smcp
EndChar

StartChar: OE
Encoding: 354 338 270
Width: 1055
VWidth: 0
Flags: HW
HStem: -4 74<218.931 474.259> 14 57<873.588 1000> 323 79<631 861.3> 333 59<729.7 960> 658 58<861.312 1000> 663 74<214.706 481.555 639.476 788.667>
VStem: 65 74<165.414 563.994> 557 74<170.897 323 402 563.535>
LayerCount: 2
Fore
SplineSet
65 361 m 0
 65 704 180 737 348 737 c 0
 442 737 518 727 567 663 c 1
 586 715 632 735 683 732 c 2
 1000 716 l 1
 1000 658 l 1
 683 658 l 2
 631 658 631 629 631 602 c 2
 631 402 l 1
 960 392 l 1
 960 333 l 1
 631 323 l 1
 631 123 l 1
 632 70 664 71 693 71 c 2
 1000 71 l 1
 1000 14 l 1
 693 -3 l 2
 640 -6 585 4 565 66 c 1
 517 8 443 -4 348 -4 c 0
 168 -4 65 28 65 361 c 0
139 361 m 0
 139 104 190 70 348 70 c 0
 504 70 557 112 557 361 c 0
 557 660 484 663 348 663 c 0
 215 663 139 660 139 361 c 0
EndSplineSet
EndChar

StartChar: Ydieresis
Encoding: 355 376 271
Width: 630
VWidth: 0
Flags: HW
HStem: 0 21<278 352> 712 20<45 135.844 513.115 605> 797 101<156.456 238.883 411.456 493.883>
VStem: 147 101<806.456 888.883> 278 74<0 260> 402 101<806.456 888.883>
DStem2: 126 732 45 732 0.442648 -0.896695<0 427.992> 315 348 352 260 0.472429 0.881369<0 437.183>
LayerCount: 2
Fore
SplineSet
402 848 m 0
 402 876 425 898 453 898 c 0
 481 898 503 876 503 848 c 0
 503 820 481 797 453 797 c 0
 425 797 402 820 402 848 c 0
147 848 m 0
 147 876 170 898 198 898 c 0
 226 898 248 876 248 848 c 0
 248 820 226 797 198 797 c 0
 170 797 147 820 147 848 c 0
45 732 m 1
 126 732 l 1
 315 348 l 1
 524 732 l 1
 605 732 l 1
 352 260 l 1
 352 0 l 1
 278 0 l 1
 278 260 l 1
 45 732 l 1
EndSplineSet
Substitution2: "'c2sc' Capitals to Small Capitals in Latin lookup 17 subtable" ydieresis.smcp
EndChar

StartChar: guillemotright
Encoding: 187 187 272
Width: 549
VWidth: 0
Flags: HW
DStem2: 50 198 102 146 0.712151 0.702026<0.526524 223.46> 107 557 55 505 0.712274 -0.701901<0 215.85> 236 198 288 146 0.712151 0.702026<0.526524 223.46> 293 557 241 505 0.712274 -0.701901<0 215.85>
LayerCount: 2
Fore
SplineSet
236 198 m 1
 396 354 l 1
 241 505 l 1
 293 557 l 1
 499 354 l 1
 288 146 l 1
 236 198 l 1
50 198 m 1
 210 354 l 1
 55 505 l 1
 107 557 l 1
 313 354 l 1
 102 146 l 1
 50 198 l 1
EndSplineSet
EndChar

StartChar: cent
Encoding: 162 162 273
Width: 490
VWidth: 0
Flags: HW
HStem: -7 74<153.062 231 291 421.965>
VStem: 40 74<113.52 419.759> 231 60<-96 -7 538 634>
LayerCount: 2
Fore
SplineSet
40 266 m 0
 40 505 115 543 231 538 c 1
 231 634 l 1
 291 634 l 1
 291 533 l 1
 341 527 399 518 443 510 c 1
 443 456 l 1
 443 456 304 464 215 464 c 0
 155 464 114 451 114 262 c 0
 114 109 143 67 215 67 c 0
 307 67 450 78 450 78 c 1
 450 22 l 1
 395 6 344 -1 291 -4 c 1
 291 -96 l 1
 231 -96 l 1
 231 -7 l 1
 117 -9 40 24 40 266 c 0
EndSplineSet
EndChar

StartChar: sterling
Encoding: 163 163 274
Width: 596
VWidth: 0
Flags: HW
HStem: 0 74<196 545> 0 59<50 83.6> 330 62<196 307.588> 330 45<50 79.6471 355.412 467> 659 73<229.518 545.899> 659 57<352.731 546>
VStem: 122 74<74 330 392 624.765>
LayerCount: 2
Fore
SplineSet
50 0 m 1
 50 59 l 1
 122 74 l 1
 122 330 l 1
 50 330 l 1
 50 375 l 1
 122 392 l 1
 122 505 l 2
 122 719 219 732 350 732 c 0
 407 732 546 716 546 716 c 1
 546 659 l 1
 352 659 l 2
 230 659 196 656 196 505 c 2
 196 392 l 1
 467 375 l 1
 467 330 l 1
 196 330 l 1
 196 74 l 1
 545 74 l 1
 545 0 l 1
 50 0 l 1
EndSplineSet
Substitution2: "'smcp' Lowercase to Small Capitals lookup 16-1" sterling.smcp
EndChar

StartChar: yen
Encoding: 165 165 275
Width: 600
VWidth: 0
Flags: HW
HStem: 0 21G<253 327> 153 59<82 253 327 509> 262 59<82 252 328 509> 712 20G<20 112.183 483.811 580>
VStem: 253 74<0 153 212 262>
DStem2: 101 732 20 732 0.491568 -0.870839<0 387.25> 290 394 328 321 0.522708 0.852512<0 395.827>
LayerCount: 2
Fore
SplineSet
20 732 m 1
 101 732 l 1
 290 394 l 1
 496 732 l 1
 580 732 l 1
 328 321 l 1
 509 321 l 1
 509 262 l 1
 327 262 l 1
 327 212 l 1
 509 212 l 1
 509 153 l 1
 327 153 l 1
 327 0 l 1
 253 0 l 1
 253 153 l 1
 82 153 l 1
 82 212 l 1
 253 212 l 1
 253 262 l 1
 82 262 l 1
 82 321 l 1
 252 321 l 1
 20 732 l 1
EndSplineSet
Substitution2: "'smcp' Lowercase to Small Capitals lookup 16-1" yen.smcp
EndChar

StartChar: section
Encoding: 167 167 276
Width: 552
VWidth: 0
Flags: HW
HStem: -8 74<119.106 415.446> 11 55<92 310.018> 230 74<134.09 418.405> 470 73<135.381 418.321> 710 74<137.688 423.802> 710 55<238.5 459>
VStem: 55 74<310.891 465.175 551.311 700.84> 422 74<73.6348 225.019 309.853 464.159>
LayerCount: 2
Fore
SplineSet
129 353 m 2
 129 308 148 304 185 304 c 2
 364 304 l 2
 423 304 422 326 422 354 c 1
 423 355 422 416 422 416 c 2
 422 451 420 470 364 470 c 2
 185 470 l 2
 142 470 129 463 129 414 c 2
 129 353 l 2
56 353 m 2
 56 415 l 2
 56 465 65 497 100 508 c 1
 66 518 55 555 55 590 c 2
 55 660 l 2
 55 758 121 784 185 784 c 0
 234 784 421 769 459 765 c 1
 459 710 l 1
 185 710 l 2
 151 710 130 700 129 660 c 1
 129 590 l 2
 129 552 159 543 185 543 c 2
 364 543 l 2
 477 543 498 490 497 416 c 1
 497 354 l 2
 497 326 495 271 455 265 c 1
 493 259 496 216 496 183 c 2
 496 110 l 2
 496 1 422 -8 358 -8 c 0
 309 -8 130 7 92 11 c 1
 92 66 l 1
 358 66 l 2
 392 66 421 70 422 110 c 1
 422 183 l 2
 422 225 404 230 364 230 c 2
 185 230 l 2
 105 230 56 251 56 353 c 2
EndSplineSet
EndChar

StartChar: g.salt
Encoding: 356 -1 277
Width: 555
VWidth: 0
Flags: HW
HStem: -248 49<78 153.25> -10 74<169.794 370.618> 463 74<175.36 419.713>
VStem: 50 74<114.129 404.434> 421 74<-170.652 29 84.3832 463>
LayerCount: 2
Fore
SplineSet
124 268 m 0
 124 181 120 64 234 64 c 0
 308 64 338 68 421 89 c 1
 421 463 l 1
 234 463 l 2
 127 463 124 331 124 268 c 0
50 268 m 0
 50 436 109 537 234 537 c 0
 340 537 448 518 495 514 c 1
 495 -104 l 2
 495 -228 406 -279 336 -272 c 2
 78 -248 l 1
 78 -199 l 1
 336 -199 l 2
 389 -199 421 -168 421 -104 c 2
 421 29 l 1
 357 3 279 -10 234 -10 c 0
 81 -10 50 110 50 268 c 0
EndSplineSet
EndChar

StartChar: guillemotleft
Encoding: 171 171 278
Width: 549
VWidth: 0
Flags: HW
DStem2: 153 354 50 354 0.712151 -0.702026<0 222.934> 50 354 153 354 0.712274 0.701901<73.3642 289.214> 339 354 236 354 0.712151 -0.702026<0 222.934> 236 354 339 354 0.712274 0.701901<73.3642 289.214>
LayerCount: 2
Fore
SplineSet
236 354 m 1
 442 557 l 1
 494 505 l 1
 339 354 l 1
 499 198 l 1
 447 146 l 1
 236 354 l 1
50 354 m 1
 256 557 l 1
 308 505 l 1
 153 354 l 1
 313 198 l 1
 261 146 l 1
 50 354 l 1
EndSplineSet
EndChar

StartChar: paragraph
Encoding: 182 182 279
Width: 581
VWidth: 0
Flags: HW
HStem: 0 21G<418 492> 355 74<135.615 249.709> 658 74<133.041 250 324 418 492 561>
VStem: 40 74<450.1 636.579> 250 74<-270 372 429 658> 418 74<0 656>
LayerCount: 2
Fore
SplineSet
114 501 m 2
 114 439 168 429 196 429 c 2
 250 429 l 1
 250 658 l 1
 196 658 l 2
 131 658 114 618 114 590 c 2
 114 501 l 2
40 499 m 2
 40 592 l 2
 40 687 119 732 196 732 c 2
 561 732 l 1
 561 656 l 1
 492 656 l 1
 492 0 l 1
 418 0 l 1
 418 658 l 1
 324 658 l 1
 324 -270 l 1
 250 -270 l 1
 250 372 l 1
 244 370 225 354 196 355 c 1
 93 355 40 421 40 499 c 2
EndSplineSet
EndChar

StartChar: macron
Encoding: 175 175 280
Width: 392
VWidth: 0
Flags: HW
HStem: 531 63<50 342>
VStem: 50 292<531 594>
LayerCount: 2
Fore
SplineSet
50 531 m 1
 50 594 l 1
 342 594 l 1
 342 531 l 1
 50 531 l 1
EndSplineSet
Substitution2: "'smcp' Lowercase to Small Capitals lookup 16-1" macron.smcp
EndChar

StartChar: copyright
Encoding: 169 169 281
Width: 811
VWidth: 0
Flags: HW
HStem: 0 64<219.418 609.907> 147 64<324.542 535.33> 519 64<327.101 540.215> 668 64<204.758 617.039>
VStem: 55 64<208.582 549.302> 231 64<244.418 482.204> 692 64<188.898 561.572>
LayerCount: 2
Fore
SplineSet
231 365 m 0
 231 526 294 583 375 583 c 0
 416 583 497 569 553 559 c 1
 553 507 l 1
 490 516 408 519 375 519 c 0
 321 519 295 467 295 362 c 0
 295 278 308 211 375 211 c 0
 447 211 524 222 559 227 c 1
 559 175 l 1
 495 157 442 147 375 147 c 0
 296 147 231 188 231 365 c 0
119 368 m 0
 119 225 168 65 282 64 c 1
 552 64 l 1
 630 65 692 164 692 368 c 0
 692 488 683 668 552 668 c 2
 282 668 l 2
 193 668 119 610 119 368 c 0
55 368 m 0
 55 531 90 732 282 732 c 2
 552 732 l 2
 748 732 756 492 756 368 c 0
 756 175 703 0 552 0 c 2
 282 0 l 2
 98 0 55 234 55 368 c 0
EndSplineSet
EndChar

StartChar: registered
Encoding: 174 174 282
Width: 811
VWidth: 0
Flags: HW
HStem: 0 64<219.418 609.907> 335 44<325 371.083> 516 64<325 497.492> 668 64<204.758 617.039>
VStem: 55 64<208.582 549.302> 261 64<153 335 379 516> 508 64<386.541 506.516> 692 64<188.898 561.572>
DStem2: 476 321 404 323 0.471934 -0.881634<0 157.081>
LayerCount: 2
Fore
SplineSet
325 379 m 1
 444 379 l 2
 496 379 508 392 508 451 c 0
 508 514 470 516 444 516 c 2
 325 516 l 1
 325 379 l 1
261 153 m 1
 261 580 l 1
 438 580 l 2
 504 580 572 558 572 452 c 0
 572 336 510 328 476 321 c 1
 567 153 l 1
 495 153 l 1
 404 323 l 1
 325 335 l 1
 325 153 l 1
 261 153 l 1
119 368 m 0
 119 225 168 65 282 64 c 1
 552 64 l 1
 630 65 692 164 692 368 c 0
 692 488 683 668 552 668 c 2
 282 668 l 2
 193 668 119 610 119 368 c 0
55 368 m 0
 55 531 90 732 282 732 c 2
 552 732 l 2
 748 732 756 492 756 368 c 0
 756 175 703 0 552 0 c 2
 282 0 l 2
 98 0 55 234 55 368 c 0
EndSplineSet
EndChar

StartChar: plusminus
Encoding: 177 177 283
Width: 527
VWidth: 0
Flags: HW
HStem: 87 74<56 472> 387 74<56 226 300 472>
VStem: 226 74<216 387 461 632>
LayerCount: 2
Fore
SplineSet
56 387 m 1
 56 461 l 1
 226 461 l 1
 226 632 l 1
 300 632 l 1
 300 461 l 1
 472 461 l 1
 472 387 l 1
 300 387 l 1
 300 216 l 1
 226 216 l 1
 226 387 l 1
 56 387 l 1
56 87 m 1
 56 161 l 1
 472 161 l 1
 472 87 l 1
 56 87 l 1
EndSplineSet
EndChar

StartChar: logicalnot
Encoding: 172 172 284
Width: 527
VWidth: 0
Flags: HW
HStem: 256 74<50 403>
VStem: 403 74<159 256>
LayerCount: 2
Fore
SplineSet
50 256 m 1
 50 330 l 1
 477 330 l 1
 477 273 477 216 477 159 c 1
 403 159 l 1
 403 256 l 1
 50 256 l 1
EndSplineSet
EndChar

StartChar: guilsinglleft
Encoding: 357 8249 285
Width: 357
VWidth: 0
Flags: HW
VStem: 50 263
DStem2: 153 354 50 354 0.712151 -0.702026<0 222.934> 50 354 153 354 0.712274 0.701901<73.3642 289.214>
LayerCount: 2
Fore
SplineSet
50 354 m 1
 256 557 l 1
 308 505 l 1
 153 354 l 1
 313 198 l 1
 261 146 l 1
 50 354 l 1
EndSplineSet
EndChar

StartChar: guilsinglright
Encoding: 358 8250 286
Width: 357
VWidth: 0
Flags: HW
VStem: 50 263
DStem2: 50 198 102 146 0.712151 0.702026<0.526524 223.46> 107 557 55 505 0.712274 -0.701901<0 215.85>
LayerCount: 2
Fore
SplineSet
50 198 m 1
 210 354 l 1
 55 505 l 1
 107 557 l 1
 313 354 l 1
 102 146 l 1
 50 198 l 1
EndSplineSet
EndChar

StartChar: perthousand
Encoding: 359 8240 287
Width: 1381
VWidth: 0
Flags: HW
HStem: 2 65<628.174 840.273 1054.17 1266.27> 320 65<628.727 840.826 1054.73 1266.83> 349 65<114.174 326.273> 667 65<114.727 326.826>
VStem: 42 65<421.586 659.414> 334 65<421.586 659.414> 556 65<74.5858 312.414> 848 65<74.5858 312.414> 982 65<74.5858 312.414> 1274 65<74.5858 312.414>
DStem2: 227 0 298 0 0.513461 0.858113<36.4557 853.035>
LayerCount: 2
Fore
SplineSet
1047 127 m 2
 1047 78 1062 67 1109 67 c 2
 1210 67 l 2
 1268 67 1274 82 1274 127 c 2
 1274 260 l 2
 1274 309 1259 320 1212 320 c 2
 1111 320 l 2
 1053 320 1047 305 1047 260 c 2
 1047 127 l 2
982 127 m 2
 982 260 l 2
 982 345 1010 385 1111 385 c 2
 1212 385 l 2
 1310 385 1339 345 1339 260 c 2
 1339 127 l 2
 1339 42 1311 2 1210 2 c 2
 1109 2 l 2
 1011 2 982 42 982 127 c 2
621 127 m 2
 621 78 636 67 683 67 c 2
 784 67 l 2
 842 67 848 82 848 127 c 2
 848 260 l 2
 848 309 833 320 786 320 c 2
 685 320 l 2
 627 320 621 305 621 260 c 2
 621 127 l 2
556 127 m 2
 556 260 l 2
 556 345 584 385 685 385 c 2
 786 385 l 2
 884 385 913 345 913 260 c 2
 913 127 l 2
 913 42 885 2 784 2 c 2
 683 2 l 2
 585 2 556 42 556 127 c 2
227 0 m 1
 665 732 l 1
 736 732 l 1
 298 0 l 1
 227 0 l 1
107 474 m 2
 107 425 122 414 169 414 c 2
 270 414 l 2
 328 414 334 429 334 474 c 2
 334 607 l 2
 334 656 319 667 272 667 c 2
 171 667 l 2
 113 667 107 652 107 607 c 2
 107 474 l 2
42 474 m 2
 42 607 l 2
 42 692 70 732 171 732 c 2
 272 732 l 2
 370 732 399 692 399 607 c 2
 399 474 l 2
 399 389 371 349 270 349 c 2
 169 349 l 2
 71 349 42 389 42 474 c 2
EndSplineSet
Substitution2: "'smcp' Lowercase to Small Capitals lookup 16-1" perthousand.smcp
EndChar

StartChar: dagger
Encoding: 360 8224 288
Width: 384
VWidth: 0
Flags: HW
HStem: 489 59<20 113.1 271.6 364>
VStem: 153 79<50.4445 479 558 743.5> 160 63<-72 356.556 605.111 770>
LayerCount: 2
Fore
SplineSet
20 489 m 1
 20 548 l 1
 153 558 l 1
 161 770 l 1
 224 770 l 1
 232 558 l 1
 364 548 l 1
 364 489 l 1
 232 479 l 1
 223 -72 l 1
 160 -72 l 1
 153 479 l 1
 20 489 l 1
EndSplineSet
EndChar

StartChar: daggerdbl
Encoding: 361 8225 289
Width: 404
VWidth: 0
Flags: HW
HStem: 174 59<20 113.8 269.5 364> 489 59<20 113.1 271.6 364>
VStem: 153 79<-19.5555 164 243 479 558 722.889> 160 63<-72 164 618.571 770>
LayerCount: 2
Fore
SplineSet
20 174 m 1
 20 233 l 1
 154 243 l 1
 153 479 l 1
 20 489 l 1
 20 548 l 1
 153 558 l 1
 162 770 l 1
 224 770 l 1
 232 558 l 1
 364 548 l 1
 364 489 l 1
 232 479 l 1
 229 243 l 1
 364 233 l 1
 364 174 l 1
 227 164 l 1
 223 -72 l 1
 160 -72 l 1
 156 164 l 1
 20 174 l 1
EndSplineSet
EndChar

StartChar: trademark
Encoding: 362 8482 290
Width: 692
VWidth: 0
Flags: HW
HStem: 668 64<20 118 182 279>
VStem: 118 64<383 668>
DStem2: 318 383 382 383 0.0771334 0.997021<4.93654 208.489> 501 495 397 586 0.365288 -0.930895<-122.701 0> 501 495 529 383 0.319824 0.947477<0 115.656> 646 732 596 585 0.0884769 -0.996078<142 344.712>
LayerCount: 2
Fore
SplineSet
318 383 m 1
 345 732 l 1
 408 732 l 1
 501 495 l 1
 581 732 l 1
 646 732 l 1
 677 383 l 1
 613 383 l 1
 596 585 l 1
 529 383 l 1
 476 383 l 1
 397 586 l 1
 382 383 l 1
 318 383 l 1
20 668 m 1
 20 732 l 1
 279 732 l 1
 279 668 l 1
 182 668 l 1
 182 383 l 1
 118 383 l 1
 118 668 l 1
 20 668 l 1
EndSplineSet
EndChar

StartChar: notequal
Encoding: 363 8800 291
Width: 467
VWidth: 0
Flags: HW
HStem: 212 79<20 119 228 447> 416 79<20 243 352 447>
DStem2: 67 126 128 126 0.519581 0.854421<31.6944 100.498 224.632 339.228 463.362 519.65>
LayerCount: 2
Fore
SplineSet
20 212 m 1
 20 291 l 1
 167 291 l 1
 243 416 l 1
 20 416 l 1
 20 495 l 1
 291 495 l 1
 337 570 l 1
 398 570 l 1
 352 495 l 1
 447 495 l 1
 447 416 l 1
 304 416 l 1
 228 291 l 1
 447 291 l 1
 447 212 l 1
 180 212 l 1
 128 126 l 1
 67 126 l 1
 119 212 l 1
 20 212 l 1
EndSplineSet
EndChar

StartChar: infinity
Encoding: 364 8734 292
Width: 786
VWidth: 0
Flags: HW
HStem: 169 74<148.607 288.984 497.553 636.547> 440 74<144.363 282.824 503.176 641.214>
VStem: 50 74<267.169 420.051> 662 74<267.944 419.33>
LayerCount: 2
Fore
SplineSet
425 341 m 1
 458 292 501 243 570 243 c 0
 643 243 662 286 662 341 c 0
 662 396 655 440 570 440 c 0
 515 440 457 391 425 341 c 1
124 341 m 0
 124 286 139 243 216 243 c 0
 285 243 328 292 361 341 c 1
 329 391 271 440 216 440 c 0
 129 440 124 396 124 341 c 0
50 341 m 0
 50 428 78 514 216 514 c 0
 292 514 355 467 393 409 c 1
 431 467 494 514 570 514 c 0
 708 514 736 428 736 341 c 0
 736 249 697 169 570 169 c 0
 493 169 436 199 392 277 c 1
 348 199 290 169 216 169 c 0
 89 169 50 249 50 341 c 0
EndSplineSet
EndChar

StartChar: lessequal
Encoding: 365 8804 293
Width: 475
VWidth: 0
Flags: HW
HStem: 104 74<50 426>
DStem2: 50 474 149 434 0.918002 0.396577<75.0191 376.77> 149 434 50 394 0.907108 -0.420898<0 305.92>
LayerCount: 2
Fore
SplineSet
50 394 m 1
 50 474 l 1
 425 636 l 1
 425 556 l 1
 149 434 l 1
 425 302 l 1
 425 220 l 1
 50 394 l 1
50 104 m 1
 50 178 l 1
 426 178 l 1
 426 104 l 1
 50 104 l 1
EndSplineSet
EndChar

StartChar: greaterequal
Encoding: 366 8805 294
Width: 475
VWidth: 0
Flags: HW
HStem: 104 74<50 426>
DStem2: 51 636 51 556 0.918002 -0.396577<31.7261 333.477> 51 302 51 220 0.907108 0.420898<0 305.92>
LayerCount: 2
Fore
SplineSet
51 220 m 1
 51 302 l 1
 327 434 l 1
 51 556 l 1
 51 636 l 1
 426 474 l 1
 426 394 l 1
 51 220 l 1
50 104 m 1
 50 178 l 1
 426 178 l 1
 426 104 l 1
 50 104 l 1
EndSplineSet
EndChar

StartChar: circumflex
Encoding: 367 710 295
Width: 392
VWidth: 0
Flags: HW
HStem: 531 130
VStem: 50 292
LayerCount: 2
Fore
SplineSet
50 531 m 1
 167 661 l 1
 238 661 l 1
 342 531 l 1
 271 531 l 1
 200 602 l 1
 122 531 l 1
 50 531 l 1
EndSplineSet
Substitution2: "'smcp' Lowercase to Small Capitals lookup 16-1" circumflex.smcp
EndChar

StartChar: tilde
Encoding: 368 732 296
Width: 438
VWidth: 0
Flags: HW
HStem: 532 69<219.881 333.875> 566 70<105.717 223.241>
LayerCount: 2
Fore
SplineSet
50 572 m 1
 90 605 127 636 168 636 c 1
 218 633 247 602 275 601 c 0
 299 600 334 620 366 637 c 1
 388 595 l 1
 355 570 315 530 273 532 c 0
 217 535 202 567 166 566 c 0
 122 565 108 545 71 531 c 1
 50 572 l 1
EndSplineSet
Substitution2: "'smcp' Lowercase to Small Capitals lookup 16-1" tilde.smcp
EndChar

